<svg width="1002" height="1130" viewBox="0 0 1002 1130" fill="none" xmlns="http://www.w3.org/2000/svg">
<path fill-rule="evenodd" clip-rule="evenodd" d="M977.081 629.472C962.802 630.874 948.523 632.274 934.243 633.676C865.855 638.901 797.494 649.813 729.63 656.362C727.94 653.612 724.633 654.065 722.625 655.976C715.853 655.383 708.263 650.207 702.129 655.591C701.93 655.563 701.73 655.53 701.529 655.511C690.607 634.548 683.058 612.189 675.73 589.8C671.054 576.035 664.761 562.71 653.133 553.468C633.289 539.693 587.822 511.76 564.52 512.934C564.134 508.762 562.189 504.462 558.995 501.684C566.034 489.685 537.892 481.856 535.907 483.247C537.179 443.159 518.322 408.345 476.742 400.362C439.492 392.6 386.509 391.296 366.475 430.225C364.273 429.977 341.762 429.86 339.584 430.104C336.197 425.815 299.008 466.457 314.25 480.606C177.978 540.888 100.493 533.695 62.7747 703.164C57.6756 719.084 57.3042 736.505 51.9198 752.07C32.7635 796.801 17.2258 844.432 13.3589 893.104C4.01946 895.497 2.94537 911.964 13.7633 914.346C17.8955 915.257 21.3509 916.501 24.364 918.86C22.0086 958.746 31.6553 1049.86 37.7335 1049.58C50.127 1089.02 105.409 1100.15 144.546 1086.29C137.799 1098.99 144.546 1106.97 144.546 1113.75C285.373 1119.08 439.353 1116.01 580.141 1123.32C598.15 1123.06 617.092 1127.74 634.855 1125.05C645.688 1122.45 645.706 1105.42 634.718 1103.31L682.731 1092.88C681.658 1092.48 702.522 1078.6 718.291 1052.67C732.969 1023.66 722.979 988.637 729.63 957.081C781.574 952.833 834.377 951.017 885.753 942.22C892.758 963.179 923.082 938.113 932.721 928.03C932.709 928.014 932.697 927.999 932.685 927.983C937.349 926.707 941.09 922.335 941.215 917.159C944.486 912.485 945.173 905.897 942.036 901.38C956.415 818.412 978.335 733.7 986.258 649.952C989.058 649.332 991.696 648.104 993.932 646.212L993.751 646.031C997.54 641.807 998.277 634.516 991.96 630.927C986.865 628.029 982.611 628.928 977.081 629.472Z" fill="white"/>
<path fill-rule="evenodd" clip-rule="evenodd" d="M369.072 421.184C373.315 410.521 387.658 414.666 386.059 425.868C385.102 432.578 381.427 439.665 378.126 445.546C375.438 450.333 372.372 455.005 368.215 458.593C375.615 465.497 383.296 472.149 391.172 478.465C399.766 485.356 408.803 491.708 418.144 497.546C426.335 502.666 434.896 507.202 442.617 513.044C449.796 518.475 456.336 525.007 459.664 533.534C463.209 542.614 461.668 551.992 459.058 561.066L458.758 562.092C456.091 571.082 451.474 581.919 457.876 590.389C461.135 594.701 465.873 597.755 469.964 601.202C473.6 604.266 477.013 607.598 480.143 611.177C486.968 618.979 492.519 627.758 496.022 637.54L496.335 638.429C499.338 647.088 501.532 657.696 497.475 666.198C496.311 668.635 492.557 667.843 491.905 665.47C490.431 660.094 490.508 654.464 489.272 649.012C487.986 643.342 485.846 637.96 483.051 632.868C477.643 623.017 470.319 614.603 461.666 607.489L459.076 605.383C452.326 599.843 446.124 593.966 444.754 584.798C443.288 574.989 447.218 565.645 449.745 556.361C451.506 549.891 452.081 543.689 450.178 537.842C447.853 541.637 444.681 545.239 442.172 548.452C437.175 554.853 432.131 561.215 427.1 567.589C421.942 574.125 416.911 580.764 412.12 587.575C409.977 590.622 407.857 593.687 405.744 596.755C404.155 599.061 401.939 601.365 400.207 603.717C400.628 604.975 400.596 606.425 399.833 607.455C390.648 619.865 377.581 593.971 374.173 587.429C367.233 574.106 362.068 559.952 355.105 546.632C347.89 532.824 339.674 519.384 330.517 506.778C324.978 499.153 318.77 491.991 313.703 484.124C301.766 494.948 286.058 502.204 271.63 508.784C255.777 516.013 239.308 521.918 223.055 528.188L218.254 530.053C190.249 540.983 161.56 552.99 138.283 572.403C110.93 595.216 94.7478 627.012 82.7008 659.938C68.8328 697.843 57.3598 736.771 46.6648 775.674C41.1918 795.579 35.9988 815.574 31.1168 835.633C26.8148 853.305 23.2488 871.153 18.2688 888.643C28.3688 888.286 39.8878 892.196 48.5108 893.325C87.8098 898.469 126.58 906.669 163.683 920.866C168.266 922.62 169.592 927.197 168.594 930.907C171.237 930.161 173.878 929.405 176.521 928.663C173.625 924.226 175.007 916.294 175.235 911.376L175.249 911.038C175.483 904.485 176.194 897.925 176.655 891.384C177.533 878.915 178.675 866.537 180.195 854.14L180.583 851.04C182.305 837.552 183.578 823.985 185.457 810.52L185.679 808.979C184.778 805.534 183.729 802.131 182.628 798.743C179.694 789.718 175.553 781.223 171.924 772.482C171.496 771.453 172.962 770.862 173.647 771.479C179.793 777.008 184.675 784.022 188.597 791.358C188.665 791.012 188.725 790.665 188.796 790.319L189.243 788.116C190.347 782.744 191.689 777.092 194.985 772.735C195.336 772.272 196.03 772.175 196.362 772.735C199.516 778.072 199.869 784.831 200.354 790.904C200.903 797.774 200.972 804.731 200.875 811.62C200.686 825.083 199.737 838.584 198.981 852.025C198.239 865.233 196.783 878.274 194.906 891.352L194.549 893.805C193.631 900.03 192.88 906.333 191.67 912.515L191.328 914.198C190.681 917.264 190.283 921.587 188.995 925.178C222.133 915.935 255.322 906.903 288.574 898.03C312.607 891.616 336.665 885.298 360.713 878.94C361.982 876.653 363.562 874.517 365.534 872.608C372.031 866.316 380.641 863.509 388.538 868.352C389.18 868.747 389.234 869.753 388.538 870.134C387.025 870.961 385.509 871.809 384.02 872.693L398.46 868.782C409.253 865.857 420.175 862.202 431.222 860.163C451.569 850.122 473.453 842.854 494.887 835.671L497.413 834.817C508.387 831.075 519.739 826.886 531.078 824.812C539.379 823.294 549.123 825.126 552.461 833.63C556.687 836.415 560.663 839.688 564.5 842.907C567.274 845.233 569.933 847.706 572.637 850.114L573.135 850.552C575.346 852.47 577.097 853.754 577.64 856.807C577.92 858.384 576.918 860.516 574.973 860.307C569.022 859.67 564.183 852.772 560.147 848.653C557.029 845.469 553.886 842.177 551.04 838.678C549.381 839.581 547.107 839.419 546.051 837.419C540.575 827.05 525.574 834.235 517.274 836.694L505.384 840.213C499.439 841.975 493.497 843.746 487.565 845.548C471.261 850.499 455.037 856.04 438.585 860.587C440.057 862.205 439.854 865.083 437.058 866.178C424.18 871.231 410.052 873.844 396.673 877.311C388.226 879.502 379.784 881.706 371.345 883.923C369.898 886.267 368.857 888.919 368.419 892.006C366.808 903.357 369.914 916.453 372.94 927.431L373.396 929.069C375.883 937.895 379.542 948.715 387.157 954.288C389.016 955.647 391.383 956.593 393.769 956.807C408.676 949.134 423.582 941.462 438.497 933.804C441.26 932.385 443.813 934.306 444.433 936.59C449.692 935.727 454.939 934.367 459.718 932.745C467.748 930.018 474.018 924.817 481.546 921.22C496.112 914.262 510.987 922.809 524.028 929.307L527.034 930.784C532.882 933.622 545.05 939.073 547.856 931.312C550.57 923.804 541.989 915.78 536.447 912.401C529.841 908.372 522.149 906.216 514.683 904.42C510.42 903.394 506.105 902.557 501.764 901.946C496.84 901.253 491.754 901.357 487.013 899.76C484.657 898.968 484.295 895.226 487.013 894.608C494.311 892.947 503.021 894.759 510.637 896.61L514.618 897.591C522.291 899.474 530.038 901.837 537.027 905.593C542.109 908.325 547.473 912.475 550.977 917.555C554.02 914.728 557.807 914.824 561.752 915.872L563.893 916.468C567.429 917.447 570.295 918.122 573.736 917.443C574.196 914.94 574.662 912.436 575.161 909.932C580.064 885.318 585.441 860.798 591.374 836.409C601.608 794.341 613.45 752.735 626.8 711.556L628.14 707.439C631.219 698.02 633.697 687.758 638.661 679.105C643.356 670.923 650.878 666.21 659.815 663.714C669.957 660.882 680.614 659.4 690.96 657.487C693.268 657.061 695.582 656.656 697.892 656.237C695.94 652.712 694.483 648.711 693.17 645.641L692.94 645.109C690.12 638.68 687.587 632.136 685.141 625.556L683.312 620.61C678.895 608.699 674.336 596.984 668.127 585.844C661.591 574.12 652.92 564.535 642.111 556.602C620.073 540.426 593.51 532.175 572.135 514.888C571.259 514.18 572.382 512.969 573.271 513.417C587.704 520.669 603.285 525.6 618.297 531.504L621.258 532.672C633.124 537.376 645.174 542.497 655.444 550.112C666.894 558.604 675.912 569.15 682.69 581.691C689.37 594.053 693.643 607.89 698.356 621.094L699.616 624.612C701.517 629.888 703.481 635.148 705.731 640.282C707.517 644.358 710.85 649.011 712.365 653.667C716.51 652.948 720.654 652.227 724.803 651.534C814.67 636.53 905.541 627.714 996.614 625.135C1000.18 625.034 1002.02 628.434 1001.49 631.542C992.755 683.223 984.988 735.081 976.466 786.801C972.746 809.374 968.952 831.93 965.069 854.475C963.102 865.897 960.828 877.275 958.965 888.714C957.461 897.952 956.369 907.262 953.787 916.286C951.471 924.377 947.917 932.179 942.08 938.352C935.788 945.006 927.006 948.227 918.166 949.749C895.725 953.611 872.707 955.188 850.084 957.761L729.637 971.464C731.397 987.463 731.528 1003.21 730.721 1019.4L730.261 1028.23C729.884 1035.34 729.435 1042.46 728.414 1049.49C727.134 1058.31 723.098 1065.78 717.153 1072.37C711.694 1078.43 705.062 1083.59 698.611 1088.54C691.915 1093.68 684.996 1098.64 677.123 1101.81L676.101 1102.22C669.194 1104.91 656.238 1109.09 646.797 1107.56C648.031 1113.75 650.419 1120.4 648.302 1126.51C647.32 1129.35 643.605 1130.77 641.329 1128.35C636.82 1123.56 636.468 1117.24 635.4 1110.99C634.289 1104.48 633.331 1097.95 632.48 1091.41C630.834 1078.76 629.553 1065.99 629.162 1053.24C628.76 1040.13 628.915 1027.01 629.621 1013.93C629.984 1007.2 630.434 1000.49 631.287 993.809C631.651 990.961 632.023 988.111 632.448 985.27C632.603 984.234 632.775 983.203 632.96 982.174L622.149 983.394C605.572 985.244 588.988 986.915 572.294 987.175C570.317 987.205 568.796 986.305 567.802 984.994C566.743 986.719 564.899 987.953 562.258 987.943C538.945 987.856 517.235 980.233 496.031 971.249C485.343 966.719 474.821 961.815 464.117 957.324C454.126 953.132 443.445 950.141 433.695 945.419L408.075 958.857C407.887 959.518 407.646 960.143 407.39 960.666C405.722 964.071 402.433 965.918 399.074 967.309C395.85 968.647 392.511 969.063 389.258 968.725C369.828 978.907 350.393 989.079 330.945 999.228L311.493 1009.37C272.737 1029.55 234.134 1050.06 195.134 1069.76L192.263 1071.21C178.792 1077.96 164.327 1084.81 149.378 1089.92C149.112 1093.7 149.28 1097.38 149.597 1101.39L149.673 1102.26C150.119 1106.99 151.075 1112.92 147.278 1116.29C145.303 1118.04 141.775 1118.05 140.432 1115.41C137.995 1110.62 140.183 1103.07 140.955 1097.86C141.229 1096.01 141.563 1094.11 142.057 1092.26C124.919 1097.36 107.262 1099.84 89.8218 1096.97C72.8418 1094.18 59.6908 1083.49 49.0888 1070.4C37.8998 1056.6 29.9488 1040.51 25.6828 1023.26C20.8278 1003.63 20.5108 983.358 20.6248 963.253C20.7458 941.844 21.5378 920.329 24.1418 899.064C21.2888 898.393 18.1248 897.813 15.2418 898.013C13.8138 900.298 11.0438 901.26 8.5408 900.963C3.09781 906.966 16.9038 913.101 21.3158 914.637C22.8478 915.171 22.6838 917.659 20.9168 917.584L19.8038 917.531C12.9864 917.168 5.94317 916.004 1.9348 909.669C-1.2772 904.591 -0.312196 898.575 3.5168 894.434C6.0458 870.522 12.0918 847.237 17.7188 823.911C23.2408 801.016 29.3818 778.268 35.8908 755.635L38.8088 745.505C49.0571 710.016 59.7692 674.241 73.9058 640.163C80.9648 623.147 89.0968 606.444 100.12 591.607C110.395 577.776 122.526 565.941 136.47 555.833C162.465 536.987 192.967 525.6 222.937 514.751L224.279 514.266C239.81 508.648 255.303 502.963 270.657 496.876C284.236 491.493 297.245 484.668 310.76 479.204C310.321 478.407 309.897 477.601 309.489 476.786L309.239 476.996C309.196 477.03 309.152 477.063 309.107 477.094C307.748 478.036 305.747 477.573 304.627 476.516C301.464 473.532 302.535 470.22 304.646 467.125L304.921 466.731C307.503 463.114 309.806 459.29 312.189 455.542L313.681 453.198C317.681 446.937 321.884 440.633 327.218 435.458C329.688 433.06 332.392 431.266 335.257 429.929C335.012 429.411 337.16 428.352 337.769 428.885C346.846 425.563 357.289 426.259 367.185 427.175M723.809 972.126L711.189 973.561C697.305 975.141 683.415 976.668 669.524 978.181L639.352 981.46C639.275 983.18 639.066 984.862 639.028 986.161C638.831 992.858 638.684 999.558 638.545 1006.26C638.266 1019.69 638.572 1033.13 639.456 1046.53C640.313 1059.51 641.441 1072.5 643.195 1085.4L643.554 1087.98L643.762 1089.34C645.193 1089.47 646.599 1090.15 647.768 1091.55C650.32 1094.6 659.561 1091.64 663.17 1090.35C669.105 1088.24 674.694 1084.67 679.851 1081.09C684.887 1077.6 689.422 1073.53 693.78 1069.23L697.345 1065.71C700.892 1062.18 704.443 1058.43 706.616 1054C709.563 1047.98 709.944 1040.6 710.808 1034.06C711.872 1026 713.139 1017.95 714.478 1009.93M357.454 887.584L356.145 887.928C308.594 900.563 261.114 913.571 213.417 925.648C189.813 931.626 166.097 937.169 142.464 943.032L138.638 943.989C119.994 948.701 101.126 954.372 86.8488 967.895C86.3218 968.393 85.5568 967.628 86.0528 967.099C101.44 950.719 123.324 943.785 144.336 937.774C148.22 936.663 152.109 935.578 155.994 934.473C127.418 924.286 98.3908 915.423 68.6938 909.102C61.0468 907.474 53.3108 906.279 45.6698 904.645C40.3409 903.505 35.1367 901.857 29.8641 900.489L25.7168 899.446L25.6617 912.554C25.5927 931.119 25.6257 949.669 26.5728 968.231L26.7521 971.67C27.8572 992.327 29.5821 1013.41 36.9128 1032.89C42.8698 1048.72 52.3648 1063.63 64.7818 1075.16C71.0648 1080.99 77.8198 1085.53 86.1698 1087.78C93.9228 1089.86 102.046 1090.1 110.016 1089.55C148.245 1086.88 182.275 1066.11 215.483 1048.92C269.8 1020.79 324.123 992.685 378.495 964.67C377.025 963.665 375.641 962.507 374.382 961.206C367.091 953.676 363.245 943.368 360.719 933.385C358.03 922.759 356.422 911.37 356.235 900.4M426.637 975.526C427.117 975.268 427.673 975.591 427.695 976.133C427.863 980.286 425.568 984.382 423.853 988.123L423.672 988.522C421.589 993.156 419.308 997.728 416.949 1002.23C412.234 1011.22 407.334 1020.11 402.22 1028.88C391.936 1046.52 380.508 1063.42 367 1078.78C363.949 1082.25 358.931 1077.8 360.889 1074.07C370.329 1056.06 381.334 1039.05 392.662 1022.2C398.333 1013.76 404 1005.31 409.727 996.905C412.116 993.399 414.536 989.906 417.021 986.466L418.52 984.408M990.592 635.45C942.875 636.891 895.214 640.003 847.724 644.88C803.558 649.415 759.554 655.452 715.798 662.978C706.659 664.55 697.531 666.186 688.414 667.887L682.946 668.915C673.828 670.643 662.689 671.356 654.571 676.227C646.012 681.362 643.699 692.094 640.851 700.944C637.503 711.352 634.24 721.79 631.065 732.253C618.457 773.796 606.94 815.699 596.666 857.879C591.566 878.816 587.041 899.87 582.273 920.883C578.037 939.553 573.363 958.012 568.48 976.495C569.082 976.027 569.82 975.671 570.711 975.481C594.959 970.322 619.71 968.08 644.321 965.23L646.702 964.952C672.161 961.958 697.62 958.986 723.094 956.122L891.753 937.155C901.7 936.037 912.356 935.885 922.036 933.216C938.494 928.676 942.351 910.276 945.112 895.623L945.196 895.18C953.521 850.907 960.148 806.249 967.912 761.864M572.405 925.029C565.857 924.597 556.895 918.6 551.927 919.03C554.535 923.406 555.712 928.397 554.209 933.727C550.026 948.559 531.109 940.885 521.997 936.354C514.526 932.637 507.312 928.089 499.041 926.348C489.671 924.378 483.323 928.104 475.407 932.399C468.905 935.926 461.824 938.459 454.542 939.77C450.67 940.468 446.992 940.542 443.321 940.27C443.1 940.45 442.851 940.617 442.567 940.766L440.625 941.785C449.406 942.187 458.35 944.897 466.522 947.378C474.99 949.948 483.303 953.046 491.572 956.214L499.706 959.341C519.772 967.024 540.542 974.321 562.258 974.257C563.819 974.253 565.098 974.685 566.105 975.39M535.769 878.555C542.238 877.764 548.209 878.612 553.378 882.823C559.612 887.901 563.8 896.323 572.762 896.876C575.375 897.037 575.982 900.711 573.385 901.479C566.714 903.454 561.313 899.845 556.768 895.159L553.712 891.966C549.221 887.316 545.078 883.72 537.457 883.998C529.295 884.296 521.119 886.182 513.01 887.141C503.824 888.227 494.64 889.153 485.425 889.952C484.997 889.989 484.924 889.315 485.325 889.216L495.646 886.647M529.525 852.109L530.592 852.002C539.985 851.09 548.576 851.055 556.966 856.108L558.575 857.081C566.139 861.678 574.372 867.094 579.102 874.538C579.876 875.757 578.597 877.19 577.302 876.88C568.211 874.698 561.565 868.028 553.92 863.036C545.34 857.434 536.477 858.358 526.694 859.228C517.222 860.071 507.755 861.229 498.376 862.808C489.563 864.29 480.722 866.63 471.82 867.376L471.822 867.358C470.805 867.356 470.225 865.829 471.262 865.311C480.296 860.8 490.759 858.665 500.586 856.604M814.89 759.264C813.982 754.921 819.323 752.907 821.799 756.352L822.326 757.079C827.675 764.407 835.411 773.603 835.018 782.923C839.72 783.026 844.595 785.883 846.427 790.126C847.274 792.089 847.561 794.415 847.374 796.823C851.648 797.155 856.309 799.961 858.922 802.693C863.253 807.222 863.594 813.622 860.487 818.914C853.713 830.45 838.914 834.646 826.421 835.583L825.976 835.615C813.072 836.507 794.478 836.266 785.63 825.195C777.095 814.516 786.528 805.87 796.201 801.175C793.683 798.876 792.378 795.579 793.604 792.102C795.757 785.991 803.359 783.63 807.654 779.382C812.889 774.202 816.349 767.097 814.97 759.669M821.982 768.655C820.559 774.839 817.062 780.495 812.193 784.977C810.331 786.691 808.294 788.217 806.13 789.528L805.87 789.679C803.95 790.757 799.229 792.777 799.593 795.196C799.967 797.682 807.657 801.573 809.753 801.575C810.23 801.575 810.5 802.32 810.013 802.536C806.214 804.214 802.897 804.933 799.182 803.16C796.7 805.694 794.289 808.316 791.901 810.915C787.678 815.514 789.122 820.37 794.112 823.794C802.13 829.296 814.319 829.162 823.674 828.762C833.09 828.36 843.155 826.26 850.51 819.988L850.83 819.709C854.827 816.154 858.478 810.13 852.357 806.706C849.96 805.365 847.37 805.444 845.094 804.792C842.964 808.967 839.508 812.311 835.292 812.956C831.885 813.477 829.539 809.195 832.638 807.146L833.334 806.714C837.226 804.23 840.548 800.404 840.46 795.421C840.399 791.962 835.569 787.594 832.423 790.844L832.279 790.999C829.645 793.967 825.008 790.227 826.739 786.938L826.823 786.789M207.862 596.676C207.85 595.933 208.895 595.655 209.26 596.298C215.372 607.051 218.568 620.232 221.824 632.079C225.234 644.489 227.987 657.025 230.46 669.653C235.469 695.224 238.137 720.648 238.319 746.71C238.343 750.431 232.282 751.421 231.689 747.608C227.752 722.257 223.98 696.88 220.013 671.536C218.017 658.789 215.694 646.091 213.471 633.382M268.371 615.405C267.921 613.922 270.078 613.426 270.63 614.782C282.896 644.891 287.051 679.013 279.176 710.778C277.971 715.637 270.854 713.532 271.763 708.734M426.588 588.651C426.526 587.541 427.967 587.366 428.51 588.13C434.322 596.319 436.733 607.286 446.93 611.518C452.021 613.631 457.75 613.263 462.248 616.832C465.255 619.219 467.561 622.987 465.304 626.602C464.576 627.77 462.538 628.355 461.55 627.086C460.108 625.237 459.345 623.023 457.386 621.637C454.623 619.682 450.897 619.561 447.729 618.642C443.631 617.454 440.019 615.375 437.061 612.286M523.686 452.067C524.285 451.762 524.86 451.957 525.243 452.475C525.79 453.213 525.723 453.931 525.053 454.437C525.948 456.266 527.005 460.848 527.156 461.515C527.768 464.219 528.419 466.907 529.1 469.593C530.474 475.01 531.678 480.469 533.053 485.888C534.511 491.632 536.248 497.315 538.181 502.916C538.306 503.279 538.443 503.649 538.587 504.025L538.807 504.592L538.861 504.506C539.254 503.885 540.072 504.319 539.975 504.975C539.885 505.573 539.764 506.168 539.662 506.766L539.865 507.302C541.129 510.705 541.995 514.289 539.675 517.292C538.807 518.415 537.852 519.08 536.662 519.278C534.754 525.568 532.36 531.741 529.797 537.669L529.046 539.401C525.276 548.051 521.255 556.587 515.252 563.951C508.698 571.991 499.683 577.481 493.974 586.291C491.318 590.389 489.47 594.698 487.97 599.326L487.406 601.083C486.341 604.357 485.113 607.529 482.042 609.449C481.062 610.061 479.594 609.866 478.804 609.031C472.507 602.37 479.099 589.932 482.896 583.483C488.174 574.515 495.813 568.778 503.462 562.012C511.707 554.719 516.966 544.963 522.053 535.352C525.169 529.464 528.177 523.449 531.344 517.535C528.035 514.611 526.976 508.802 525.855 504.764L525.753 504.402C523.9 497.936 522.428 491.302 521.498 484.639C520.603 478.233 520.23 471.918 520.467 465.476L520.535 463.835M535.988 482.559C535.257 481.557 536.467 480.422 537.47 480.631C543.569 481.892 549.531 485.583 555.004 488.568L555.588 488.885C559.957 491.241 564.353 494.127 566.647 498.704C569.142 503.679 568.937 509.408 568.597 514.814L568.564 515.32C568.147 521.803 568.08 528.539 566.708 534.905C566.006 538.163 563.055 539.081 560.532 538.311C557.53 547.79 549.097 554.774 542.937 562.254C535.083 571.79 536.561 584.665 537.382 596.15C537.714 600.8 531.93 602.122 528.951 599.641L522.086 593.939C520.943 592.987 519.801 592.034 518.662 591.076C517.687 590.256 516.721 589.429 515.762 588.591L514.33 587.327C513.695 586.759 510.894 583.63 510.075 583.5C508.092 583.185 503.379 588.413 501.766 590.053L501.561 590.257C498.525 593.234 495.782 596.437 493.227 599.834C492.757 600.458 491.838 599.94 492.174 599.219C494.464 594.315 497.126 589.626 500.287 585.238L500.925 584.364C503.028 581.53 505.851 576.526 509.563 575.689C514.096 574.668 518.622 579.213 521.92 581.736L522.128 581.894C523.697 583.071 525.248 584.269 526.796 585.475C526.634 576.924 527.714 568.284 532.129 560.915C535.242 555.718 539.906 551.869 543.897 547.403C548.34 542.43 550.66 536.318 554.682 531.139C555.2 530.473 555.914 530.114 556.687 530C556.842 525.837 557.455 521.632 557.929 517.513L558.066 516.28C558.545 511.805 559.677 506.339 557.486 502.148C555.417 498.19 550.668 495.396 547.152 492.71L544.28 490.483M338.074 435.241C336.238 436.303 334.522 437.624 332.965 439.275C328.064 444.474 324.56 450.944 321.15 457.168C319.314 460.52 317.544 463.909 315.693 467.253C314.888 468.708 314.06 470.147 313.223 471.584C312.836 472.246 311.686 473.562 311.116 474.373C311.749 475.26 312.404 476.134 313.072 476.999C313.327 477.328 330.908 496.48 337.036 503.975C346.42 515.456 354.808 527.583 361.979 540.563C369.001 553.274 374.347 566.732 380.852 579.689C384.108 586.176 387.744 592.617 392.379 598.231C392.558 598.45 392.747 598.657 392.93 598.873C394.699 594.094 399.231 588.977 401.458 586.039L401.666 585.762C406.715 578.956 412.047 572.355 417.495 565.866C422.471 559.941 427.573 554.143 432.799 548.442L434.765 546.308C438.406 542.375 443.031 536.49 448.361 533.68C447.79 532.662 447.129 531.655 446.369 530.661C441.375 524.135 434.315 519.399 427.35 515.126L422.832 512.378C405.804 502.001 389.042 491.144 374.259 477.661C366.438 470.527 358.725 463.054 352.151 454.733L349.826 451.791M366.486 430.104C358.512 430.773 349.901 430.614 342.532 433.212C349.083 439.405 355.31 446.092 361.707 452.389C362.276 448.13 363.44 443.923 364.426 439.77" fill="black"/>
<path fill-rule="evenodd" clip-rule="evenodd" d="M474.801 7.70703C519.573 7.70703 573.291 29.4116 577.858 29.8457L577.981 29.8523C580.384 29.8523 589.773 37.0055 606.149 51.312L588.412 85.906L589.848 87.2765C596.716 93.8619 602.58 99.8642 607.208 104.596C645 143.23 651.792 294.92 642.886 347.819C633.98 400.718 617.484 452.481 540.685 452.481C463.887 452.481 378.447 406.304 365.285 391.923C356.511 382.337 346.655 377.744 335.718 378.145C335.268 377.577 334.822 377.012 334.38 376.448L332.771 376.22C317.634 374.028 306.788 371.077 300.233 367.369C287.43 360.125 273.358 322.046 273.358 313.658C273.358 305.353 252.345 244.941 251.924 238.548L251.918 238.371C251.918 233.026 224.467 208.459 224.467 200.657C224.467 192.854 218.934 193.328 224.467 165.834L226.075 157.757C231.963 128.485 243.488 80.0134 287.43 58.9512C335.718 35.8059 429.578 7.70703 474.801 7.70703Z" fill="white"/>
<path fill-rule="evenodd" clip-rule="evenodd" d="M279.976 57.8635C304.059 32.3017 440.78 -7.23636 509.952 1.14476L512.027 1.41346C517.547 2.11346 522.987 3.17347 528.356 4.61347C545.71 8.66647 563.636 14.8035 577.975 25.0545C589.946 33.4405 627.709 47.1355 616.579 69.0735C620.706 76.8925 622.246 86.5525 619.457 94.2535C619.106 96.9135 618.286 99.3635 617.237 101.903C626.054 114.914 633.035 129.628 638.686 143.623C648.561 178.844 654.706 215.498 655.606 251.433C658.6 319.705 651.114 401.256 591.652 445.404C555.731 473.379 499.463 474.319 459.096 439.633C456.805 436.922 446.032 429.606 449.627 428.323C450.697 429.453 451.797 430.553 452.917 431.633C452.866 431.513 452.856 431.393 452.877 431.263L451.823 430.309C449.84 428.474 447.27 425.813 450.197 426.333C450.326 426.483 450.467 426.613 450.606 426.763C451.226 427.135 451.694 427.458 452.059 427.742L452.246 427.892L452.188 427.832C450.502 426.034 449.491 424.2 452.012 425.371L452.346 425.533C453.467 426.713 454.606 427.843 455.766 428.943C455.747 428.813 455.766 428.683 455.837 428.543L454.755 427.499C453.7 426.464 453.861 426.46 454.377 425.623C452.133 422.478 456.322 424.346 456.616 425.573C459.237 424.953 461.538 429.873 463.226 430.473C537.225 487.363 644.612 436.884 642.873 278.359L642.846 275.258C642.338 224.568 638.072 172.469 617.106 126.583C615.067 122.163 612.786 117.863 610.277 113.703C608.547 110.583 606.697 107.543 604.707 104.583C599.136 104.133 593.636 103.113 588.217 101.533C586.356 101.063 584.516 100.543 582.677 99.9335C555.797 101.399 529.516 102.994 502.561 104.506L494.141 105.031C471.307 106.499 447.692 108.85 429.266 122.973C411.186 135.831 411.104 161.186 395.627 175.303C373.557 190.282 373.396 203.789 369.146 225.863C369.461 242.503 380.999 266.68 359.826 273.683C363.398 278.776 358.419 276.329 358.027 274.543C357.987 274.553 357.947 274.563 357.917 274.563C361.1 280.48 356.421 276.754 356.007 274.853C355.757 274.783 355.507 274.603 355.257 274.353C358.464 279.537 353.28 275.907 353.587 274.963C347.39 265.438 334.636 263.959 325.646 266.483C325.536 266.823 325.137 266.853 324.887 266.673C286.66 274.957 296.523 354.093 335.697 346.443C337.374 346.101 337.334 346.906 337.667 346.983C336.762 344.607 339.313 345.574 339.286 346.073L339.441 346.066C339.564 346.055 339.514 346.042 339.606 346.073C338.731 341.214 343.655 348.254 343.266 348.543C343.417 348.453 343.587 348.403 343.737 348.383L343.567 347.922C342.75 345.745 342.82 346.65 342.826 345.403C342.212 343.862 342.167 344.536 342.311 343.532C344.469 341.86 345.106 346.932 345.826 347.303C344.592 345.583 345.573 344.178 346.737 345.112C355.56 363.67 366.957 381.107 381.686 394.843C383.297 396.113 384.927 397.363 386.616 398.543C392.881 404 402.491 407.509 408.356 412.343C408.356 412.423 408.317 412.523 408.257 412.623L408.391 412.745L408.527 412.873L410.567 413.853C411.167 414.363 411.707 414.933 412.186 415.563C412.697 416.153 413.146 416.803 413.527 417.493C413.717 418.333 413.297 418.683 412.497 418.323C412.146 418.203 411.797 418.063 411.447 417.933C411.467 417.963 411.476 417.983 411.497 418.003C411.612 418.177 412.388 419.978 411.493 419.685L411.387 419.643C410.896 419.463 410.407 419.263 409.927 419.073C410.497 419.783 411.016 420.553 411.476 421.203C411.967 421.713 412.266 422.313 412.387 422.993C412.366 423.373 412.157 423.533 411.777 423.483C411.197 423.293 410.627 423.093 410.056 422.883L410.218 423.193C410.622 423.987 411.195 425.318 410.177 424.873C409.306 424.603 408.467 424.293 407.627 423.953C407.556 424.093 407.417 424.143 407.137 424.013C404.467 423.063 401.887 421.903 399.417 420.533C397.247 418.953 395.056 417.403 392.877 415.833C390.826 414.603 388.846 413.233 386.957 411.693C374.311 403.525 363.24 393.149 354.457 381.593C339.768 394.314 310.399 382.161 292.232 372.203C276.163 363.303 269.847 346.847 268.214 329.105C264.819 305.219 245.299 297.043 246.657 244.633C246.627 244.643 246.596 244.643 246.556 244.643C245.846 244.433 245.157 244.153 244.507 243.793C243.837 243.473 243.207 243.093 242.616 242.633L241.886 241.623C241.507 241.413 241.167 241.193 240.907 240.973L240.772 241.147C240.345 241.662 240.632 240.887 240.657 240.733L239.389 239.009C236.382 234.904 233.083 230.297 230.396 226.613L230.311 226.763C230.25 226.876 230.218 226.958 230.247 226.993C223.852 217.805 217.838 206.707 216.167 195.963C214.194 187.687 214.965 179.159 216.686 171.493C224.065 144.648 248.237 83.9005 279.976 57.8635ZM453.524 429.116L453.123 428.76L453.475 429.201C453.66 429.429 453.849 429.634 454.157 429.843C454.137 429.773 454.137 429.703 454.146 429.623C453.942 429.468 453.733 429.297 453.524 429.116ZM509.646 14.6335C462.738 10.6005 416.601 20.9345 371.839 33.4435L368.751 34.331C343.299 41.5935 316.386 48.1287 294.877 63.6735C264.826 86.6905 249.308 123.306 235.766 157.113C223.941 182.231 229.986 210.554 247.806 228.093C249.66 210.664 252.821 193.745 257.761 176.962C258.792 174.34 258.012 173.481 260.234 173.139C263.59 218.367 247.061 251.783 279.771 305.385C293.964 330.677 277.534 349.183 317.614 362.492L318.699 362.907C327.049 366.058 336.167 368.545 344.346 366.783L343.613 365.592C342.866 364.364 342.639 363.768 343.726 363.243C343.697 363.183 343.657 363.123 343.616 363.053C342.737 361.393 341.887 359.713 341.076 358.013C340.747 358.123 340.417 358.203 340.076 358.293C340.297 358.703 340.326 359.113 339.707 359.253C337.503 360.009 335.24 360.312 332.924 360.171L332.427 360.133C329.81 359.973 328.161 359.496 326.686 359.053C326.197 358.973 325.707 358.893 325.226 358.793C320.481 357.741 315.458 355.065 312.207 352.413C275.149 331.365 278.979 259.716 324.657 252.943C325.594 207.831 347.051 131.723 382.661 88.7365C414.849 49.1955 502.723 32.0575 563.859 38.1005C564.75 38.3955 565.641 38.6935 566.532 38.9945C575.964 39.8325 584.953 44.0345 594.392 45.9865C587.615 40.9075 579.927 37.5245 572.008 34.6495C556.23 24.9985 538.142 19.7765 520.667 16.0935C517.047 15.2035 513.377 14.7135 509.646 14.6335ZM322.566 289.183C325.022 287.849 324.741 289.137 325.306 288.763C342.972 287.322 362.021 302.789 371.896 315.683C371.116 316.493 369.006 314.093 368.636 313.713C368.586 313.763 368.526 313.803 368.466 313.823L368.741 314.211C372.744 319.955 364.809 313.196 364.066 311.803C363.936 311.873 363.806 311.913 363.656 311.883C364.285 312.5 366.206 314.109 366.536 315.253L367.045 315.677C371.848 319.79 371.449 322.883 365.997 317.043C366.126 317.313 366.176 317.563 366.086 317.763L366.274 317.888C368.955 319.762 371.16 324.985 365.556 319.623C366.139 323.539 360.003 315.97 359.806 316.023C349.188 307.688 333.555 299.582 320.236 298.493L319.778 298.441C317.334 298.127 316.178 297.401 317.036 295.803C314.026 295.087 314.731 293.605 316.156 293.653C314.033 292.257 315.944 290.922 317.176 291.443C316.329 289.098 319.726 290.66 320.036 290.333C321.799 287.614 322.274 289.882 322.566 289.183ZM285.536 143.833C294.021 140.725 319.084 150.029 317.079 162.351C315.885 165.18 311.951 166.801 309.186 165.204L305.577 162.781C299.297 158.575 293.633 154.887 286.89 151.218C283.22 149.397 281.64 145.531 285.536 143.833ZM333.811 125.522L330.534 123.39C312.85 111.816 287.851 94.2793 332.186 112.423C337.239 114.59 343.953 115.872 346.71 120.684C351.041 129.553 339.643 130.149 333.811 125.522ZM335.798 73.5932C334.379 68.2082 352.036 74.5272 357.176 76.1932L357.959 76.4889C362.959 78.3519 368.691 80.0803 371.681 84.3952C375.185 90.3572 368.093 91.5922 363.7 88.8992C354.693 83.0132 344.818 78.5722 335.798 73.5932ZM380.699 48.5083C370.76 37.6549 397.359 48.0521 401.343 50.9381L401.457 51.0233C404.43 53.1163 403.827 57.6243 401.034 58.9483C393.087 59.0993 387.239 52.4753 380.699 48.5083ZM425.925 36.6171C410.125 25.2621 430.938 30.6631 438.167 35.1131C443.094 39.4581 438.019 46.7931 425.925 36.6171Z" fill="black"/>
<path fill-rule="evenodd" clip-rule="evenodd" d="M564.534 296.337C567.965 290.283 578.203 291.267 579.768 298.328C582.943 312.642 565.874 325.86 552.91 326.19C540.027 326.517 525.572 315.552 527.437 301.702C527.898 298.276 532.474 298.692 534.034 300.84L534.639 301.664C538.876 307.356 544.467 313.248 552.331 311.86C555.59 311.286 558.55 309.25 560.52 306.629C562.896 303.466 562.635 299.689 564.534 296.337ZM482.615 191.616C484.361 191.135 486.123 191.321 487.67 191.979C491.124 192.612 494.009 195.492 495.023 198.78C495.103 199.065 495.192 199.346 495.291 199.624L495.445 200.039L495.031 198.985C495.222 200.023 496.067 201.114 496.371 202.156C496.745 203.437 496.836 204.892 496.71 206.302C497.808 206.313 498.906 206.35 500.002 206.445L501.061 206.54C506.984 207.091 513.486 208.1 516.998 213.218C518.97 216.094 517.119 221.272 513.496 221.826C507.919 222.679 503.115 219.593 497.557 218.975C492.303 218.39 486.805 218.725 481.619 219.674C470.912 221.632 461.073 225.972 450.639 228.695L449.219 229.055L449.221 229.048C447.433 229.48 445.403 226.994 447.172 225.54C455.531 218.673 466.233 213.108 476.776 209.719C475.24 207.276 474.765 204.058 475.815 201.435C475.977 200.892 476.179 200.363 476.392 199.836L476.836 198.752C476.879 198.241 476.977 197.736 477.119 197.241L477.142 197.09L477.155 197.099C477.94 194.548 479.99 192.34 482.615 191.616ZM589.26 192.011C591.546 189.724 594.758 190.062 597.144 191.862L597.461 192.11C599.71 193.109 601.571 195.292 602.793 197.315C604.062 199.416 604.905 201.556 604.938 203.869C610.472 203.887 615.773 205.547 619.836 210.015C621.148 211.457 622.044 213.681 621.322 215.636L620.892 216.799C619.527 220.491 613.394 222.617 611.309 218.275L611.213 218.063C608.998 212.907 600.495 213.448 595.976 213.975C592.826 214.344 589.715 215.127 586.673 216.004C585.601 216.313 584.539 216.649 583.478 216.991L582.417 217.335C581.851 217.518 578.903 219.119 580.737 218.74C581.23 218.638 581.601 219.356 581.098 219.597C578.912 220.642 576.58 218.561 576.726 216.213C576.979 212.137 583.451 209.903 586.565 208.497L586.752 208.412C587.946 207.86 589.197 207.331 590.488 206.84C589.762 205.76 589.162 204.56 588.663 203.272C588.191 202.056 587.876 200.874 587.703 199.581C587.533 198.949 587.533 198.317 587.703 197.684L587.729 197.503C587.641 197.085 587.599 196.653 587.605 196.218L587.587 196.049H587.605C587.666 194.526 588.271 193 589.26 192.011ZM552.732 235.416C561.515 238.13 576.005 245.523 571.428 256.934C565.037 267.414 548.088 259.712 539.875 256.326C532.496 253.882 528.654 264.223 535.789 267.34C594.748 290.665 594.531 229.106 554.87 230.01C550.503 230.109 550.366 234.514 552.732 235.416ZM474.727 155.149L476.225 154.712C484.01 152.457 491.957 148.563 498.869 154.639C501.583 157.025 502.142 161.983 500.2 164.959C495.776 171.74 489.215 170.704 482.07 171.282C476.63 171.722 471.271 173.32 466.193 175.317C462.043 176.95 458.194 179.249 454.56 181.813C450.99 184.334 448.551 188.275 444.889 190.544C443.547 191.376 441.997 190.52 441.515 189.171C439.807 184.386 442.693 178.425 445.135 174.348C448.116 169.374 452.644 165.306 457.513 162.228C462.845 158.856 468.74 156.91 474.727 155.149ZM588.164 150C601.323 149.996 613.985 157.315 621.345 168.044C623.846 171.689 622.013 177.089 618.423 179.188C614.396 181.544 610.09 179.847 607.436 176.472L607.278 176.267C603.057 170.646 597.616 166.219 591.166 163.337C588.019 161.93 584.539 160.789 581.135 160.21L580.035 160.021C578.493 159.763 576.705 159.516 575.31 159.758C574.563 159.856 573.877 160.103 573.245 160.479C573.549 161.143 572.764 161.943 572.039 161.545C568.769 159.749 569.17 156.545 571.871 154.055C575.692 150.532 583.229 150.001 588.164 150Z" fill="black"/>
<path fill-rule="evenodd" clip-rule="evenodd" d="M577.994 342.311C568.681 334.014 558.242 317.334 544.863 330.532C541.554 334.261 540.214 342.621 535.154 344.261C528.434 346.441 521.774 339.331 519.484 333.871C510.114 303.534 548.848 295.213 570.914 300.114C581.694 304.541 589.634 322.361 590.114 331.661C590.424 337.911 585.134 347.101 577.994 342.311ZM648.254 295.551C648.163 295.148 648.036 294.784 647.883 294.453C643.764 292.896 640.505 294.484 638.491 297.45C638.557 298.187 638.777 298.934 638.916 299.665C637.362 302.939 635.96 306.99 633.854 309.819C633.438 309.851 633.007 309.807 632.593 309.687C597.68 313.333 614.725 276.804 579.314 267.731C551.941 263.215 502.467 268.388 489.554 296.879C479.37 342.387 427.587 310.677 410.585 287.01C392.444 265.471 380.714 239.151 369.404 213.611C367.014 208.206 359.555 212.071 360.366 217.257C349.912 238.228 350.26 263.418 347.671 286.392C343.267 332.227 338.976 396.505 381.563 424.492C437.05 487.209 575.608 509.341 639.606 451.715C661.76 404.085 659.029 345.978 648.254 295.551Z" fill="black"/>
</svg>
