<svg width="423" height="522" viewBox="0 0 423 522" fill="none" xmlns="http://www.w3.org/2000/svg">
<path fill-rule="evenodd" clip-rule="evenodd" d="M291.461 86.6772C217.559 48.8012 107.442 52.8742 55.4444 124.508C47.1684 138.104 38.7675 152.994 34.6915 168.144C29.5794 187.704 20.5353 216.723 18.4386 244.856C17.2206 261.199 22.7598 277.045 21.2568 291.08C20.0686 302.177 8.7065 298.804 9.16797 309.448C10.0695 330.244 10.7276 360.508 21.2568 376.876C31.1528 391.02 49.6344 390.152 60.4984 403.493C70.7374 416.056 79.5875 429.994 92.5295 440.05C119.618 490.598 196.925 502.074 249.041 497.357C373.213 477.629 371.749 292.043 369.966 194.422C370.526 144.453 333.868 107.464 291.461 86.6772Z" fill="white"/>
<path fill-rule="evenodd" clip-rule="evenodd" d="M104.476 31.5212C149.587 6.41117 203.447 -4.12883 254.717 1.46117C280.387 4.27117 305.987 10.6412 328.507 23.6412C349.047 35.4812 365.856 52.9012 376.917 73.8702C387.447 93.8512 392.767 116.761 393.356 139.281C393.657 150.661 392.537 162.051 390.347 173.221C389.257 178.801 387.606 184.981 388.927 190.661C390.207 196.161 395.377 199.231 399.247 202.891C416.587 219.301 425.117 244.201 421.807 267.771C418.957 288.101 406.637 309.33 388.597 320.151C391.327 323.271 393.436 327.031 394.877 330.711C398.407 339.771 398.157 349.471 394.307 358.361C390.377 367.421 382.537 378.421 373.627 383.151C369.217 385.481 364.037 386.29 359.297 384.781C356.377 416.701 347.567 447.171 324.717 471.701C306.337 491.441 281.287 505.151 254.497 508.911C239.936 510.941 225.007 510.351 210.577 507.58C203.787 506.281 197.106 504.37 190.657 501.881C183.487 499.111 176.257 496.361 171.047 490.54C165.606 484.471 170.917 475.33 178.896 477.071C186.427 478.711 193.027 482.971 200.327 485.471C207.106 487.781 214.177 489.571 221.287 490.501C235.517 492.381 250.127 490.861 263.867 486.83C286.097 480.301 306.726 465.941 320.217 447.051C335.737 425.33 342.087 399.251 344.396 372.991C347.047 342.761 346.007 312.271 346.267 281.961C346.407 265.991 346.267 250.021 346.377 234.061C346.487 218.851 346.077 203.671 347.037 188.501C346.356 188.37 345.657 188.08 344.967 187.571C337.777 182.351 332.137 174.931 325.267 169.211C318.327 163.431 310.797 158.361 302.957 153.901C273.627 137.201 239.707 130.031 206.127 130.58C187.657 130.881 169.537 133.301 151.487 137.151L95.5273 152.101C84.0373 144.111 71.0373 138.491 58.3673 132.601C57.0473 137.811 53.2773 142.811 50.9473 147.431C47.8563 153.551 45.0073 159.801 42.4873 166.181C37.4073 179.021 33.3373 192.33 30.2673 205.801C27.4128 218.347 25.7401 231.066 24.1372 243.808L23.6573 247.631C22.7973 254.501 21.8473 261.461 21.4673 268.371C21.2573 272.101 21.3373 275.851 21.2773 279.58C21.2263 282.131 20.3873 287.511 22.5973 289.911C22.7773 290.101 22.9673 290.271 23.1863 290.421C35.2773 286.761 49.1773 290.771 54.7073 303.161C55.0573 303.941 54.1973 304.631 53.5273 304.071C42.2573 294.631 22.7173 300.001 16.5473 312.821C13.6673 318.79 13.2373 326.021 14.7173 332.421C16.4673 339.951 21.1463 346.221 24.0673 353.29C25.7073 357.261 26.4973 361.201 27.1273 365.421C27.5173 368.031 27.6973 371.721 29.5973 373.741C31.6173 375.891 35.5473 376.171 38.2573 376.781C42.0273 377.631 45.6673 378.661 49.1063 380.461C62.5373 387.481 69.4073 403.881 78.9473 414.981C84.4363 421.37 90.4073 427.37 96.7773 432.891C102.877 438.181 112.646 442.521 113.476 451.261C113.757 454.151 111.177 457.001 108.557 457.721C102.037 459.521 97.3673 455.051 92.6063 451.29C88.1973 447.811 83.9473 444.131 79.8963 440.241C71.8773 432.551 64.6573 424.061 58.1673 415.061C53.4763 408.551 49.5573 400.141 42.8273 395.431C35.9573 390.631 26.6863 391.87 19.9573 386.301C11.8273 379.571 13.4673 370.421 11.0973 361.29C8.80734 352.511 2.78733 345.241 0.957334 336.221C-2.30267 320.08 2.58734 300.311 18.3373 292.361C19.2873 291.881 20.2673 291.451 21.2573 291.08C20.9573 290.861 20.6773 290.611 20.4273 290.33C18.6463 288.401 17.9273 285.151 17.3563 282.691C15.5573 275.011 14.5573 267.031 13.4973 259.221C11.3173 243.341 12.4673 227.201 15.0173 211.431C17.4073 196.591 21.1573 182.061 26.2773 167.941C24.4973 166.711 23.0873 164.891 22.3073 162.58C20.6173 157.671 22.1373 152.661 23.1063 147.721C23.3963 146.211 23.7173 144.701 24.0473 143.191C23.2873 94.3702 64.2573 53.9012 104.476 31.5212ZM26.397 325.981C33.227 325.871 39.028 327.172 44.967 330.831C50.657 334.352 55.947 339.432 58.517 345.672C60.647 350.831 52.107 354.222 49.607 349.422C47.037 344.491 45.127 339.901 41.007 335.962C37.097 332.212 31.447 328.791 26.238 327.182C25.577 326.972 25.707 325.991 26.397 325.981Z" fill="black"/>
<path fill-rule="evenodd" clip-rule="evenodd" d="M293.459 369.579L294.351 369.528C300.443 369.145 306.358 368.161 311.799 371.933C319.032 376.945 319.064 388.346 311.799 393.349C306.083 397.288 299.871 395.994 293.459 395.81C288.177 395.658 282.895 395.553 277.613 395.491C267.056 395.369 256.505 395.34 245.947 395.399C236.421 395.451 226.888 395.328 217.365 395.074L213.284 394.958C203.517 394.661 193.29 395.034 183.668 392.933L183.255 392.854L183.267 392.831C181.6 392.212 180.718 389.274 182.711 388.253C192.258 383.363 203.172 381.313 213.424 378.986C223.805 376.633 234.364 374.933 244.892 373.602C255.406 372.275 265.996 371.337 276.558 370.593C282.188 370.193 287.823 369.865 293.459 369.579ZM261.51 219.281L262.206 218.766C269.853 213.187 280.84 207.814 289.65 212.05C290.148 212.289 290.569 212.601 290.934 212.96C293.097 213.006 295.274 213.205 297.457 213.568C314.703 216.441 330.64 228.949 338.432 246.17C347.289 265.744 343.082 286.371 327.41 299.684C319.71 306.224 310.661 310.933 300.919 311.995C297.735 312.341 294.359 312.41 291.302 311.343C292.75 314.748 293.851 318.307 294.418 322.061C296.357 334.912 291.745 345.509 280.913 351.058C271.394 355.937 258.22 357.807 248.807 351.649C240.849 346.446 243.455 329.222 253.926 330.765C260.994 331.806 267.366 334.414 274.351 331.083C280.044 328.37 276.59 319.214 274.874 314.398C272.004 306.348 267.78 298.77 264.355 290.955L263.722 289.486C261.568 284.39 258.893 279.005 256.845 273.513C255.718 279.964 253.696 286.294 251.314 292.154C245.661 306.06 234.717 314.569 221.679 318.553C208.273 322.648 192.541 323.598 178.72 323.095C164.663 322.584 149.864 318.514 139.58 307.255C120.739 286.629 126.151 250.542 145.976 233.302C158.801 222.149 176.871 214.507 193.466 216.486C201.778 214.419 211.075 215.593 219.392 217.676C230.644 220.494 241.388 226.525 248.744 236.131C249.289 234.619 249.919 233.172 250.639 231.79C250.315 231.625 250.113 231.094 250.434 230.776C251.02 230.194 251.622 229.635 252.225 229.076C254.621 225.363 257.716 222.129 261.51 219.281ZM125.186 315.95C124.508 314.889 125.832 313.512 126.782 314.187C134.565 319.733 142.712 324.774 151.635 327.713C160.352 330.583 169.414 330.287 178.17 332.74C181.461 333.662 180.939 338.39 178.17 339.548C168.534 343.584 157.661 340.197 148.506 335.914C139.217 331.569 131.041 325.108 125.186 315.95ZM177.416 227.358L177.649 227.048L177.083 227.256C166.177 231.314 157.196 238.004 149.896 247.77C137.455 264.412 137.307 290.874 155.909 302.121C165.939 308.183 177.778 308.469 188.914 307.827L191.166 307.694C200.942 307.098 210.918 306.215 220.351 303.293C230.64 300.106 237.789 293.234 241.725 282.16L242.052 281.226C245.979 269.828 248.024 257.153 240.733 246.836C228.384 229.362 199.847 225.871 182.21 234.224C177.985 236.224 174.595 231.343 177.416 227.358ZM290.606 222.669C290.312 222.985 289.999 223.273 289.65 223.506C286.11 225.853 282.128 225.877 278.203 226.953C274.588 227.944 271.049 229.154 267.722 231.025C262.494 233.96 257.104 237.471 252.162 241.3C253.221 243.17 254.169 245.143 254.981 247.233C257.225 253.008 257.981 259.09 257.745 265.196C261.189 268.489 264.067 272.583 267.115 276.283L269.803 279.551C272.938 283.373 276.052 287.237 278.969 291.248C280.703 293.632 282.463 296.073 284.154 298.586C284.376 297.837 284.688 297.103 285.126 296.406C286.774 293.78 289.317 292.455 292.224 293.214C294.768 293.881 296.469 295.153 299.127 295.172C302.382 295.196 305.519 294.421 308.6 293.31C314.656 291.128 320.591 287.205 325.019 282.124C335.015 270.654 329.741 254.49 321.944 243.563C314.046 232.494 302.703 225.307 290.606 222.669ZM201.583 250.221C204.792 249.197 209.566 250.811 210.977 254.446L211.99 257.091C211.959 257.012 211.934 256.951 211.905 256.88C212.263 257.817 212.606 258.722 212.88 259.683L213.829 260.496C214.639 261.489 215.389 262.538 216.077 263.644C217.704 266.716 218.176 270.65 217.343 274.093C215.968 279.783 211.24 283.435 205.996 283.47C190.644 283.57 186.882 254.912 201.583 250.221ZM294.195 245.071C301.288 244.721 306.012 251.644 306.578 258.756C306.901 262.804 306.16 267.23 305.109 271.101C303.543 276.876 298.562 280.495 293.192 279.698C288.918 279.064 285.143 275.472 284.077 270.857C282.673 267.05 281.88 262.862 281.812 258.756C281.682 251.088 287.589 245.398 294.195 245.071ZM200.59 181.078C207.784 179.796 214.656 183.66 215.703 192.204C216.756 200.822 211.013 206.518 203.809 207.364C190.229 208.959 176.362 209.338 162.717 209.996C157.025 210.27 151.327 210.386 145.63 210.442L142.782 210.465C137.483 210.5 130.574 211.656 125.786 208.773C125.474 208.587 125.486 208.163 125.684 207.895C129.048 203.317 136.005 201.366 140.978 199.349L141.399 199.176C147.694 196.552 154.059 194.095 160.509 191.969L163.786 190.894C175.836 186.972 188.235 183.283 200.59 181.078ZM246.255 176.886C250.701 175.039 255.089 176.19 258.112 179.314C268.224 182.425 278.63 184.809 288.808 187.533L291.578 188.285C304.336 191.803 318.356 194.515 330.221 200.964C331.48 201.649 330.688 203.426 329.581 203.575C316.363 205.349 302.124 202.529 288.983 200.832C275.521 199.092 261.99 196.223 248.487 195.099C238.795 194.292 237.387 180.572 246.255 176.886Z" fill="black"/>
<path fill-rule="evenodd" clip-rule="evenodd" d="M273.044 473.834C243.45 478.183 222.03 477.284 208.784 471.138C188.974 461.949 169.704 453.057 151.734 440.884C133.324 428.413 117.704 413.603 106.554 394.646C96.1837 377.008 87.5637 358.291 78.8837 339.719C78.3764 338.634 73.3937 327.844 71.6337 324.226C68.9237 318.616 61.0009 320.377 61.0009 329.086C61.0009 337.794 60.6137 403.746 75.8337 429.689C89.5637 453.121 112.834 469.493 135.954 483.783C161.534 499.584 195.514 516.664 226.034 521.177C253.654 525.257 285.174 513.797 305.174 494.907C326.084 475.151 332.004 448.312 342.794 422.609C345.204 416.865 336.66 413.4 334.154 419.05C331.007 426.143 310.637 444.404 273.044 473.834Z" fill="black"/>
</svg>
