<svg width="457" height="519" viewBox="0 0 457 519" fill="none" xmlns="http://www.w3.org/2000/svg">
<path fill-rule="evenodd" clip-rule="evenodd" d="M347.415 173.222C343.554 149.862 356.226 145.016 347.415 122.811C327.833 81.6673 274.468 83.4401 235.308 80.2766C191.63 78.6026 147.422 84.3689 107.156 101.875C97.5377 106.056 88.2867 110.973 79.4187 116.56C71.7507 121.391 72.8047 130.577 77.6397 135.588C42.7747 184.96 62.7157 251.232 34.8967 303.202C29.7577 312.491 22.9607 320.821 18.4937 330.487C11.7037 345.18 11.2687 366.233 26.6667 375.99C48.3537 387.631 60.4557 364.584 71.1117 397.993C124.33 514.483 231.329 521.044 332.905 460.31C341.693 455.422 350.662 449.897 357.298 442.217C372.361 425.266 370.587 401.428 370.92 380.259C371.106 367.854 371.137 355.447 371.016 343.039C370.542 292.781 353.885 223.065 347.415 173.222Z" fill="white"/>
<path fill-rule="evenodd" clip-rule="evenodd" d="M131.066 33.5074C192.396 5.68736 261.957 -4.86265 328.857 2.05735C361.878 5.46756 394.463 12.7839 425.474 24.6686L428.193 25.719C435.848 28.6654 444.1 31.5899 449.917 37.5874C456.688 44.5574 458.587 55.0974 453.747 63.7074C449.987 70.3974 443.227 75.1964 436.017 77.7574C438.557 79.8374 440.967 82.1574 443.227 84.7474C447.037 89.0874 447.327 95.2764 443.227 99.5574C435.327 107.807 425.077 113.776 414.037 116.637C415.277 122.627 414.607 129.257 411.947 135.227C404.314 152.364 382.813 154.407 366.267 153.389L365.767 153.357L364.847 163.887C364.357 169.497 360.997 173.847 355.297 174.707C355.097 174.737 354.896 174.757 354.697 174.776C363.717 207.397 369.167 241.026 374.197 274.457C376.825 291.908 379.178 309.4 381.43 326.903L382.177 332.737C384.577 351.607 387.577 370.667 388.617 389.677C389.547 406.927 386.257 423.397 375.627 437.317C366.087 449.797 353.077 459.147 339.087 466.087C307.477 481.776 274.207 493.457 239.247 498.877L236.916 499.236C223.421 501.296 209.517 503.032 196.167 499.297C184.438 496.017 172.137 487.557 174.787 473.967C175.677 469.377 182.097 469.177 184.297 472.727L184.805 473.541C187.443 477.727 190.334 481.617 194.938 483.776C200.327 486.317 206.577 487.026 212.467 487.097C228.917 487.287 246.047 483.187 261.887 479.077C291.467 471.398 321.847 458.877 346.077 439.907C356.387 431.847 364.667 421.767 367.587 408.797C371.197 392.807 367.877 375.327 366.237 359.257C362.862 326.098 358.845 293 354.607 259.939L353.757 253.327C350.188 225.687 346.438 198.037 344.657 170.237C343.917 169.227 343.417 168.077 343.217 166.817L342.938 165.007C342.697 163.457 342.657 162.037 342.827 160.727C342.837 155.707 342.977 150.717 343.267 145.696C343.316 144.797 343.357 143.897 343.387 143.007C338.167 144.157 332.907 145.087 327.627 145.877C290.507 151.467 252.807 152.867 215.387 150.087C196.717 148.696 178.188 146.307 159.717 143.317C150.316 141.797 140.947 140.117 131.607 138.237C124.857 136.887 118.247 135.057 111.607 133.337C104.757 143.307 101.057 155.577 101.777 167.627C102.587 181.377 111.747 193.847 109.177 207.897C106.765 221.046 95.4996 225.123 84.3776 228.38L79.6473 229.747C76.0082 230.809 73.3657 231.834 72.7069 236.207C71.5769 243.717 72.9669 252.167 73.2569 259.717C73.6069 268.647 74.0659 277.577 74.2769 286.507C74.3869 291.127 74.5659 295.767 74.5569 300.387C74.5469 303.667 74.0569 305.907 72.7869 308.026C73.7669 309.257 74.6459 310.587 75.4269 311.997C75.6769 312.457 75.0569 312.946 74.6879 312.567C73.6969 311.537 72.6459 310.607 71.5369 309.776C70.9769 310.467 70.3269 311.167 69.5659 311.917L69.5069 311.837C67.1269 314.207 63.3469 314.437 60.3959 311.917L59.6216 311.246C57.4617 309.353 55.9776 307.776 55.3769 304.647C55.3469 304.487 55.3159 304.327 55.2969 304.167C49.8069 303.977 44.2269 305.276 39.2869 308.007C31.4569 312.337 25.9469 318.507 22.6879 326.127C23.9869 327.647 25.507 329.007 27.277 330.147C27.527 330.317 27.3069 330.687 27.0369 330.557C25.2269 329.707 23.6069 328.657 22.1569 327.427C20.9869 330.427 20.1669 333.647 19.6669 337.057C17.9069 349.097 21.0469 363.807 31.9269 370.667C36.6369 373.637 42.017 375.247 47.597 375.267C50.316 375.276 52.6669 374.817 55.3069 374.167C57.0969 373.727 58.8769 373.087 60.7469 373.087C62.3469 373.087 63.8269 373.487 65.1969 374.287L64.817 374.321C63.8936 374.407 64.0712 374.446 65.3569 374.446C69.3569 374.617 71.6459 378.677 69.8069 382.207L69.5657 382.753C69.5148 382.863 69.4718 382.954 69.4379 383.026L69.2926 383.963C69.2781 384.052 69.2629 384.143 69.2469 384.237L69.1914 384.427C69.1814 384.457 69.1703 384.487 69.1569 384.517L75.156 393.666C82.5112 404.857 90.0305 416.005 98.5869 426.227C104.587 433.397 110.947 440.427 117.667 446.937C123.707 452.787 130.947 455.607 137.787 460.207C141.438 462.647 142.507 467.757 139.188 471.047C129.447 480.717 115.657 473.037 107.667 465.177C100.107 457.727 93.5769 448.767 87.9469 439.797C77.9569 423.847 70.0069 406.887 66.5269 388.477C65.0769 389.807 63.2269 390.637 61.3569 391.287C57.6069 392.587 53.4769 393.127 49.5169 393.267C41.9269 393.517 34.3269 391.677 27.4969 388.417C-0.293056 375.167 -4.37305 335.487 12.6169 312.087C10.326 305.444 9.04651 298.235 7.65641 292.088L7.02398 289.34C-0.000675678 258.647 -4.71885 226.333 7.73695 196.257C9.33695 192.377 11.1369 188.597 13.2669 184.977C14.9769 182.067 17.9169 178.967 18.7269 175.657C20.5269 168.387 9.41695 160.747 6.17695 154.977C2.36695 148.207 1.82695 140.217 7.01695 134.026C7.67695 133.247 8.39595 132.526 9.17695 131.897C4.25695 122.977 4.02695 111.757 10.5069 102.957C14.7669 97.1574 21.2669 93.0974 28.3669 91.8674C32.7069 91.1174 37.9269 91.3974 42.6969 92.7374C68.8159 68.4874 98.6169 48.2274 131.066 33.5074ZM30.7664 336.937C37.7374 330.787 45.4375 327.567 54.9375 328.377C64.4875 329.196 75.9874 333.147 81.5964 341.337C86.0274 347.807 76.9974 357.297 70.4974 352.437C64.5774 348.007 60.6264 343.007 53.2774 340.627C46.6764 338.497 38.5064 337.127 31.5964 338.347C30.8364 338.477 30.0774 337.537 30.7664 336.937Z" fill="black"/>
<path fill-rule="evenodd" clip-rule="evenodd" d="M341.528 508.863C343.547 510.778 347.93 514.993 352.129 516.846H356.056C356.899 516.688 357.727 516.447 358.549 516.175C359.618 513.552 359.824 510.496 359.299 507.418C356.331 490.372 353.68 473.111 355.093 455.762C356.424 439.405 361.132 423.128 359.861 406.615C358.088 367.648 320.461 340.665 287.52 348.554C283.267 348.931 279.108 350.128 275.404 352.256C224.018 330.7 160.507 367.122 172.469 426.704C174.762 442.814 178.46 458.093 177.324 474.512C176.78 482.37 175.529 490.142 174.061 497.874C172.959 503.676 170.042 510.83 172.722 516.557C183.488 523.356 194.712 509.226 201.903 497.099C205.667 486.907 208.794 476.472 212.32 466.201C218.682 447.74 220.156 437.544 241.151 432.51C250.219 429.417 258.313 424.857 265.254 418.845C270.589 416.29 273.63 411.172 275.448 405.997C276.354 408.545 275.101 411.638 274.874 414.283C290.101 434.465 308.944 430.644 315.723 444.678C320.91 457.889 323.825 471.973 327.794 485.643C328.337 487.514 338.384 505.881 341.528 508.863Z" fill="black"/>
<path fill-rule="evenodd" clip-rule="evenodd" d="M240.853 413.089L242.986 412.522C250.625 410.441 258.553 407.137 265.848 411.665C268.482 413.3 268.879 416.777 266.797 419.027C260.888 425.411 252.166 424.173 244.175 424.237L243.782 424.241C235.742 424.352 227.762 423.951 219.805 422.798C218.756 422.646 218.549 420.903 219.502 420.485C226.43 417.448 233.556 415.053 240.853 413.089ZM253.814 296.367C261.365 300.957 272.871 311.66 264.748 323.04C255.186 333.073 241.418 321.569 234.634 316.366C228.343 312.334 221.275 322.705 227.112 327.413C276.135 363.708 296.03 297.567 257.633 290.97C253.406 290.243 251.836 294.947 253.814 296.367ZM306.316 236.005C318.498 235.632 318.509 254.985 306.316 254.933C302.676 254.917 299.036 254.916 295.396 254.908C297.511 262.619 296.303 271.814 292.483 278.291C289.963 282.566 283.932 283.343 280.409 279.847C274.327 273.811 273.128 264.984 275.277 256.98L274.835 255.933C274.691 255.59 274.588 255.243 274.504 254.894C262.739 254.904 250.973 254.933 239.208 254.952L221.56 254.97C210.102 254.974 198.639 255.067 187.18 254.96C187.321 255.173 187.462 255.385 187.577 255.628C188.292 257.133 188.595 259.033 188.82 260.66C189.204 263.452 189.158 266.459 188.718 269.24C188.397 271.272 187.807 273.692 186.676 275.607L186.669 275.647C186.136 277.919 185.463 280.094 183.706 281.733C183.178 282.224 182.663 282.574 182.119 282.822C181.092 283.897 179.77 284.608 178.033 284.631C177.111 284.641 176.1 284.372 175.12 283.99C173.613 284.116 172.057 283.434 170.724 282.83C169.655 282.345 168.674 281.701 167.883 280.861C167.512 280.773 167.138 280.628 166.764 280.397C164.472 278.987 163.596 276.161 163.477 273.609C163.469 273.454 163.475 273.291 163.47 273.134C163.385 272.788 163.309 272.44 163.251 272.09C162.489 267.555 163.415 262.448 164.385 258.041C164.629 256.938 164.83 255.657 165.129 254.418C162.842 254.329 160.557 254.241 158.27 254.147C152.542 253.913 145.551 254.68 140.252 252.259C139.866 252.084 139.97 251.57 140.252 251.369C145.144 247.872 152.745 247.306 158.637 246.155L159.138 246.054C166.164 244.613 173.186 243.401 180.283 242.366C193.944 240.374 207.78 239.302 221.56 238.53C249.773 236.95 278.074 236.868 306.316 236.005Z" fill="black"/>
</svg>
