<svg width="475" height="502" viewBox="0 0 475 502" fill="none" xmlns="http://www.w3.org/2000/svg">
<path fill-rule="evenodd" clip-rule="evenodd" d="M473.939 458.959C462.529 405.399 455.21 351.149 448.66 296.829C445.49 270.519 442.96 244.14 440.029 217.81C437.29 193.279 434.099 168.669 427.699 144.789C421.75 122.599 413.049 100.629 400.229 81.4699C388.21 63.5089 373.099 48.1189 355.75 35.2689C321.469 9.87892 277.629 -3.63108 234.99 0.848917C228.549 1.52892 222.169 2.61892 215.859 4.07892C217.869 3.48892 219.9 2.93792 221.949 2.45892C222.609 2.29992 222.316 1.41092 221.669 1.46992C48.1946 17.2309 7.38862 318.919 3.67862 379.749C3.38862 384.48 3.15962 389.199 2.98962 393.929C1.68862 404.48 0.718625 415.06 0.258625 425.669C-0.260375 437.909 -0.010375 450.23 1.11862 462.429C2.27862 474.938 3.59862 487.759 8.81962 499.259C12.0186 506.339 161.219 496.64 162.759 488.279C165.879 471.399 167.479 453.98 166.5 436.81C166.04 428.579 165.189 420.409 163.429 412.349C162.949 410.149 162.439 406.019 161.15 402.749C174.759 376.89 189.729 351.769 205.139 326.939C237.21 275.239 271.309 224.499 297.519 169.438C310.66 141.849 323.609 112.55 329.809 82.3189L330.809 82.5189C330.689 82.8789 330.769 83.3289 331.129 83.5789C359.619 103.269 378.66 133.109 391 165.06C405.369 202.259 412.339 242.429 411.339 282.289C409.75 345.629 385.74 423.909 317.809 443.929C302.309 448.499 285.57 449.789 269.689 446.449C262.199 444.869 254.859 442.438 248.099 438.839C240.599 434.849 234.439 429.199 227.41 424.55C220.979 420.3 213.389 428.589 217.089 434.879C225.259 448.779 242.839 457.279 257.939 461.459C274.049 465.929 291.04 466.14 307.449 463.3C308.699 463.089 309.939 462.849 311.169 462.589C311.449 466.709 313.219 470.81 316.099 474.14C317.389 475.64 318.979 476.938 320.759 478.029C320.99 482.05 323.58 486.089 327.79 486.97C350.279 491.649 443.679 479.379 466.139 472.688C472.169 470.89 475.219 464.98 473.939 458.959Z" fill="black"/>
<path fill-rule="evenodd" clip-rule="evenodd" d="M415.277 265.815C413.593 187.234 394.014 100.24 326.899 51.6798C322.624 48.5828 316.208 50.0828 312.665 53.6198C309.756 54.1878 307.084 55.9498 305.307 59.1898C265.62 131.625 223.841 202.915 179.989 272.907C151.833 318.163 117.631 363.476 113.119 418.331C112.338 419.368 105.089 427.552 109.313 426.956C111.188 425.975 113.097 425.169 115.105 424.573C120.467 432.39 132.918 431.161 135.878 422.338C146.14 422.633 156.296 425.255 166.073 428.297C190.054 435.803 214.427 443.223 238.901 448.96C319.527 470.358 406.161 443.133 412.603 349.135C421.257 336.942 416.575 282.599 415.277 265.815Z" fill="white"/>
<path fill-rule="evenodd" clip-rule="evenodd" d="M308.814 270.367C316.366 274.957 327.872 285.66 319.748 297.039C310.186 307.073 296.418 295.569 289.634 290.366C283.343 286.334 276.275 296.704 282.112 301.413C331.136 337.708 351.031 271.567 312.634 264.97C308.406 264.243 306.836 268.947 308.814 270.367ZM240.588 182.83L242.465 182.502L243.427 182.339C249.052 181.409 255.718 180.787 259.603 185.201C261.782 187.677 262.532 192.279 259.603 194.649C254.451 198.819 248.755 197.203 242.581 197.556C237.493 197.848 232.603 198.69 227.702 200.091C216.95 203.164 208.189 208.774 199.006 214.934C197.801 215.742 196.571 214.201 197.146 213.074C202.447 202.691 212.72 194.162 223.01 188.963C228.502 186.188 234.512 183.886 240.588 182.83ZM290.325 326.271C306.757 327.464 342.367 319.62 357.153 331.386C412.88 400.973 191.95 418.864 215.81 341.877C231.007 316.984 265.962 326.989 290.325 326.271ZM287.508 368.28C283.444 367.949 278.512 371.168 277.319 373.655C276.126 376.143 276.587 381.4 276.623 382.311C283.728 383.027 290.895 383.136 298.02 382.669C296.169 376.546 296.109 369.207 287.508 368.28ZM320.314 378.552C319.172 370.952 313.736 369.152 309.336 370.293C304.835 371.459 302.193 376.64 302.479 381.253C302.498 381.571 302.314 381.841 302.193 382.097C308.311 381.374 314.372 380.184 320.314 378.552ZM269.92 369.656C267.358 365.758 261.236 363.877 257.315 364.564C250.912 365.912 250.154 374.048 250.154 375.706C256.057 377.956 262.324 379.45 268.316 380.64C269.519 380.878 270.725 381.091 271.933 381.292L272.012 380.304C272.157 378.187 272.266 373.224 269.92 369.656ZM342.349 369.013C335.784 358.856 321.672 366.128 322.838 377.224C324.092 376.829 325.34 376.416 326.582 375.983C331.74 374.185 337.398 372.048 342.349 369.013ZM290.664 334.017C281.832 333.222 274.587 333.49 268.827 334.558L268.652 336.482C268.015 343.153 267.193 349.712 270.696 352.396C273.541 354.576 282.984 354.368 289.316 352.79C290.88 352.396 292.913 338.56 290.664 334.017ZM304.321 333.222C302.905 339.796 302.24 347.779 305.082 350.15C308.083 352.654 317.744 352.315 320.271 350.647C322.482 349.187 322.426 342.473 321.605 334.936C316.712 333.783 308.192 333.222 304.321 333.222ZM264.921 334.624L262.029 334.65L260.392 334.671C256.253 334.745 251.787 334.983 247.566 335.905C239.18 354.028 269.805 357.156 265.075 335.294L264.921 334.624ZM325.501 335.061L325.448 336.087C325.196 341.178 325.363 347.882 328.183 349.692C332.333 352.355 340.126 351.841 344.347 339.522C342.95 335.847 328.134 335.33 325.501 335.061ZM244.224 227C245.997 227 247.693 227.602 249.237 228.715C250.758 229.812 252.134 231.411 253.28 233.407C255.449 237.182 256.805 242.396 256.805 248.16C256.805 253.924 255.449 259.138 253.28 262.913C252.134 264.909 250.758 266.508 249.237 267.604C247.693 268.718 245.997 269.32 244.224 269.32C242.451 269.32 240.755 268.718 239.21 267.604C237.69 266.508 236.314 264.909 235.168 262.913C232.999 259.138 231.643 253.924 231.643 248.16C231.643 242.396 232.999 237.182 235.168 233.407C236.314 231.411 237.69 229.812 239.21 228.715C240.755 227.602 242.451 227 244.224 227ZM356.464 227C358.237 227 359.933 227.602 361.478 228.715C362.998 229.812 364.374 231.411 365.52 233.407C367.689 237.182 369.045 242.396 369.045 248.16C369.045 253.924 367.689 259.138 365.52 262.913C364.374 264.909 362.998 266.508 361.478 267.604C359.933 268.718 358.237 269.32 356.464 269.32C354.691 269.32 352.995 268.718 351.45 267.604C349.93 266.508 348.554 264.909 347.408 262.913C345.239 259.138 343.883 253.924 343.883 248.16C343.883 242.396 345.239 237.182 347.408 233.407C348.554 231.411 349.93 229.812 351.45 228.715C352.995 227.602 354.691 227 356.464 227ZM341.193 178.179L342.63 178.473L343.583 178.675C359.083 182.009 378.733 188.581 385.988 203.631C386.271 205.802 385.972 206.268 385.73 206.572L385.649 206.673C385.45 206.933 385.29 207.291 384.349 207.587C384.088 207.524 383.824 207.458 383.557 207.389C380.163 206.499 377.477 205.274 374.877 204.002L372.058 202.613C368.788 201.01 365.488 199.464 361.992 198.324C354.53 195.89 346.854 194.175 339.06 193.259C337.37 193.061 335.744 192.491 334.46 191.514C333.242 190.586 332.311 189.302 331.887 187.595C331.337 185.386 331.495 183.714 332.68 181.721C333.572 180.224 334.847 179.187 336.311 178.591C337.804 177.984 339.503 177.841 341.193 178.179Z" fill="black"/>
</svg>
