<svg width="400" height="518" viewBox="0 0 400 518" fill="none" xmlns="http://www.w3.org/2000/svg">
<path fill-rule="evenodd" clip-rule="evenodd" d="M344.417 166.809C337.339 141.313 338.351 138.555 327.802 114.202C292.822 43.4524 59.0633 67.1414 35.2063 137.765C22.2637 176.079 25.3043 230.038 21.9353 263.261C20.9043 280.876 19.8916 298.492 18.8425 316.105C18.4802 322.188 18.1135 328.27 17.7403 334.352C17.0133 346.192 16.3063 358.032 15.6463 369.876C11.2513 406.362 29.5873 410.073 61.0383 408.993C69.3533 429.054 82.8203 445.8 99.4553 459.425C95.4403 470.347 110 476.001 117.854 480.368C160.587 504.228 213.078 518.783 260.411 505.366C274.319 501.424 331.753 487.771 349.412 445.505C358.084 424.749 375.713 317.264 352.465 220.576L344.417 166.809Z" fill="white"/>
<path fill-rule="evenodd" clip-rule="evenodd" d="M195.001 0.505999C201.61 -0.663001 209.001 -0.213 212.79 6.277C213.61 7.676 214.13 9.087 214.38 10.477C232.44 6.417 251.19 5.977 269.64 8.637C275.14 9.426 277.07 16.756 274.65 20.947C274.4 21.377 274.15 21.796 273.88 22.207C279.66 22.676 285.43 23.676 291.15 25.217C295.22 26.317 299.02 31.587 297.211 35.907C297.05 36.287 296.88 36.667 296.711 37.046C305.7 38.557 314.29 42.087 321.8 47.787C322.7 48.457 323.53 49.327 324.22 50.317C341.01 48.426 358.3 51.897 373.29 59.997C377.49 62.266 379.52 68.807 376.67 72.887C375.78 74.157 374.85 75.367 373.85 76.537C380.37 78.947 386.14 82.846 390.03 89.197C394.26 96.087 395.56 104.957 393.29 112.537C398.03 117.367 400.51 124.766 398.82 132.186C397.28 138.957 393.13 143.256 387.81 145.837C388.89 149.137 388.02 152.887 385.57 155.436C381.81 159.346 377.31 162.346 372.41 164.317C372.4 165.587 372.08 166.897 371.44 168.117C367.02 176.596 357.49 182.227 347.8 183.077C351.06 196.766 353.74 210.627 356.34 224.407C360.961 248.917 364.54 273.667 366.72 298.516L366.985 301.589C370.536 343.637 371.362 387.688 362.81 429.167C357.36 455.577 340.84 477.837 318.8 492.917C296.39 508.256 269.01 515.887 242.07 517.096C228.33 517.707 214.461 516.546 201.001 513.727C194.61 512.387 188.44 510.487 182.37 508.067C175.84 505.457 170.461 501.607 164.94 497.277C162.07 495.027 163.711 489.717 167.11 489.046C169.54 488.557 171.94 488.027 174.36 487.587C176.58 487.176 179.001 489.397 178.54 491.447L183.223 492.653C184.783 493.055 186.343 493.461 187.899 493.879L190.23 494.516C196.86 496.367 203.64 497.926 210.44 499.037C224.28 501.287 238.68 501.337 252.59 499.587C275.98 496.657 299.87 488.317 318.06 472.947C326.98 465.407 334.41 456.477 339.8 446.107C346.65 432.936 348.72 418.266 350.44 403.697C355.41 361.567 353.88 319.377 350.02 277.237C348.1 256.277 345.48 235.357 342.7 214.487C341.27 203.787 339.73 193.067 338.461 182.327C335.63 181.567 332.93 180.307 330.51 178.477C328.87 177.237 327.91 175.796 327.49 174.327C325.047 173.866 322.705 172.525 321.017 170.258L320.8 169.957C316.37 163.546 308.711 159.877 301.62 157.207C297.32 155.587 292.94 154.176 288.58 152.737C284.04 151.227 279.24 148.997 274.47 148.417C269.06 147.777 263.61 149.407 258.15 148.827C253.19 148.287 248.82 146.506 245.251 142.947C244.001 141.707 242.92 140.277 242.06 138.737C225.41 142.296 207.92 137.807 190.62 138.887C179.24 139.607 169.2 146.647 157.7 146.457C154.56 146.407 151.52 145.307 149.31 143.377C138.461 145.447 127.43 149.426 117.23 152.846C107.15 156.227 97.4503 160.777 87.4903 164.467C87.4803 164.477 87.4803 164.477 87.4803 164.487C86.1803 168.697 82.3003 170.516 78.1703 169.777C64.6603 167.367 53.2804 158.846 40.1304 155.727C36.5104 168.917 32.6204 181.936 29.9614 195.387C27.2704 208.957 25.3804 222.707 24.1304 236.487C22.8704 250.317 22.2704 264.287 22.2404 278.167C22.2304 285.247 22.4103 292.346 22.6503 299.426C22.8448 305.358 23.975 312.857 21.8321 318.562L21.6403 319.046H21.6304C21.3704 319.877 20.2003 320.377 19.5403 319.607C15.5103 314.926 14.5504 307.477 13.4304 301.596C12.0704 294.457 11.2004 287.247 10.5014 280.016C9.10035 265.506 8.79035 251.057 9.53035 236.487C10.9803 207.807 15.5803 177.516 25.4003 150.407C22.3803 150.686 21.0303 146.237 20.8303 143.727C20.4477 138.683 21.2379 133.33 22.0943 128.271L22.9896 123.033C23.8384 118.09 24.737 113.275 26.4204 108.467C30.4614 96.926 36.2703 86.087 43.5103 76.237C58.2803 56.147 78.7513 40.936 102.06 32.167C103.52 31.617 104.9 31.627 106.12 32.046C127.33 20.617 150.13 11.817 173.29 5.557C180.45 3.627 187.7 1.807 195.001 0.505999ZM18.8606 322.936C28.4906 316.897 48.3606 315.317 53.7306 328.186C53.9506 328.706 53.3306 329.167 52.8706 329.047L51.5566 328.715C46.5089 327.464 42.147 326.745 36.9706 328.818C32.4206 330.638 28.0007 333.486 24.9907 337.406C17.8754 346.677 17.1039 359.269 17.7674 370.514L17.8006 371.057C18.4206 380.926 20.9507 392.947 30.6007 397.827C35.4907 400.297 40.7806 400.117 46.0906 400.077C52.1406 400.037 58.3206 400.696 64.1006 402.557C67.3306 403.596 68.8507 407.877 66.1707 410.388C65.2807 411.218 64.3506 411.997 63.3706 412.697C66.3006 415.818 69.1806 418.977 71.9706 422.307C76.7006 427.956 81.7307 433.416 86.9807 438.586C92.0607 443.576 97.4406 448.407 103.241 452.547C109.341 456.888 116.641 459.937 121.921 465.257C125.361 468.718 124.771 473.547 121.921 477.047C114.845 485.745 102.803 476.601 96.038 471.457L95.2206 470.836C88.1906 465.516 81.5106 459.777 75.8206 453.017C70.0206 446.117 65.0007 438.777 61.2907 430.547C59.1107 425.707 57.7206 421.138 56.9706 416.358C44.8106 421.638 29.4806 419.956 18.5807 412.526C4.11065 402.666 0.0506481 384.568 0 368.047L0.00147247 367.067C0.108546 351.009 4.32725 332.05 18.8606 322.936ZM46.2944 346.212L46.7404 346.217C52.0957 346.333 56.8717 348.262 61.4206 350.919L61.8903 351.197C66.3103 353.827 72.6504 355.936 74.9904 360.857C76.3904 363.827 76.2904 367.227 73.8504 369.686C69.4304 374.147 62.7604 373.407 57.9804 369.926C54.4104 367.317 52.0604 363.407 48.5604 360.766C41.9804 355.787 31.6003 356.067 24.7513 360.377C24.3303 360.647 23.9213 360.137 24.1103 359.737C28.3166 351.129 36.6529 346.178 46.2944 346.212Z" fill="black"/>
<path fill-rule="evenodd" clip-rule="evenodd" d="M238.882 381.734C248.204 378.394 258.098 379.65 267.502 383.119L268.345 383.435C276.984 386.728 287.54 392.448 291.074 401.381C291.774 403.152 292.102 404.964 292.146 406.767C293.301 406.881 294.446 407.031 295.581 407.23C297.917 407.641 297.807 411.353 295.581 411.841C294.171 412.15 292.735 412.376 291.286 412.545C289.946 416.711 287.173 420.492 283.671 423.144C275.473 429.351 264.175 430.52 254.265 431.469C243.306 432.518 232.293 432.262 221.375 430.935L217.532 430.443C208.591 429.282 198.622 427.788 191.021 423.005C183.866 418.504 178.972 409.813 182.001 401.372C185.102 392.728 195.732 389.06 203.622 386.285C214.959 382.297 227.023 380.733 238.882 381.734ZM223.065 410.702C223.176 413.228 223.271 415.756 223.371 418.284C223.401 419.059 223.178 419.759 222.798 420.365C228.22 421.002 233.69 421.302 239.145 421.298C238.147 418.283 238.094 414.821 238.037 411.602C233.042 411.358 228.053 411.068 223.065 410.702ZM243.141 411.838L243.576 413.471C244.25 416.03 244.862 418.662 244.772 421.188C247.315 421.092 249.85 420.94 252.371 420.721L255.587 420.447C256.318 420.385 257.058 420.319 257.804 420.249C257.969 417.631 258.277 414.978 258.551 412.36C253.413 412.221 248.276 412.055 243.141 411.838ZM263.522 412.474C263.756 414.787 263.974 417.152 264.066 419.495C268.194 418.852 272.243 417.851 275.702 416.082C277.442 415.192 278.837 414.116 279.877 412.924C276.383 412.842 272.899 412.665 269.519 412.61C268.852 412.599 268.186 412.585 267.52 412.57L263.522 412.474ZM191.817 407.153C192.087 411.98 199.718 415.425 203.647 416.559C207.396 417.642 211.212 418.52 215.067 419.218C214.994 418.895 214.958 418.577 214.984 418.284C215.229 415.56 215.47 412.837 215.727 410.117L213.658 409.953C206.387 409.393 198.825 408.944 191.817 407.153ZM239.438 388.761C240.049 394.809 240.897 400.823 242.027 406.795L244.096 406.839C249.063 406.918 254.031 406.95 258.999 406.956C259.012 406.712 259.025 406.469 259.034 406.228C259.22 401.176 259.149 396.123 258.964 391.073C252.653 389.68 246.047 389.226 239.438 388.761ZM261.556 391.707C262.109 396.778 262.57 401.858 262.99 406.944L267.343 406.937C268.068 406.935 268.793 406.931 269.519 406.925C273.596 406.887 277.785 406.62 281.969 406.508C281.657 404.324 280.371 402.103 278.001 400.082C272.985 395.805 267.421 393.281 261.556 391.707ZM235.558 387.6C230.762 388.114 226.002 388.956 221.311 390.135C222.536 393.686 222.302 397.75 222.561 401.459C222.676 403.092 222.77 404.726 222.856 406.359C227.874 406.482 232.892 406.6 237.91 406.707C237.75 400.694 237.853 394.682 238.192 388.673L237.645 388.634C236.833 388.576 236.108 388.171 235.558 387.6ZM218.132 390.988C215.939 391.615 213.763 392.311 211.608 393.091L209.257 393.94C203.591 396.005 196.093 398.995 192.934 403.612C192.403 404.388 192.084 405.139 191.927 405.864C199.87 405.131 208.106 405.87 216.121 406.172C216.23 405.124 216.343 404.076 216.462 403.029L216.646 401.459C217.056 398.068 217.052 394.301 218.132 390.988ZM257.814 318.367C265.366 322.957 276.872 333.661 268.748 345.04C259.186 355.073 245.418 343.569 238.634 338.366C232.343 334.334 225.275 344.705 231.112 349.413C280.136 385.708 300.031 319.568 261.634 312.971C257.406 312.244 255.836 316.947 257.814 318.367ZM165.257 262.713C175.988 244.063 202.537 243.848 217.726 258.09C232.228 271.689 234.022 294.89 222.439 310.794C210.094 327.744 186.113 332.433 166.666 326.392C148.436 320.729 138.637 300.95 144.886 282.828C148.266 273.026 156.046 266.249 165.257 262.713ZM155.258 231.475C164.327 223.447 180.806 215.694 193.035 219.645C200.066 221.916 203.131 233.245 195.282 236.836C186.193 240.994 175.714 239.302 166.463 243.612C162.578 245.423 158.924 247.686 156.219 251.005C154.088 253.621 151.92 257.063 148.838 258.571C148.028 258.968 146.931 258.978 146.282 258.242C139.526 250.6 149.359 236.696 155.258 231.475ZM284.802 219.247C290.407 217.674 296.625 217.706 302.319 218.694C308.011 219.682 313.79 222.041 318.437 225.482L318.976 225.885C324.049 229.708 330.103 235.27 329.779 242.042C329.508 247.697 323.559 251.522 318.423 248.558C314.236 246.141 312.266 241.299 308.721 238.075C305.796 235.414 302.36 233.316 298.694 231.846C294.622 230.213 290.543 229.448 286.173 229.375C282.808 229.319 279.423 230.423 276.121 230.776C276.393 231.334 273.783 231.074 272.287 230.579C271.179 230.107 271.173 228.706 271.557 227.797C273.462 223.294 280.393 220.483 284.802 219.247ZM290.903 250.891C300.292 249.027 310.731 251.068 318.589 256.572C332.679 266.441 339 286.851 332.452 302.814C325.954 318.657 308.193 328.736 291.257 325.709C273.968 322.619 260.594 305.209 262.459 287.669C263.252 280.202 266.509 273.472 271.328 268.385C271.365 268.21 271.406 268.033 271.475 267.851C274.863 258.834 281.283 252.802 290.903 250.891ZM204.989 265.23C194.224 258.75 178.397 262.368 169.15 270.191C167.314 271.745 165.242 271.29 164.115 269.934C157.839 275 153.408 282.087 152.696 290.717C151.421 306.196 162.444 316.376 177.296 317.547C192.474 318.744 208.182 314.508 215.331 299.965C221.504 287.41 216.973 272.443 204.989 265.23ZM306.898 265.9C298.469 262.595 286.38 264.548 279.02 270.204C273.417 277.428 270.69 287.34 272.844 295.458C275.956 307.182 287.206 316.315 299.565 315.016C311.003 313.814 321.337 304.658 322.565 293.033C323.746 281.852 317.61 270.1 306.898 265.9ZM299.747 283.444C301.668 282.074 303.96 283.617 304.663 285.444L305.065 286.272C305.278 286.715 305.496 287.173 305.504 287.19L305.58 287.411C305.682 287.602 305.804 287.78 305.92 287.961C306.01 288.023 306.757 288.958 306.857 289.08C308.062 290.568 308.702 291.929 308.664 293.887C308.591 297.758 304.979 300.484 301.234 299.547C297.206 298.539 295.491 294.373 295.858 290.548C296.149 287.52 297.252 285.223 299.747 283.444ZM190.388 284.184C192.165 282.568 194.907 282.432 196.661 284.184C197.624 285.146 198.014 286.218 198.705 287.337L199.032 287.851C199.751 288.955 200.503 290.015 200.697 291.37C201.155 294.559 200.166 297.527 197.024 298.854C193.899 300.172 191.005 298.824 189.102 296.258C186.85 293.218 187.534 286.778 190.388 284.184Z" fill="black"/>
</svg>
