<svg width="403" height="509" viewBox="0 0 403 509" fill="none" xmlns="http://www.w3.org/2000/svg">
<path fill-rule="evenodd" clip-rule="evenodd" d="M399.781 366.753C382.886 290.162 379.594 206.05 335.001 139.174C315.514 111.905 284.204 76.3472 247.627 87.5542C249.134 71.4072 250.557 55.2532 251.873 39.0892C252.626 29.8432 256.087 17.5242 248.262 10.4152C235.343 -0.0167902 213.956 15.9462 203.971 24.8652C182.339 45.5792 173.797 65.6982 145.302 79.5322C133.88 71.3922 122.748 62.8512 111.155 54.9312C99.3416 46.8612 82.4436 33.7522 70.1846 48.6502C59.7946 61.2782 66.4316 81.1832 70.5516 95.0772C72.6586 102.183 74.7526 109.939 77.6806 117.247C77.9276 122.802 78.3576 128.347 78.9886 133.876C57.8806 137.632 36.1566 140.792 15.9896 148.163C4.99155 154.12 5.96155 167.649 13.7636 175.747C25.4396 187.054 40.2146 195.896 56.3446 201.831C53.4156 211.967 46.3946 220.562 37.5666 226.182C34.6056 228.059 32.9446 230.812 32.3436 233.749C27.8186 235.998 22.9736 237.62 17.8556 238.673C11.5436 239.976 7.89655 247.426 9.52355 253.347C14.1076 267.737 30.2615 259.512 40.7556 258.496C41.0716 268.545 41.2355 279.016 45.7985 288.325C21.4095 294.725 0.281552 318.062 5.92055 344.356C11.0426 369.492 38.1756 377.173 59.6536 382.885C61.2806 383.843 61.2756 384.784 61.7926 387.157C65.3366 403.452 62.3526 421.379 56.7656 436.849C55.2426 441.066 57.4806 446.343 60.8636 448.872C78.3546 460.009 84.1536 426.094 104.093 447.681C102.605 447.458 98.9026 445.607 99.0926 448.289C124.961 493.685 201.339 496.475 248.136 497.589C253.752 500.321 260.218 498.772 266.642 497.028C272.771 496.696 278.893 496.237 285 495.614C296.149 493.602 315.76 495.987 316.46 480.284C345.255 468.925 370.013 449.302 386.897 423.302C399.421 406.049 404.366 387.787 399.781 366.753Z" fill="white"/>
<path fill-rule="evenodd" clip-rule="evenodd" d="M225.154 4.67725L226.835 3.94323C232.631 1.43371 238.959 -0.972879 245.304 0.399254C252.612 1.97925 256.837 8.26425 258.646 15.1163C260.74 23.0423 261.676 31.4793 262.25 39.6373C262.843 48.0863 262.614 56.5173 261.978 64.9533C261.447 72.0083 260.349 80.1843 257.723 87.0223C257.835 86.9223 257.969 86.8483 258.129 86.8313C268.465 85.7723 277.99 86.3893 287.861 89.7183C297.056 92.8193 305.97 97.1703 313.972 102.667C331.256 114.539 344.629 132.469 353.946 151.032C372.873 188.745 376.866 231.408 382.17 272.65L382.331 273.899C385.185 295.953 388.976 317.673 395.058 339.065L396.108 342.713C401.69 362.284 405.021 381.323 400.57 401.584C391.963 440.764 361.622 470.338 326.524 487.409C308.604 496.125 289.214 502.556 269.63 506.264C249.543 510.068 227.803 510.705 209.488 500.314C200.408 495.162 208.402 482.004 217.579 486.471C236.517 495.69 257.98 492.655 277.638 487.586C297.191 482.545 316.368 475.487 333.693 465.004C363.424 447.016 388.44 415.961 389.26 379.897C389.721 359.604 381.049 340.227 376.868 320.635C373.183 303.37 370.896 285.853 368.738 268.337L367.138 255.327C362.495 218.014 356.681 179.602 337.52 146.625C320.605 117.516 291.471 94.3693 257.941 88.2123C257.74 88.1763 257.607 88.0793 257.527 87.9563C256.501 93.4793 250.414 98.6293 246.519 101.807C241 106.313 234.313 109.578 227.039 109.432C213.013 109.151 200.969 98.2743 191.355 89.1653C190.271 88.1393 191.445 86.7073 192.678 86.8933C203.836 88.5723 213.402 97.6373 224.839 97.5023C230.725 97.4323 235.235 94.2743 239.078 90.0753C240.513 88.5053 241.775 86.6103 243.14 84.8683C243.477 80.2923 244.773 75.8053 245.353 71.2503C245.894 67.0003 246.358 62.6853 246.633 58.4033C247.193 49.6653 247.016 40.8623 246.049 32.1573C245.634 28.4209 245.108 24.6498 244.293 20.9703L243.911 19.3119C243.405 17.0322 243.075 14.9552 240.319 15.1893C234.193 15.7073 227.345 19.4443 221.988 22.2643C201.22 33.2013 186.121 50.1123 174.976 69.9793C175.676 70.3293 176.344 70.7903 176.969 71.3903C178.226 72.5973 178.871 74.7233 178.295 76.4063C176.07 82.9103 168.16 83.1003 162.595 85.6473C156.531 88.4213 150.835 91.9873 145.441 95.8933C134.823 103.581 125.068 112.613 115.792 121.852C101.183 136.4 87.617 151.883 74.516 167.768L71.728 173.995C68.9452 180.222 66.2233 186.469 63.971 192.954C60.305 203.5 57.234 214.281 54.873 225.194C52.497 236.178 50.948 247.414 50.361 258.637C49.837 268.651 51.166 278.658 51.11 288.614C52 290.279 52.322 292.156 51.903 294.069C54.705 294.862 57.419 296.071 59.968 297.739C60.589 298.147 60.195 299.119 59.462 298.939C56.23 298.143 52.997 297.966 49.831 298.274C48.151 300.346 45.431 301.665 42.792 301.607L41.666 301.582C40.841 301.564 40.023 301.432 39.233 301.207C34.779 303.26 30.681 306.215 27.212 309.746C18.871 318.238 14.843 329.363 15.435 341.248C16.021 352.971 22.265 363.545 32.607 369.176C37.22 371.687 42.346 373.009 47.59 373.106C52.635 373.197 59.256 371.664 63.401 374.951C63.867 375.321 64.174 375.813 64.363 376.357C64.652 375.136 64.959 373.918 65.294 372.705C65.55 371.778 67.093 371.67 67.282 372.705L67.5253 374.055C70.9985 393.634 72.2202 413.793 86.019 429.463C92.473 436.793 100.254 443.404 108.236 449.016L109.557 449.938C112.967 452.292 116.651 454.578 120.717 455.43C125.235 456.377 128.97 456.117 133.125 458.6C135.078 459.768 136.277 462.346 135.558 464.582C130.949 478.934 112.784 472.487 103.627 466.813C98.535 463.658 93.58 459.846 88.976 455.647C84.961 458.093 80.193 459.67 76.096 460.283C69.777 461.229 63.068 459.915 58.031 455.834C52.702 451.518 50.879 445.238 51.784 438.571C52.2342 435.254 53.095 432.018 54.0224 428.805L54.789 426.18C55.907 422.358 56.781 418.413 59.035 415.076C60.173 413.393 62.874 413.552 63.459 415.655C64.798 420.468 64.2185 425.901 63.8719 430.914L63.797 432.063C63.57 435.834 61.963 441.618 65.269 444.412C69.251 447.776 73.609 446.24 77.849 443.922C77.417 443.395 76.99 442.865 76.571 442.334C62.851 424.896 59.439 403.188 63.197 381.969C59.656 386.614 50.426 387.619 45.528 387.258C37.838 386.692 30.271 384.354 23.721 380.244C10.002 371.638 2.28601 356.545 1.95801 340.49C1.63801 324.9 8.61301 309.133 21.475 300.055C24.873 297.657 28.653 295.793 32.599 294.567C30.681 286.951 30.478 278.537 30.894 270.304C26.293 270.93 21.312 270.117 17.152 268.701L16.5063 268.476C10.095 266.179 1.95232 261.564 0.752012 254.36C-0.725989 245.5 10.208 240.408 16.552 236.869C19.5193 235.215 22.5535 233.667 25.7035 232.389L26.652 232.014C29.371 230.968 32.572 229.017 35.332 230.571C35.529 230.682 35.577 230.893 35.548 231.1C35.002 234.945 28.7 238.217 25.898 240.642C23.746 242.503 21.666 244.451 19.67 246.48C18.376 247.796 16.43 251.121 14.77 252.054C15.541 252.457 16.465 253.449 17.109 253.83C18.923 254.899 20.836 255.653 22.883 256.141C25.926 256.869 28.974 256.557 32.021 256.488C33.258 244.362 35.504 232.501 39.12 220.852C45.185 201.308 55.126 180.719 69.308 165.268C79.707 145.786 93.138 127.991 108.478 112.078C118.317 101.873 128.71 91.9713 140.237 83.6793C145.347 80.0035 150.722 76.6916 156.427 74.0234L158.322 73.154C161.489 71.6886 165.341 69.7864 169.014 69.2423C171.39 59.8143 175.623 50.7973 180.759 42.6243C187.835 31.3633 197.148 21.8653 208.045 14.2763C213.422 10.5303 219.152 7.30925 225.154 4.67725ZM36.1186 333.05C45.2616 326.909 56.4746 324.506 67.4006 325.413C72.8206 325.862 78.1817 327.133 83.2609 329.076L85.3548 329.903C90.206 331.846 95.4127 334.245 95.5866 340.113C95.6556 342.43 93.9406 344.275 91.8706 344.995C86.8216 346.75 82.7306 342.547 78.5616 340.311C74.3526 338.051 69.8786 336.561 65.2696 335.354C64.8276 335.238 64.3846 335.133 63.9426 335.028C64.1826 335.509 64.3186 336.041 64.2716 336.614C64.1576 337.986 63.7586 339.006 63.3706 340.292C63.2536 340.682 62.9686 343.063 62.6766 343.357C62.7716 344.167 62.7816 344.933 62.8066 345.749C62.8766 348.158 62.5796 350.193 61.3496 352.326C58.2856 357.639 49.5266 358.129 46.5936 352.326C43.6606 346.524 45.9526 340.846 50.4096 336.674C51.6246 335.538 53.2446 334.381 55.0046 333.583C48.8246 333.019 42.5756 333.286 36.4016 334.098C35.7996 334.178 35.7076 333.327 36.1186 333.05ZM36.6653 138.404C49.2053 136.272 62.3013 135.847 74.9573 137.108C75.6473 137.178 75.9053 138.228 75.1323 138.397C55.8874 142.622 35.9373 144.049 18.7668 154.633L17.9763 155.129C16.3283 156.177 12.4073 158.156 11.5913 160.02C10.6283 162.22 13.2363 165.048 14.4493 166.636C17.1763 170.202 20.5643 173.315 24.3043 175.792C28.2553 178.408 32.5033 180.427 37.0723 181.702C39.2423 182.308 41.4933 182.616 43.6383 183.306C46.0803 184.09 46.8683 185.341 48.7183 186.976C50.8503 188.858 50.1343 192.47 47.8353 193.821L47.19 194.196C44.1689 195.924 42.4897 196.434 38.6523 195.758C35.6503 195.228 32.7833 194.179 29.9733 193.013C24.8105 190.869 20.0984 188.062 15.7507 184.567L15.1013 184.038C7.33731 177.62 -5.81769 163.582 2.84731 153.362C10.4953 144.344 25.5243 140.298 36.6653 138.404ZM67.5492 41.1685C79.5762 27.0005 96.5622 36.6745 108.614 45.1455C121.603 54.2735 132.873 65.0405 141.985 78.0495C142.564 78.8765 141.444 79.8825 140.638 79.3965C130.535 73.3055 120.326 67.4745 109.963 61.8295C105.708 59.5116 101.448 57.2496 97.094 55.1313L94.7668 54.0119C91.1304 52.2169 85.9092 48.9414 82.0312 51.0775C73.6689 55.6862 78.8302 70.7818 80.5532 78.0927L80.7102 78.7825L85.965 102.842L88.3592 113.673C89.2102 114.363 89.9182 115.286 90.4192 116.476C91.7752 119.693 90.6682 124.039 87.3882 125.727C77.7072 130.709 74.4292 120.979 72.6062 113.667C71.1249 107.727 69.628 101.791 68.128 95.8558L65.6467 86.0471C61.8461 71.1987 56.4507 54.2417 67.5492 41.1685Z" fill="black"/>
<path fill-rule="evenodd" clip-rule="evenodd" d="M292.138 340.83C292.38 340.072 293.433 340.074 293.675 340.83C295.873 347.681 297.164 354.39 300.446 360.832C301.257 361.667 301.838 362.718 302.149 363.853C303.682 366.4 305.39 368.818 307.301 371.107C309.705 373.987 311.454 376.692 310.18 380.623C309.552 382.56 307.93 383.799 305.886 383.892C300.274 384.146 297.077 378.794 295.092 373.214C281.204 377.826 265.912 380.437 251.356 379.29C239.524 378.356 226.635 375.392 216.041 369.35C216.104 371.632 216.191 373.916 216.271 376.201C216.419 380.427 217.556 385.052 217.116 389.202C216.68 393.32 214.342 396.506 210.105 397.144C206.458 397.692 201.944 395.257 201.233 391.351C200.409 386.817 201.935 383.65 203.19 379.37C204.299 375.588 205.169 371.724 206.125 367.901C207.089 364.041 207.878 360.148 208.593 356.237C209.117 353.374 208.739 350.148 209.753 347.451C209.833 347.24 210.039 347.089 210.272 347.156C215.667 348.706 215.974 357.392 215.952 362.053L215.95 362.283C215.942 363.233 215.951 364.183 215.961 365.132L218.023 365.583C229.339 368.032 240.332 369.892 252.23 369.217C266.188 368.426 278.462 363.323 291.708 359.826C290.608 353.535 290.27 346.672 292.138 340.83ZM245.461 216.861C251.655 214.74 258.351 213.738 264.865 214.059C278.827 214.749 292.128 221.117 301.282 231.728C309.925 241.745 314.622 254.308 314.561 267.562C314.495 281.177 310.919 296.509 304.185 308.427C290.036 333.468 256.988 333.642 233.238 323.658C207.893 313.004 197.581 286.135 203.686 260.158C208.276 240.622 223.933 217.181 245.461 216.861ZM286.753 236.201C279.275 230.198 269.858 227.501 260.343 228.183C255.616 228.522 250.813 229.763 246.522 231.78C244.241 232.852 242.202 234.349 239.956 235.465C237.953 236.459 235.786 237.038 233.719 237.875L232.95 238.202C229.557 239.718 226.14 237.549 225.97 234.388C218.589 244.744 215.088 258.787 215.144 271.245C215.187 280.419 217.372 289.949 222.638 297.587C228.491 306.076 238.202 310.554 247.942 312.932C257.27 315.209 267.441 315.999 276.791 313.412C286.496 310.728 292.765 303.363 296.333 294.182C304.073 274.267 304.712 250.618 286.753 236.201ZM253.427 260.896C257.662 255.115 265.259 254.808 269.441 260.896C272.073 264.728 271.686 268.42 271.477 272.83L271.436 273.821C271.313 277.312 271.329 280.986 270.022 284.212C268.343 288.353 265.08 291.006 260.458 290.457C257.737 290.132 255.458 288.508 254.136 286.268L254.09 286.294C252.236 282.593 251.758 278.837 251.444 274.797L251.229 271.834C250.967 267.939 250.953 264.273 253.427 260.896Z" fill="black"/>
</svg>
