<svg width="385" height="510" viewBox="0 0 385 510" fill="none" xmlns="http://www.w3.org/2000/svg">
<path fill-rule="evenodd" clip-rule="evenodd" d="M375.406 128.844C375.07 116.886 357.677 111.921 352.652 123.764C352.34 124.081 352.001 124.386 351.683 124.659C353.256 123.31 349.967 125.542 349.432 125.818C348.974 126.054 348.506 126.267 348.039 126.487C344.807 96.1932 333.835 63.5352 305.483 48.3292C265.939 29.1532 220.246 25.4102 176.863 27.3152C154.886 28.6192 129.508 32.1332 109.983 21.0152C103.899 17.5512 99.0217 12.0982 92.1467 9.95723C70.4437 4.08623 60.5997 26.3722 63.5557 44.6992C54.2987 44.7722 45.1157 49.8972 41.1207 58.3352C38.7747 63.3292 38.8157 68.7182 36.7927 73.7302C30.5857 86.4402 21.7047 95.5762 26.7257 110.986C17.8947 121.035 22.9297 136.248 30.0557 145.869C33.5747 150.873 37.7657 155.677 40.3437 161.278C42.8457 166.641 39.0687 173.001 36.9667 178.085C21.4267 214.934 22.3147 255.515 30.6767 293.951C13.8967 301.232 8.86066 323.992 19.8027 338.323C23.5677 343.389 28.1607 345.269 33.3697 348.386C39.9617 352.014 34.5777 366.546 36.6887 373.564C39.5567 390.697 55.1567 401.248 70.5817 390.122C80.3697 388.641 88.2647 417.12 95.3727 424.268C99.7517 430.028 104.614 435.2 109.9 439.973C125.65 480.498 206.356 501.048 246.258 498.702C288.043 494.327 316.232 458.841 339.704 427.347C351.757 410.566 359.596 391.784 362.447 371.299C365.311 350.711 364.058 330.086 362.122 309.473C358.055 265.677 351.639 202.581 347.496 158.312C362.468 157.079 375.86 144.332 375.406 128.844Z" fill="white"/>
<path fill-rule="evenodd" clip-rule="evenodd" d="M49.0183 102.514C49.0043 102.576 49.0253 102.623 49.0393 102.689C49.0423 102.67 49.0453 102.66 49.0503 102.637C49.0383 102.587 49.0293 102.554 49.0183 102.514Z" fill="#4F66AF"/>
<path fill-rule="evenodd" clip-rule="evenodd" d="M49.0138 103.15C48.9588 103.092 48.8808 103.049 48.8028 102.991C48.8008 102.993 48.7998 102.995 48.7988 102.997C48.8718 103.045 48.9418 103.1 49.0138 103.15Z" fill="#4F66AF"/>
<path fill-rule="evenodd" clip-rule="evenodd" d="M373.024 134.504C377.942 130.418 385.689 134.18 384.023 140.907C382.21 148.233 374.358 153.239 367.876 156.249C361.204 159.346 354.705 159.943 347.426 159.605L347.336 159.585C349.357 167.688 350.503 176.111 352.049 184.263C354.011 194.605 355.941 204.952 357.842 215.304C359.681 225.31 362.006 235.329 363.419 245.385C364.844 255.536 366.212 265.694 367.612 275.848C369.948 292.807 371.834 309.844 373.823 326.851L374.77 334.902C376.762 351.941 378.365 369.002 374.591 385.959C371.054 401.851 363.086 416.675 353.844 429.941C344.793 442.931 334.682 455.421 323.583 466.72C302.174 488.511 275.774 505.964 244.818 509.201C231.489 510.595 217.253 509.044 204.722 504.199L203.89 503.874C191.205 498.865 175.671 490.29 172.37 476.219C170.343 467.587 179.238 460.848 187.037 464.944C190.65 466.842 193.367 469.011 196.333 471.73L196.86 472.216C199.284 474.467 200.217 475.159 203.014 476.92C208.751 480.529 213.051 482.237 219.567 483.877C231.581 486.899 244.547 486.421 256.743 482.847C282.637 475.259 302.725 455.459 319.934 435.606C329.278 424.825 338.147 413.516 344.987 400.951C352.164 387.768 355.477 373.927 355.278 358.927C355.053 342.002 352.714 325.011 351.179 308.166C349.615 290.993 348.169 273.826 346.895 256.629C345.701 240.502 345.586 224.302 345.169 208.125L345.087 205.092C344.842 196.504 344.672 187.913 344.477 179.323C344.284 170.758 343.606 162.084 344.488 153.555C344.551 152.934 345.388 152.777 345.592 153.405C346.112 155.003 346.567 156.626 346.997 158.258C347.063 158.208 347.137 158.163 347.227 158.132C352.931 156.172 358.184 152.259 362.464 148.039C366.548 144.012 368.681 138.113 373.024 134.504ZM60.947 14.5061C64.53 -0.209871 80.654 -3.49687 92.577 3.59013C98.312 6.99813 102.904 11.9131 108.261 15.8191C113.587 19.7031 119.473 22.8221 125.684 25.0251C138.023 29.4011 151.039 30.9921 164.08 31.0491C195.82 31.1881 226.911 22.2681 258.698 23.2631C283.294 24.0331 309.4 31.3021 327.241 49.0821C336.852 58.6601 343.045 70.9741 346.367 84.0471C347.92 90.157 349.077 96.4151 349.99 102.659L350.213 104.219C350.724 107.868 351.544 111.731 351.62 115.419C351.689 118.731 350.851 122.197 350.397 125.475C349.44 132.385 338.737 131.598 337.199 125.475C333.697 111.534 335.163 97.1461 330.883 83.2531C327.088 70.9331 319.733 60.1611 309.076 52.7941C264.117 21.7141 206.462 47.7411 156.926 45.3231C144.819 44.7321 132.534 42.8611 121.114 38.6921C115.225 36.5421 109.427 33.9201 104.088 30.6221C99.1961 27.6024 94.9581 23.8084 90.4298 20.3171L88.4321 18.7987C85.3277 16.4632 80.043 12.8116 76.911 15.9011C75.548 17.246 75.4656 20.2867 75.4905 22.6087L75.506 23.6581C75.648 33.5161 77.657 43.3561 73.968 52.8801C72.285 57.2242 67.6081 59.9632 63.1598 57.503L62.93 57.3711C53.521 51.7737 41.159 63.0212 48.3869 72.3297L48.612 72.6111C52.6786 77.5533 50.5105 86.2564 43.2321 86.2346L42.97 86.2301C30.002 85.8252 24.2485 102.032 35.4261 109.113L35.77 109.325C44.845 114.756 36.885 127.813 27.584 123.33C28.372 123.71 27.002 123.705 26.218 124.757C25.465 125.767 25.409 126.641 25.588 127.917C26.131 131.783 29.531 135.041 32.285 137.487C38.541 143.044 46.296 146.881 54.287 149.217C86.297 158.575 119.137 147.128 150.325 140.215C182.84 133.008 219.564 130.105 247.92 150.556C248.257 150.798 247.962 151.339 247.589 151.123C227.239 139.305 202.315 140.354 180.07 145.199C150.9 151.553 121.985 163.38 92.11 166.496C100.497 181.302 104.007 198.789 101.767 215.724C100.225 227.382 95.5851 237.494 90.1054 247.741L89.0597 249.694C84.1738 258.892 80.3893 267.581 80.329 278.237C80.27 288.824 64.531 291.056 61.863 280.737C55.806 257.302 77.872 238.843 86.875 219.518C94.57 202.998 94.807 183.737 88.58 166.822C81.554 167.387 74.473 167.446 67.321 166.808C61.178 166.259 54.858 165.152 48.698 163.4L46.2336 173.76C42.9687 187.559 39.9438 201.349 39.027 215.682C38.352 226.214 38.388 236.798 39.415 247.304C40.303 256.378 42.177 265.129 44.084 273.988C45.72 276.146 46.556 279.449 46.096 282.08C56.716 285.138 65.069 293.518 68.121 304.617C68.307 305.293 67.361 305.673 67.007 305.087C59.766 293.073 41.12 288.652 29.325 296.589C18.061 304.167 13.618 319.467 19.994 331.579C23.3477 337.948 28.3201 342.423 34.7318 345.505L36.0209 346.11C39.3809 347.7 42.4652 349.433 44.626 352.626C47.4291 356.768 47.5235 361.147 47.2586 365.88L47.144 367.798C46.9669 370.97 46.927 374.236 47.872 377.288L48.0867 377.966C48.3359 378.728 48.598 379.399 49.053 380.126C49.189 380.342 50.465 381.594 50.881 382.047L51.405 382.205L51.991 382.229C52.641 382.239 53.4954 381.957 53.2151 382.153L53.2914 382.109C53.538 381.955 53.7649 381.793 53.956 381.649L54.319 381.365C55.168 380.138 56.232 379.124 57.537 378.351L58.784 377.796C62.023 374.376 67.573 376.173 69.895 379.58C71.566 382.03 72.465 384.521 72.539 386.978C72.8 386.559 73.38 386.33 73.749 386.799L75.9506 389.605C84.3739 400.367 92.6523 411.197 102.224 421.008C107.497 426.414 113.169 431.494 119.098 436.173C124.16 440.168 133.762 444.012 133.909 451.289C133.955 453.651 132.278 455.324 130.226 456.126C123.547 458.735 115.295 449.861 110.471 445.543L110.077 445.194C104.173 440.023 98.785 434.347 93.813 428.277C84.156 416.486 76.081 402.915 72.522 387.986C72.355 390.591 71.237 393.144 69.061 395.553C66.164 398.759 62.199 401.007 57.964 401.933C48.369 404.03 39.001 400.577 33.292 392.582C28.4666 385.823 27.0459 376.898 27.6685 368.732L27.7452 367.752C27.8327 366.443 27.9441 364.04 28.283 363.017L25.262 361.358C21.558 359.387 18.125 356.803 15.044 353.963C2.66096 342.547 -3.55203 323.994 2.10897 307.759C5.64997 297.603 13.091 288.766 22.619 284.173C21.0264 280.493 20.4939 276.122 19.8929 272.255L19.792 271.615C18.773 265.271 17.92 258.847 17.595 252.427C16.987 240.437 17.726 228.335 19.61 216.484C22.67 197.235 29.005 176.821 40.617 160.673C31.758 157.155 23.604 152.062 17.31 144.99C10.733 137.6 6.53996 127.02 11.626 117.635C12.922 115.243 14.611 113.232 16.552 111.635C13.186 105.279 12.097 97.7671 14.174 90.5871C16.656 82.0031 23.395 75.3081 31.536 72.1821C29.559 64.0491 31.175 55.3011 37.216 48.5231C43.208 41.7991 52.513 39.3501 61.125 40.8871C61.592 32.2371 58.869 23.0371 60.947 14.5061ZM36.792 318.206C44.688 314.342 54.046 314.956 61.933 318.618L62.4674 318.872C71.0783 323.047 82.4829 332.803 79.746 343.179C78.144 349.247 71.402 351.319 66.174 348.7C61.807 346.511 60.811 342.598 58.62 338.667C57.071 335.887 55.156 333.714 52.907 331.479C48.166 326.77 42.841 323.272 36.792 320.473C35.92 320.069 35.95 318.619 36.792 318.206ZM235.746 108.477C235.006 108.139 235.543 106.98 236.288 107.192C256.129 112.858 274.628 125.576 285.682 143.229C286.356 144.306 286.459 146.079 285.682 147.145L285.325 147.628C284.818 148.29 284.317 148.779 283.364 148.927C281.572 149.205 280.015 148.738 278.983 147.145C268.093 130.319 254.141 116.891 235.746 108.477ZM368.572 111.808C370.253 108.961 374.71 109.534 375.597 112.726L375.725 113.004C376.204 114.092 375.986 114.315 375.093 113.699C377.305 115.521 378.306 118.235 377.63 121.153C373.978 136.913 356.127 148.167 340.565 146.618C339.207 146.483 339.022 144.814 340.253 144.316C346.24 141.892 351.554 137.955 355.827 133.124C359.98 128.428 361.727 123.055 363.961 117.384C364.799 115.255 366.103 113.722 367.94 112.885C368.183 112.549 368.395 112.191 368.572 111.808ZM280.075 101.681L280.182 101.687C288.178 102.72 295.095 106.666 300.71 112.448C306.118 118.016 312.943 127.204 312.358 135.375C311.971 140.792 304.269 143.889 301.395 138.345C299.68 135.037 299.291 131.411 298.09 127.913C296.988 124.707 295.466 121.663 293.644 118.808C289.893 112.926 284.735 107.943 279.453 103.447C278.835 102.921 279.266 101.683 280.075 101.681ZM74.9896 99.28C73.2166 97.592 75.0606 94.714 77.3156 95.284C89.2086 98.295 100.987 101.957 113.352 102.321C119.528 102.502 125.669 102.015 131.787 101.216L134.884 100.805C139.655 100.182 144.508 99.6931 149.224 100.673C152.368 101.326 152.982 105.376 151.023 107.489C141.772 117.468 123.928 116.514 111.659 114.832C98.3356 113.004 84.8926 108.714 74.9896 99.28ZM289.755 68.1757C288.941 67.0467 290.311 65.2647 291.607 65.7657C303.426 70.3337 315.813 82.2267 319.069 94.6697C319.929 97.9567 315.784 100.439 313.35 97.9987C308.814 93.4517 305.612 88.0807 301.778 82.9697C297.957 77.8747 293.486 73.3497 289.755 68.1757ZM96.1019 73.7327C95.1539 72.7857 96.1079 70.8997 97.4699 71.3817C105.165 74.1067 112.918 76.4647 121.002 77.7017C129.282 78.9677 137.64 78.0057 145.963 78.5187C149.33 78.7257 151.623 83.9637 147.88 85.5937C131.248 92.8347 108.658 86.2687 96.1019 73.7327ZM117.349 57.4911C116.027 56.5131 116.779 53.8291 118.578 54.5781C125.906 57.6291 133.317 58.3791 141.181 58.0651C144.086 57.9481 144.697 62.5131 141.866 63.1291C133.173 65.0201 124.453 62.7431 117.349 57.4911Z" fill="black"/>
<path fill-rule="evenodd" clip-rule="evenodd" d="M213.15 354.293C218.744 345.091 230.668 367.632 231.934 371.508C233.056 374.942 233.797 378.459 234.174 382.017C238.511 382.989 243.014 382.991 247.458 382.139C254.063 380.872 258.1 377.322 263.84 374.273C267.805 372.166 272.802 374.636 274.864 378.13C277.289 382.243 275.744 386.511 272.554 389.577C266.505 395.391 254.603 396.727 246.707 395.183C242.183 394.299 238.037 392.602 234.376 390.136C234.351 390.597 234.335 391.057 234.299 391.516L234.229 392.313C233.622 398.761 231.85 406.869 226.842 411.065C218.627 417.947 208.49 404.711 216.471 397.836L216.719 397.63C221.68 393.621 222.762 382.866 222.495 376.943C222.32 373.076 221.616 369.16 220.395 365.478L220.144 364.745C219.777 363.704 215.77 353.837 214.322 355.094L214.253 355.165C213.656 355.877 212.691 355.047 213.15 354.293ZM257.814 302.367C265.365 306.957 276.871 317.661 268.748 329.04C259.186 339.073 245.418 327.569 238.634 322.366C232.343 318.334 225.275 328.705 231.112 333.413C280.135 369.708 300.03 303.568 261.633 296.971C257.406 296.244 255.836 300.947 257.814 302.367ZM177.178 259.941C184.558 258.632 192.118 260.467 198.225 264.785L198.688 265.117C204.572 269.42 211.155 276.976 207.778 284.393C206.423 287.371 202.365 287.838 199.79 286.488C195.503 284.24 194.726 278.709 190.901 275.648C187.764 273.139 183.54 271.617 179.5 271.984C170.009 272.846 164.171 282.207 161.223 290.274C160.846 291.306 159.331 291.707 158.739 290.599C151.788 277.607 164.092 262.263 177.178 259.941ZM295.389 255.038C309.526 253.873 326.073 268.529 322.351 283.451C320.566 290.611 309.945 290.406 308.057 283.451C307.018 279.624 307.122 276.238 304.367 273.06C302.093 270.436 298.862 268.912 295.389 269.146C291.561 269.404 288.03 271.317 285.347 274.006C282.924 276.434 281.475 279.987 278.965 282.136C278.347 282.664 277.52 282.698 276.91 282.136C272.59 278.153 275.183 269.861 277.922 265.703C281.842 259.753 288.225 255.629 295.389 255.038ZM150.257 233.475C159.326 225.447 175.805 217.694 188.034 221.645C195.065 223.916 198.13 235.245 190.281 238.836C181.192 242.994 170.713 241.302 161.462 245.612C157.577 247.423 153.923 249.686 151.218 253.005C149.087 255.621 146.919 259.063 143.837 260.571C143.027 260.968 141.93 260.978 141.281 260.242C134.525 252.6 144.358 238.696 150.257 233.475ZM279.801 221.247C285.406 219.674 291.624 219.706 297.318 220.694C303.01 221.682 308.789 224.041 313.436 227.482L313.976 227.885C319.049 231.708 325.103 237.27 324.778 244.042C324.507 249.697 318.558 253.522 313.422 250.558C309.235 248.141 307.265 243.299 303.72 240.075C300.795 237.414 297.359 235.316 293.693 233.846C289.621 232.213 285.542 231.448 281.172 231.375C277.807 231.319 274.422 232.423 271.12 232.776C271.392 233.334 268.782 233.074 267.286 232.579C266.178 232.107 266.172 230.706 266.556 229.797C268.461 225.294 275.392 222.483 279.801 221.247Z" fill="black"/>
</svg>
