<svg width="442" height="478" viewBox="0 0 442 478" fill="none" xmlns="http://www.w3.org/2000/svg">
<path fill-rule="evenodd" clip-rule="evenodd" d="M259.801 7.70703C304.573 7.70703 358.291 29.4116 362.858 29.8457L362.981 29.8523C365.384 29.8523 374.773 37.0055 391.149 51.312L373.412 85.906L374.848 87.2765C381.716 93.8619 387.58 99.8642 392.208 104.596C430 143.23 436.792 294.92 427.886 347.819C418.98 400.718 402.484 452.481 325.685 452.481C248.887 452.481 163.447 406.304 150.285 391.923C141.511 382.337 131.655 377.744 120.718 378.145C120.268 377.577 119.822 377.012 119.38 376.448L117.771 376.22C102.634 374.028 91.7876 371.077 85.2329 367.369C72.4297 360.125 58.3575 322.046 58.3575 313.658C58.3575 305.353 37.3447 244.941 36.9245 238.548L36.9181 238.371C36.9181 233.026 9.46702 208.459 9.46702 200.657C9.46702 192.854 3.9338 193.328 9.46702 165.834L11.0746 157.757C16.9628 128.485 28.4876 80.0134 72.4297 58.9512C120.718 35.8059 214.578 7.70703 259.801 7.70703Z" fill="white"/>
<path fill-rule="evenodd" clip-rule="evenodd" d="M64.9759 57.8635C89.0586 32.3017 225.78 -7.23636 294.952 1.14476L297.027 1.41346C302.547 2.11346 307.987 3.17347 313.356 4.61347C330.71 8.66647 348.636 14.8035 362.975 25.0545C374.946 33.4405 412.709 47.1355 401.579 69.0735C405.706 76.8925 407.246 86.5525 404.457 94.2535C404.106 96.9135 403.286 99.3635 402.237 101.903C411.054 114.914 418.035 129.628 423.686 143.623C433.561 178.844 439.706 215.498 440.606 251.433C443.6 319.705 436.114 401.256 376.652 445.404C340.731 473.379 284.463 474.319 244.096 439.633C241.805 436.922 231.032 429.606 234.627 428.323C235.697 429.453 236.797 430.553 237.917 431.633C237.866 431.513 237.856 431.393 237.877 431.263L236.823 430.309C234.84 428.474 232.27 425.813 235.197 426.333C235.326 426.483 235.467 426.613 235.606 426.763C236.226 427.135 236.694 427.458 237.059 427.742L237.246 427.892L237.188 427.832C235.502 426.034 234.491 424.2 237.012 425.371L237.346 425.533C238.467 426.713 239.606 427.843 240.766 428.943C240.747 428.813 240.766 428.683 240.837 428.543L239.755 427.499C238.7 426.464 238.861 426.46 239.377 425.623C237.133 422.478 241.322 424.346 241.616 425.573C244.237 424.953 246.538 429.873 248.226 430.473C322.225 487.363 429.612 436.884 427.873 278.359L427.846 275.258C427.338 224.568 423.072 172.469 402.106 126.583C400.067 122.163 397.786 117.863 395.277 113.703C393.547 110.583 391.697 107.543 389.707 104.583C384.136 104.133 378.636 103.113 373.217 101.533C371.356 101.063 369.516 100.543 367.677 99.9335C340.797 101.399 314.516 102.994 287.561 104.506L279.141 105.031C256.307 106.499 232.692 108.85 214.266 122.973C196.186 135.831 196.104 161.186 180.627 175.303C158.557 190.282 158.396 203.789 154.146 225.863C154.461 242.503 165.999 266.68 144.826 273.683C148.398 278.776 143.419 276.329 143.027 274.543C142.987 274.553 142.947 274.563 142.917 274.563C146.1 280.48 141.421 276.754 141.007 274.853C140.757 274.783 140.507 274.603 140.257 274.353C143.464 279.537 138.28 275.907 138.587 274.963C132.39 265.438 119.636 263.959 110.646 266.483C110.536 266.823 110.137 266.853 109.887 266.673C71.6599 274.957 81.5229 354.093 120.697 346.443C122.374 346.101 122.334 346.906 122.667 346.983C121.762 344.607 124.313 345.574 124.286 346.073L124.441 346.066C124.564 346.055 124.514 346.042 124.606 346.073C123.731 341.214 128.655 348.254 128.266 348.543C128.417 348.453 128.587 348.403 128.737 348.383L128.567 347.922C127.75 345.745 127.82 346.65 127.826 345.403C127.212 343.862 127.167 344.536 127.311 343.532C129.469 341.86 130.106 346.932 130.826 347.303C129.592 345.583 130.573 344.178 131.737 345.112C140.56 363.67 151.957 381.107 166.686 394.843C168.297 396.113 169.927 397.363 171.616 398.543C177.881 404 187.491 407.509 193.356 412.343C193.356 412.423 193.317 412.523 193.257 412.623L193.391 412.745L193.527 412.873L195.567 413.853C196.167 414.363 196.707 414.933 197.186 415.563C197.697 416.153 198.146 416.803 198.527 417.493C198.717 418.333 198.297 418.683 197.497 418.323C197.146 418.203 196.797 418.063 196.447 417.933C196.467 417.963 196.476 417.983 196.497 418.003C196.612 418.177 197.388 419.978 196.493 419.685L196.387 419.643C195.896 419.463 195.407 419.263 194.927 419.073C195.497 419.783 196.016 420.553 196.476 421.203C196.967 421.713 197.266 422.313 197.387 422.993C197.366 423.373 197.157 423.533 196.777 423.483C196.197 423.293 195.627 423.093 195.056 422.883L195.218 423.193C195.622 423.987 196.195 425.318 195.177 424.873C194.306 424.603 193.467 424.293 192.627 423.953C192.556 424.093 192.417 424.143 192.137 424.013C189.467 423.063 186.887 421.903 184.417 420.533C182.247 418.953 180.056 417.403 177.877 415.833C175.826 414.603 173.846 413.233 171.957 411.693C159.311 403.525 148.24 393.149 139.457 381.593C124.768 394.314 95.3989 382.161 77.2319 372.203C61.1629 363.303 54.8469 346.847 53.2139 329.105C49.8189 305.219 30.2989 297.043 31.6569 244.633C31.6269 244.643 31.5959 244.643 31.5559 244.643C30.8459 244.433 30.1569 244.153 29.5069 243.793C28.8369 243.473 28.2069 243.093 27.6159 242.633L26.8859 241.623C26.5069 241.413 26.1669 241.193 25.9069 240.973L25.772 241.147C25.3452 241.662 25.6321 240.887 25.6569 240.733L24.3887 239.009C21.3818 234.904 18.083 230.297 15.3959 226.613L15.3112 226.763C15.2504 226.876 15.2183 226.958 15.2469 226.993C8.85186 217.805 2.83786 206.707 1.16686 195.963C-0.806141 187.687 -0.0351404 179.159 1.68586 171.493C9.06486 144.648 33.2369 83.9005 64.9759 57.8635ZM238.524 429.116L238.123 428.76L238.475 429.201C238.66 429.429 238.849 429.634 239.157 429.843C239.137 429.773 239.137 429.703 239.146 429.623C238.942 429.468 238.733 429.297 238.524 429.116ZM294.646 14.6335C247.738 10.6005 201.601 20.9345 156.839 33.4435L153.751 34.331C128.299 41.5935 101.386 48.1287 79.8769 63.6735C49.8259 86.6905 34.3079 123.306 20.7659 157.113C8.94086 182.231 14.9859 210.554 32.8059 228.093C34.6599 210.664 37.8209 193.745 42.7609 176.962C43.7919 174.34 43.0119 173.481 45.2339 173.139C48.5899 218.367 32.0609 251.783 64.7709 305.385C78.9639 330.677 62.5339 349.183 102.614 362.492L103.699 362.907C112.049 366.058 121.167 368.545 129.346 366.783L128.613 365.592C127.866 364.364 127.639 363.768 128.726 363.243C128.697 363.183 128.657 363.123 128.616 363.053C127.737 361.393 126.887 359.713 126.076 358.013C125.747 358.123 125.417 358.203 125.076 358.293C125.297 358.703 125.326 359.113 124.707 359.253C122.503 360.009 120.24 360.312 117.924 360.171L117.427 360.133C114.81 359.973 113.161 359.496 111.686 359.053C111.197 358.973 110.707 358.893 110.226 358.793C105.481 357.741 100.458 355.065 97.2069 352.413C60.1489 331.365 63.9789 259.716 109.657 252.943C110.594 207.831 132.051 131.723 167.661 88.7365C199.849 49.1955 287.723 32.0575 348.859 38.1005C349.75 38.3955 350.641 38.6935 351.532 38.9945C360.964 39.8325 369.953 44.0345 379.392 45.9865C372.615 40.9075 364.927 37.5245 357.008 34.6495C341.23 24.9985 323.142 19.7765 305.667 16.0935C302.047 15.2035 298.377 14.7135 294.646 14.6335ZM107.566 289.183C110.022 287.849 109.741 289.137 110.306 288.763C127.972 287.322 147.021 302.789 156.896 315.683C156.116 316.493 154.006 314.093 153.636 313.713C153.586 313.763 153.526 313.803 153.466 313.823L153.741 314.211C157.744 319.955 149.809 313.196 149.066 311.803C148.936 311.873 148.806 311.913 148.656 311.883C149.285 312.5 151.206 314.109 151.536 315.253L152.045 315.677C156.848 319.79 156.449 322.883 150.997 317.043C151.126 317.313 151.176 317.563 151.086 317.763L151.274 317.888C153.955 319.762 156.16 324.985 150.556 319.623C151.139 323.539 145.003 315.97 144.806 316.023C134.188 307.688 118.555 299.582 105.236 298.493L104.778 298.441C102.334 298.127 101.178 297.401 102.036 295.803C99.0262 295.087 99.7312 293.605 101.156 293.653C99.0332 292.257 100.944 290.922 102.176 291.443C101.329 289.098 104.726 290.66 105.036 290.333C106.799 287.614 107.274 289.882 107.566 289.183ZM70.5363 143.833C79.0213 140.725 104.084 150.029 102.079 162.351C100.885 165.18 96.9513 166.801 94.1863 165.204L90.5774 162.781C84.2971 158.575 78.633 154.887 71.8903 151.218C68.2203 149.397 66.6403 145.531 70.5363 143.833ZM118.811 125.522L115.534 123.39C97.8503 111.816 72.8511 94.2793 117.186 112.423C122.239 114.59 128.953 115.872 131.71 120.684C136.041 129.553 124.643 130.149 118.811 125.522ZM120.798 73.5932C119.379 68.2082 137.036 74.5272 142.176 76.1932L142.959 76.4889C147.959 78.3519 153.691 80.0803 156.681 84.3952C160.185 90.3572 153.093 91.5922 148.7 88.8992C139.693 83.0132 129.818 78.5722 120.798 73.5932ZM165.699 48.5083C155.76 37.6549 182.359 48.0521 186.343 50.9381L186.457 51.0233C189.43 53.1163 188.827 57.6243 186.034 58.9483C178.087 59.0993 172.239 52.4753 165.699 48.5083ZM210.925 36.6171C195.125 25.2621 215.938 30.6631 223.167 35.1131C228.094 39.4581 223.019 46.7931 210.925 36.6171Z" fill="black"/>
<path fill-rule="evenodd" clip-rule="evenodd" d="M342.534 306.337C345.965 300.283 356.203 301.267 357.768 308.328C360.943 322.642 343.874 335.86 330.91 336.19C318.027 336.517 303.572 325.552 305.437 311.702C305.898 308.276 310.474 308.692 312.034 310.84L312.639 311.664C316.876 317.356 322.467 323.248 330.331 321.86C333.59 321.286 336.55 319.25 338.52 316.629C340.896 313.466 340.635 309.689 342.534 306.337ZM260.615 201.616C262.361 201.135 264.123 201.321 265.67 201.979C269.124 202.612 272.009 205.492 273.023 208.78C273.103 209.065 273.192 209.346 273.291 209.624L273.445 210.039L273.031 208.985C273.222 210.023 274.067 211.114 274.371 212.156C274.745 213.437 274.836 214.892 274.71 216.302C275.808 216.313 276.906 216.35 278.002 216.445L279.061 216.54C284.984 217.091 291.486 218.1 294.998 223.218C296.97 226.094 295.119 231.272 291.496 231.826C285.919 232.679 281.115 229.593 275.557 228.975C270.303 228.39 264.805 228.725 259.619 229.674C248.912 231.632 239.073 235.972 228.639 238.695L227.219 239.055L227.221 239.048C225.433 239.48 223.403 236.994 225.172 235.54C233.531 228.673 244.233 223.108 254.776 219.719C253.24 217.276 252.765 214.058 253.815 211.435C253.977 210.892 254.179 210.363 254.392 209.836L254.836 208.752C254.879 208.241 254.977 207.736 255.119 207.241L255.142 207.09L255.155 207.099C255.94 204.548 257.99 202.34 260.615 201.616ZM367.26 202.011C369.546 199.724 372.758 200.062 375.144 201.862L375.461 202.11C377.71 203.109 379.571 205.292 380.793 207.315C382.062 209.416 382.905 211.556 382.938 213.869C388.472 213.887 393.773 215.547 397.836 220.015C399.148 221.457 400.044 223.681 399.322 225.636L398.892 226.799C397.527 230.491 391.394 232.617 389.309 228.275L389.213 228.063C386.998 222.907 378.495 223.448 373.976 223.975C370.826 224.344 367.715 225.127 364.673 226.004C363.601 226.313 362.539 226.649 361.478 226.991L360.417 227.335C359.851 227.518 356.903 229.119 358.737 228.74C359.23 228.638 359.601 229.356 359.098 229.597C356.912 230.642 354.58 228.561 354.726 226.213C354.979 222.137 361.451 219.903 364.565 218.497L364.752 218.412C365.946 217.86 367.197 217.331 368.488 216.84C367.762 215.76 367.162 214.56 366.663 213.272C366.191 212.056 365.876 210.874 365.703 209.581C365.533 208.949 365.533 208.317 365.703 207.684L365.729 207.503C365.641 207.085 365.599 206.653 365.605 206.218L365.587 206.049H365.605C365.666 204.526 366.271 203 367.26 202.011ZM330.732 245.416C339.515 248.13 354.005 255.523 349.428 266.934C343.037 277.414 326.088 269.712 317.875 266.326C310.496 263.882 306.654 274.223 313.789 277.34C372.748 300.665 372.531 239.106 332.87 240.01C328.503 240.109 328.366 244.514 330.732 245.416ZM252.727 165.149L254.225 164.712C262.01 162.457 269.957 158.563 276.869 164.639C279.583 167.025 280.142 171.983 278.2 174.959C273.776 181.74 267.215 180.704 260.07 181.282C254.63 181.722 249.271 183.32 244.193 185.317C240.043 186.95 236.194 189.249 232.56 191.813C228.99 194.334 226.551 198.275 222.889 200.544C221.547 201.376 219.997 200.52 219.515 199.171C217.807 194.386 220.693 188.425 223.135 184.348C226.116 179.374 230.644 175.306 235.513 172.228C240.845 168.856 246.74 166.91 252.727 165.149ZM366.164 160C379.323 159.996 391.985 167.315 399.345 178.044C401.846 181.689 400.013 187.089 396.423 189.188C392.396 191.544 388.09 189.847 385.436 186.472L385.278 186.267C381.057 180.646 375.616 176.219 369.166 173.337C366.019 171.93 362.539 170.789 359.135 170.21L358.035 170.021C356.493 169.763 354.705 169.516 353.31 169.758C352.563 169.856 351.877 170.103 351.245 170.479C351.549 171.143 350.764 171.943 350.039 171.545C346.769 169.749 347.17 166.545 349.871 164.055C353.692 160.532 361.229 160.001 366.164 160Z" fill="black"/>
<path fill-rule="evenodd" clip-rule="evenodd" d="M385.132 376.724C381.642 375.582 378.214 374.253 374.77 372.972C357.161 364.127 335.89 362.523 317.423 369.972C308.359 373.628 299.907 380.197 290.812 384.502C288.652 385.308 286.474 386.04 284.272 386.654C282.922 386.184 281.572 385.684 280.232 385.184C270.585 381.548 261.511 377.063 252.701 372.129C251.761 370.806 250.786 369.52 249.738 368.285C256.113 367.38 262.355 365.876 268.002 364.324C285.342 359.574 301.682 351.834 318.962 346.874C335.052 342.244 352.512 339.714 368.672 345.464C376.342 348.194 383.092 352.974 390.552 356.194C394.412 357.854 399.042 359.484 403.552 359.724C400.642 366.694 396.962 373.204 391.932 378.624C389.632 378.134 387.352 377.444 385.132 376.724ZM422.653 322.132C421.109 323.415 414.737 327.555 412.67 330.023C412.136 329.82 411.605 329.612 411.077 329.398C410.168 328.282 408.829 327.792 407.464 327.822C397.935 323.39 389.452 317.127 381.882 309.274C376.502 303.704 370.992 297.874 363.802 294.644C355.332 290.824 347.002 292.584 338.102 293.164C328.632 293.794 319.282 291.104 309.822 292.394C302.902 293.344 296.422 296.274 290.822 300.404C279.392 308.834 271.512 320.674 261.852 330.884C250.892 342.464 237.412 349.864 222.422 353.644C222.242 353.524 222.052 353.404 221.862 353.294C210.812 343.294 200.832 332.004 192.002 319.974C183.382 308.224 160.652 255.334 155.162 250.694C152.882 248.764 150.382 247.934 147.992 248.004C143.662 248.104 139.662 251.114 137.872 255.854C134.832 263.914 136.352 274.334 136.592 282.764C136.892 293.084 137.572 303.394 138.652 313.664C139.722 323.814 141.142 333.934 142.912 343.984C143.802 349.064 144.792 354.134 145.882 359.184C146.222 360.774 146.652 362.194 147.172 363.514C147.702 366.004 148.272 368.484 148.882 370.944C152.862 387.054 159.142 403.184 171.132 415.074C183.612 427.464 200.572 435.694 216.322 443.054C231.322 450.064 247.042 456.294 263.172 461.174C277.182 467.524 292.182 472.544 307.242 475.184C323.822 478.094 341.252 478.274 357.262 472.514C365.132 469.684 372.572 465.734 379.322 460.814C388.892 455.844 397.502 449.014 404.552 439.974C417.179 423.773 423.206 404.112 425.843 383.839C426.518 378.65 429.056 358.762 429.255 355.666C429.9 345.667 430.544 335.668 431.189 325.668C431.493 320.949 425.701 319.602 422.653 322.132Z" fill="black"/>
<g clip-path="url(#clip0_384_8244)">
<path fill-rule="evenodd" clip-rule="evenodd" d="M428.564 216.283C420.587 280.772 364.899 287.904 355.005 223.882C356.593 223.051 357.735 221.415 357.496 218.239C357.44 204.287 361.064 189.541 371.595 181.782C382.478 173.776 395.214 172.982 407.808 173.184C431.84 172.5 431.335 196.507 428.564 216.283ZM346.287 188.236C338.744 187.856 329.202 188.174 322.446 193.666C320.588 187.688 315.762 181.305 310.885 177.892C329.011 178.526 347.668 176.394 365.929 174.739C361.558 178.3 357.491 183.65 354.848 189.835C352.396 188.272 348.883 188.418 346.287 188.236ZM313.041 223.12C292.127 309.156 239.923 271.656 234.231 260.63C223.965 242.384 222.034 198.03 230.976 186.171C243.777 175.447 261.898 178.207 277.019 177.944C304.8 178.392 324.53 188.324 313.041 223.12ZM453.259 183.549C447.577 182.661 441.504 182.482 436.221 185.472C434.595 177.209 429.488 170.301 423.722 167.261C423.024 166.215 423.129 165.653 420.745 165.81C406.106 160.552 389.726 163.334 375.659 168.726C353.442 170.962 330.133 172.725 307.729 175.806C286.742 164.542 223.407 162.891 219.471 190.654C214.52 189.769 206.088 185.112 201.928 191.429C171.412 185.246 139.879 193.839 109.23 197.666C101.516 199.364 97.5421 217.662 106.299 217.412C111.223 215.815 106.148 206.018 112.777 205.281C142.348 201.421 171.273 195.945 201.147 195.304C200.107 201.469 220.905 201.87 221.212 198.27C221.257 198.297 221.304 198.315 221.349 198.339C216.21 221.229 220.848 254.171 230.136 268.365C243.149 286.951 275.819 292.283 290.306 280.325C308.993 269.288 328.432 213.886 322.972 195.48C332.882 191.726 342.679 192.853 352.965 194.765C350.61 202.714 346.545 222.282 352.393 223.979C351.32 262.829 380.904 287.07 408.177 271.133C431.782 257.89 440.037 215.972 437.148 190.529C440.087 197.315 464.761 189.927 453.259 183.549Z" fill="black"/>
</g>
<defs>
<clipPath id="clip0_384_8244">
<rect width="328" height="138" fill="white" transform="translate(103 153)"/>
</clipPath>
</defs>
</svg>
