<svg width="383" height="464" viewBox="0 0 383 464" fill="none" xmlns="http://www.w3.org/2000/svg">
<path fill-rule="evenodd" clip-rule="evenodd" d="M357.066 159.221C348.016 121.067 328.229 85.5611 296.55 56.8659C201.222 -37.3801 26.159 13.7749 26.952 155.797C23.533 172.385 22.145 189.441 23.277 206.358C23.745 213.576 26.869 223.649 22.672 230.145C13.205 242.298 7.70297 251.256 10.925 267.422C13.617 281.537 23.223 291.537 36.187 296.853C43.962 299.084 51.339 303.944 54.219 311.352C71.525 343.036 84.346 369.39 111.629 390.983C118.669 396.542 190.875 429.884 214.666 429.884C284.317 429.884 372.103 404.654 373.56 326.854C373.812 309.766 370.813 292.479 368.932 275.526C364.353 236.838 365.969 196.749 357.066 159.221Z" fill="white"/>
<path fill-rule="evenodd" clip-rule="evenodd" d="M355.499 140.137C355.521 139.665 356.197 139.559 356.328 140.025C358.917 149.21 360.384 158.567 362.409 167.895C364.359 176.88 366.2 185.891 367.732 194.955C370.623 212.061 373.059 229.212 375.325 246.408L375.888 250.708C379.826 280.965 386.33 312.486 380.643 342.92C375.79 368.889 359.519 389.819 338.55 405.164C318.695 419.693 294.622 429.017 270.72 434.318C245.066 440.009 214.658 441.707 193.785 422.895C185.429 415.362 196.82 400.416 205.885 407.214C227.171 423.173 254.25 418.468 278.268 412.118L278.995 411.925C300.076 406.31 321.297 397.799 338.033 383.441C356.536 367.566 365.685 345.534 366.742 321.37C367.335 307.794 366.07 294.233 364.704 280.737L364.552 279.238C362.985 263.804 361.341 248.377 359.824 232.937C358.44 218.857 357.246 204.696 356.615 190.554L356.32 183.421C355.707 169.04 354.881 154.449 355.499 140.137ZM105.857 20.6449C140.495 2.61186 180.303 -3.84214 218.851 2.20986C255.909 8.02786 289.919 27.1499 315.34 54.5689C327.751 67.9559 338.767 83.4409 345.807 100.358C349.304 108.762 352.042 117.529 353.5 126.533C354.25 131.162 354.987 135.958 355.128 140.651C355.258 144.996 353.982 149.071 354.133 153.488C354.156 154.179 353.097 154.312 352.936 153.65C351.732 148.725 348.831 145.001 347.011 140.323C345.65 136.83 344.107 133.42 342.536 130.02L341.187 127.107C337.269 118.64 332.586 110.521 327.953 102.431C318.624 86.1369 306.654 71.3289 292.638 58.8339C268.029 36.8959 236.458 22.7349 203.507 20.1849C169.306 17.5369 134.616 25.6889 105.408 43.7469C76.2017 61.8039 54.1177 89.8739 42.6517 122.193C36.8667 138.502 33.6717 155.495 32.9287 172.773C32.5527 181.519 32.9037 190.338 33.5167 199.067L33.8212 203.229C34.178 208.221 34.4226 213.194 33.6767 218.065C38.9447 216.422 44.4667 215.741 50.0087 216.554C58.2437 217.762 63.1637 221.138 66.8577 228.496C67.0507 228.88 66.6637 229.264 66.2807 229.073C61.4917 226.683 53.7437 227.941 48.6717 229.194C43.3937 230.498 38.6397 232.766 34.1547 235.832C25.8577 241.501 19.3537 250.286 17.7577 260.365C16.2147 270.101 20.2117 279.959 26.9257 286.937C30.3817 290.531 34.5127 293.638 39.1377 295.574C44.7507 297.925 50.3067 297.852 55.2727 301.733C58.3427 304.132 57.6007 308.237 55.5187 310.901C65.9957 322.389 75.2867 334.957 85.7627 346.49C90.6187 351.836 95.436 357.188 100.089 362.706L101.826 364.783C106.472 370.39 113.864 376.313 115.987 383.365C117.308 387.752 112.61 393.49 107.861 391.491C100.576 388.424 95.3759 380.443 90.4534 374.322L90.1327 373.926C84.9707 367.583 80.3877 360.887 76.1977 353.87L74.82 351.558C67.2434 338.816 59.7319 325.6 54.9007 311.602C54.5817 311.93 54.2437 312.229 53.8877 312.482C46.9277 317.431 36.8097 313.626 29.8587 310.412C23.2967 307.379 17.2807 302.815 12.5917 297.314C2.39373 285.352 -2.30726 269.86 1.09874 254.335C3.98374 241.184 13.0987 228.392 25.0487 221.74C19.5327 215.39 17.2487 206.83 15.7287 198.461C13.7887 187.778 13.4017 176.83 13.9287 165.997C14.9797 144.42 20.5327 123.151 29.1167 103.393C44.4747 68.0399 71.6267 38.4679 105.857 20.6449ZM32.9554 256.556C40.2254 255.194 47.0004 254.865 54.0124 257.941C61.6184 261.28 66.9714 266.792 71.9474 273.25C77.6092 280.596 63.0986 288.621 59.4399 278.869L59.3324 278.568C58.3524 275.681 56.5974 272.89 54.3744 270.321C53.7074 271.343 52.8154 272.243 51.7674 272.758C50.4984 273.382 48.5604 272.95 48.2554 271.329C47.9174 269.53 48.2914 267.35 49.3294 265.827L49.4714 265.619C44.4274 261.56 38.3604 258.595 32.9554 257.641C32.4154 257.545 32.4214 256.656 32.9554 256.556Z" fill="black"/>
<path fill-rule="evenodd" clip-rule="evenodd" d="M185.162 326.672C192.415 325.272 201.438 328.322 208.671 329.658L209.21 329.755C217.981 331.287 226.733 333.139 235.601 334.043C244.067 334.908 252.713 335.063 261.18 334.09C265.246 333.622 269.277 332.826 273.227 331.758C274.917 331.301 276.593 330.791 278.249 330.225L278.436 330.154C279.653 329.651 282.943 327.759 282.904 328.813C283.829 327.746 285.103 326.989 286.502 326.621C288.476 326.102 291.01 326.589 292.662 327.985C294.811 326.283 298.035 327.504 299.476 329.542C301.947 333.037 301.143 337.134 300.824 341.189L300.797 341.546C300.526 345.368 300.111 349.164 299.599 352.958L299.373 354.583C298.576 360.194 298.357 369.448 291.558 371.287C286.181 372.743 281.26 367.21 277.794 362.819L275.896 360.387C273.649 357.536 271.609 354.601 269.965 351.36C269.216 349.885 268.492 348.374 267.865 346.843C267.786 346.65 267.728 346.477 267.668 346.303C257.696 347.645 247.488 347.453 237.49 346.135C231.16 345.3 224.924 344.094 218.782 342.474L216.011 347.483C212.768 353.324 209.479 359.147 206.022 364.856L205.754 365.291C202.518 370.44 197.099 375.597 190.692 371.74C184.959 368.288 184.715 360.436 184.111 354.577C183.708 350.663 183.381 346.723 183.224 342.787L183.167 341.101C183.064 337.285 182.443 332.862 183.91 329.293C184.123 328.773 184.87 328.373 185.32 328.92C188.385 332.646 189.312 338.421 190.636 342.994C192.11 348.082 194.245 353.639 195.011 358.917L195.225 358.545C195.98 357.112 196.749 355.686 197.523 354.262L199.843 349.991C201.924 346.135 204.043 342.303 206.181 338.48C203.74 337.563 201.321 336.578 198.912 335.576L193.445 333.29C190.322 331.971 187.138 330.482 184.79 328.082C184.374 327.657 184.519 326.795 185.162 326.672ZM288.88 340.76C283.493 342.95 277.921 344.53 272.248 345.578C272.614 345.953 272.979 346.328 273.319 346.722C274.654 348.267 276.07 349.751 277.495 351.219L278.35 352.097C280.532 354.336 283.81 358.023 287.155 360.166L287.336 359.199C287.366 359.032 287.389 358.887 287.401 358.775L287.757 355.594C287.815 355.064 287.871 354.533 287.924 354.002C288.212 351.133 288.441 348.258 288.681 345.385C288.807 343.871 288.837 342.316 288.88 340.76ZM225.13 155.893C237.96 150.413 253.187 153 264.238 161.278C275.546 169.749 280.491 183.521 281.145 197.261C290.088 189.625 302.967 195.405 310.499 202.56C319.191 210.817 323.587 223.278 321.561 235.104C319.542 246.89 311.013 257.288 299.474 260.793C293.953 262.47 287.8 262.508 282.246 260.948C280.36 260.417 278.049 259.595 275.914 258.45C276.036 258.94 276.16 259.431 276.276 259.92C279.047 271.649 280.618 284.833 276.46 296.432C269.777 315.071 246.04 325.505 231.22 308.961C225.401 302.466 220.878 292.294 221.23 283.439C221.415 278.786 224.051 273.403 229.493 273.718C233.713 273.961 235.714 277.493 234.634 281.23L234.568 281.446C232.28 288.591 236.186 298.915 241.845 303.788C250.523 311.261 262.432 304.758 267.177 295.995C272.707 285.782 272.034 272.688 270.266 261.577C268.53 250.667 264.659 240.688 260.55 230.593C260.114 230.672 259.672 230.745 259.22 230.806C251.048 231.915 234.421 232.333 225.392 226.413C226.362 235.55 224.459 244.956 219.268 252.693C213.484 261.315 204.77 265.878 194.628 267.276C184.778 268.636 173.36 268.911 163.635 266.577C142.926 261.607 135.624 236.04 141.887 217.584C145.592 206.667 155.93 196.848 167.421 194.368C173.341 190.474 181.29 189.321 188.122 189.852C198.326 190.647 208.376 195.056 215.21 202.799C217.821 205.757 219.968 209.106 221.623 212.69C222.179 212.252 222.827 211.923 223.559 211.751C224.702 211.483 225.702 211.423 226.82 211.817C227.377 212.014 228.18 212.71 228.663 213.162L229.766 214.458C231.119 216.034 232.406 217.357 234.814 218.337C241.528 221.07 250.634 221.663 257.767 221.104C275.967 219.68 273.675 195.573 269.192 183.188C263.882 168.516 248.662 159.389 233.178 161.995C226.525 163.114 220.178 166.655 215.308 171.282C209.872 176.448 207.544 182.688 204.283 189.227C204.09 189.614 203.424 189.53 203.341 189.103C200.661 175.315 213.369 160.917 225.13 155.893ZM128.194 267.055C127.641 266.406 128.367 265.265 129.159 265.803C134.96 269.744 141.411 272.588 148.424 273.357C151.718 273.717 155.038 273.742 158.319 273.237C161.114 272.805 163.633 271.953 166.423 272.723C167.908 273.133 168.178 274.856 167.271 275.936C163.056 280.953 152.679 279.613 147.021 278.268C139.704 276.53 133.071 272.785 128.194 267.055ZM323.405 257.895C326.253 256.13 329.643 259.625 327.959 262.448C323.635 269.691 311.102 270.281 303.831 268.547C303.262 268.413 303.392 267.52 303.968 267.536C308.147 267.639 311.924 266.836 315.524 264.656C318.6 262.793 320.435 259.735 323.405 257.895ZM184.443 199.996L183.872 200.001C177.224 200.108 171.136 202.643 164.73 203.983C164.199 204.095 163.666 204.038 163.185 203.862C155.383 209.067 150.005 217.251 149.275 228.02C148.769 235.479 150.59 243.606 155.019 249.727C160.06 256.694 168.181 257.769 176.178 257.976L176.991 257.995C192.109 258.29 208.741 257.397 214.13 240.495C218.118 227.986 213.859 212.8 202.75 205.307C197.355 201.668 190.911 199.99 184.443 199.996ZM306.242 208.967L305.798 208.449C299.869 201.646 290.467 195.45 281.198 198.876L281.225 200.022C281.228 200.213 281.23 200.404 281.23 200.595C281.202 213.733 276.111 225.994 263.598 229.849C266.955 234.638 269.652 239.952 271.812 245.467C272.574 244.969 273.501 244.653 274.577 244.544C278.982 244.098 281.506 248.235 285.326 249.778C288.902 251.224 292.958 251.597 296.733 250.85C304.991 249.217 310.785 242.096 312.815 234.194C315.11 225.261 312.078 215.896 306.242 208.967ZM180.534 220.024C183.288 215.372 190.082 216.045 192.805 220.146L192.935 220.351L192.964 220.313C197.5 226.191 195.308 235.475 188.722 238.78C183.439 241.429 176.72 240.734 173.208 235.577C172.421 234.421 171.916 233.061 171.731 231.684C171.605 230.747 171.677 229.811 171.887 228.88L171.834 229.098C171.938 228.628 172.103 227.891 172.146 227.716C172.61 225.82 173.723 223.786 175.116 222.413C176.551 220.999 178.544 220.139 180.534 220.024ZM293.702 215.192C296.141 215.192 298.305 216.212 300.067 217.829C302.573 220.13 302.922 223.442 302.381 226.585C302.215 227.544 301.987 228.471 301.748 229.415L301.543 230.269C301.507 230.41 301.468 230.551 301.424 230.69C301.274 231.275 301.035 231.812 300.751 232.326C299.708 236.209 295.485 238.137 291.762 237.29C290.01 236.891 288.263 235.437 287.371 233.913C287.077 233.411 286.871 232.911 286.725 232.409L286 230.69C285.864 230.278 285.779 229.836 285.67 229.415C285.427 228.472 285.193 227.543 285.024 226.585C284.449 223.337 284.907 220.259 287.338 217.829C288.97 216.196 291.395 215.192 293.702 215.192ZM239.98 181.508C244.213 180.94 248.524 182.912 250.713 186.651C252.615 189.901 252.607 194.274 250.713 197.524L250.553 197.799C247.064 203.785 238.927 204.553 234.032 199.928L233.795 199.704C230.647 196.731 229.938 191.8 231.568 187.938C233.058 184.406 236.182 182.019 239.98 181.508Z" fill="black"/>
<path fill-rule="evenodd" clip-rule="evenodd" d="M297.167 415.834C264.765 420.183 241.312 419.284 226.808 413.138C205.118 403.949 184.02 395.057 164.344 382.884C144.187 370.413 127.085 355.603 114.877 336.646C103.523 319.008 94.0846 300.291 84.5808 281.719C84.0255 280.634 78.5698 269.844 76.6428 266.226C73.6756 260.616 65.001 262.377 65.001 271.086C65.001 279.794 64.577 345.746 81.2414 371.689C96.2744 395.121 121.753 411.493 147.067 425.783C175.074 441.584 212.279 458.664 245.695 463.177C275.937 467.257 310.448 455.797 332.346 436.907C355.24 417.151 361.722 390.312 373.536 364.609C376.175 358.865 366.82 355.4 364.076 361.05C360.631 368.143 338.328 386.404 297.167 415.834Z" fill="black"/>
</svg>
