<svg width="442" height="505" viewBox="0 0 442 505" fill="none" xmlns="http://www.w3.org/2000/svg">
<path fill-rule="evenodd" clip-rule="evenodd" d="M259.801 7.70703C304.573 7.70703 358.291 29.4116 362.858 29.8457L362.981 29.8523C365.384 29.8523 374.773 37.0055 391.149 51.312L373.412 85.906L374.848 87.2765C381.716 93.8619 387.58 99.8642 392.208 104.596C430 143.23 436.792 294.92 427.886 347.819C418.98 400.718 402.484 452.481 325.685 452.481C248.887 452.481 163.447 406.304 150.285 391.923C141.511 382.337 131.655 377.744 120.718 378.145C120.268 377.577 119.822 377.012 119.38 376.448L117.771 376.22C102.634 374.028 91.7876 371.077 85.2329 367.369C72.4297 360.125 58.3575 322.046 58.3575 313.658C58.3575 305.353 37.3447 244.941 36.9245 238.548L36.9181 238.371C36.9181 233.026 9.46702 208.459 9.46702 200.657C9.46702 192.854 3.9338 193.328 9.46702 165.834L11.0746 157.757C16.9628 128.485 28.4876 80.0134 72.4297 58.9512C120.718 35.8059 214.578 7.70703 259.801 7.70703Z" fill="white"/>
<path fill-rule="evenodd" clip-rule="evenodd" d="M64.9759 57.8635C89.0586 32.3017 225.78 -7.23636 294.952 1.14476L297.027 1.41346C302.547 2.11346 307.987 3.17347 313.356 4.61347C330.71 8.66647 348.636 14.8035 362.975 25.0545C374.946 33.4405 412.709 47.1355 401.579 69.0735C405.706 76.8925 407.246 86.5525 404.457 94.2535C404.106 96.9135 403.286 99.3635 402.237 101.903C411.054 114.914 418.035 129.628 423.686 143.623C433.561 178.844 439.706 215.498 440.606 251.433C443.6 319.705 436.114 401.256 376.652 445.404C340.731 473.379 284.463 474.319 244.096 439.633C241.805 436.922 231.032 429.606 234.627 428.323C235.697 429.453 236.797 430.553 237.917 431.633C237.866 431.513 237.856 431.393 237.877 431.263L236.823 430.309C234.84 428.474 232.27 425.813 235.197 426.333C235.326 426.483 235.467 426.613 235.606 426.763C236.226 427.135 236.694 427.458 237.059 427.742L237.246 427.892L237.188 427.832C235.502 426.034 234.491 424.2 237.012 425.371L237.346 425.533C238.467 426.713 239.606 427.843 240.766 428.943C240.747 428.813 240.766 428.683 240.837 428.543L239.755 427.499C238.7 426.464 238.861 426.46 239.377 425.623C237.133 422.478 241.322 424.346 241.616 425.573C244.237 424.953 246.538 429.873 248.226 430.473C322.225 487.363 429.612 436.884 427.873 278.359L427.846 275.258C427.338 224.568 423.072 172.469 402.106 126.583C400.067 122.163 397.786 117.863 395.277 113.703C393.547 110.583 391.697 107.543 389.707 104.583C384.136 104.133 378.636 103.113 373.217 101.533C371.356 101.063 369.516 100.543 367.677 99.9335C340.797 101.399 314.516 102.994 287.561 104.506L279.141 105.031C256.307 106.499 232.692 108.85 214.266 122.973C196.186 135.831 196.104 161.186 180.627 175.303C158.557 190.282 158.396 203.789 154.146 225.863C154.461 242.503 165.999 266.68 144.826 273.683C148.398 278.776 143.419 276.329 143.027 274.543C142.987 274.553 142.947 274.563 142.917 274.563C146.1 280.48 141.421 276.754 141.007 274.853C140.757 274.783 140.507 274.603 140.257 274.353C143.464 279.537 138.28 275.907 138.587 274.963C132.39 265.438 119.636 263.959 110.646 266.483C110.536 266.823 110.137 266.853 109.887 266.673C71.6599 274.957 81.5229 354.093 120.697 346.443C122.374 346.101 122.334 346.906 122.667 346.983C121.762 344.607 124.313 345.574 124.286 346.073L124.441 346.066C124.564 346.055 124.514 346.042 124.606 346.073C123.731 341.214 128.655 348.254 128.266 348.543C128.417 348.453 128.587 348.403 128.737 348.383L128.567 347.922C127.75 345.745 127.82 346.65 127.826 345.403C127.212 343.862 127.167 344.536 127.311 343.532C129.469 341.86 130.106 346.932 130.826 347.303C129.592 345.583 130.573 344.178 131.737 345.112C140.56 363.67 151.957 381.107 166.686 394.843C168.297 396.113 169.927 397.363 171.616 398.543C177.881 404 187.491 407.509 193.356 412.343C193.356 412.423 193.317 412.523 193.257 412.623L193.391 412.745L193.527 412.873L195.567 413.853C196.167 414.363 196.707 414.933 197.186 415.563C197.697 416.153 198.146 416.803 198.527 417.493C198.717 418.333 198.297 418.683 197.497 418.323C197.146 418.203 196.797 418.063 196.447 417.933C196.467 417.963 196.476 417.983 196.497 418.003C196.612 418.177 197.388 419.978 196.493 419.685L196.387 419.643C195.896 419.463 195.407 419.263 194.927 419.073C195.497 419.783 196.016 420.553 196.476 421.203C196.967 421.713 197.266 422.313 197.387 422.993C197.366 423.373 197.157 423.533 196.777 423.483C196.197 423.293 195.627 423.093 195.056 422.883L195.218 423.193C195.622 423.987 196.195 425.318 195.177 424.873C194.306 424.603 193.467 424.293 192.627 423.953C192.556 424.093 192.417 424.143 192.137 424.013C189.467 423.063 186.887 421.903 184.417 420.533C182.247 418.953 180.056 417.403 177.877 415.833C175.826 414.603 173.846 413.233 171.957 411.693C159.311 403.525 148.24 393.149 139.457 381.593C124.768 394.314 95.3989 382.161 77.2319 372.203C61.1629 363.303 54.8469 346.847 53.2139 329.105C49.8189 305.219 30.2989 297.043 31.6569 244.633C31.6269 244.643 31.5959 244.643 31.5559 244.643C30.8459 244.433 30.1569 244.153 29.5069 243.793C28.8369 243.473 28.2069 243.093 27.6159 242.633L26.8859 241.623C26.5069 241.413 26.1669 241.193 25.9069 240.973L25.772 241.147C25.3452 241.662 25.6321 240.887 25.6569 240.733L24.3887 239.009C21.3818 234.904 18.083 230.297 15.3959 226.613L15.3112 226.763C15.2504 226.876 15.2183 226.958 15.2469 226.993C8.85186 217.805 2.83786 206.707 1.16686 195.963C-0.806141 187.687 -0.0351404 179.159 1.68586 171.493C9.06486 144.648 33.2369 83.9005 64.9759 57.8635ZM238.524 429.116L238.123 428.76L238.475 429.201C238.66 429.429 238.849 429.634 239.157 429.843C239.137 429.773 239.137 429.703 239.146 429.623C238.942 429.468 238.733 429.297 238.524 429.116ZM294.646 14.6335C247.738 10.6005 201.601 20.9345 156.839 33.4435L153.751 34.331C128.299 41.5935 101.386 48.1287 79.8769 63.6735C49.8259 86.6905 34.3079 123.306 20.7659 157.113C8.94086 182.231 14.9859 210.554 32.8059 228.093C34.6599 210.664 37.8209 193.745 42.7609 176.962C43.7919 174.34 43.0119 173.481 45.2339 173.139C48.5899 218.367 32.0609 251.783 64.7709 305.385C78.9639 330.677 62.5339 349.183 102.614 362.492L103.699 362.907C112.049 366.058 121.167 368.545 129.346 366.783L128.613 365.592C127.866 364.364 127.639 363.768 128.726 363.243C128.697 363.183 128.657 363.123 128.616 363.053C127.737 361.393 126.887 359.713 126.076 358.013C125.747 358.123 125.417 358.203 125.076 358.293C125.297 358.703 125.326 359.113 124.707 359.253C122.503 360.009 120.24 360.312 117.924 360.171L117.427 360.133C114.81 359.973 113.161 359.496 111.686 359.053C111.197 358.973 110.707 358.893 110.226 358.793C105.481 357.741 100.458 355.065 97.2069 352.413C60.1489 331.365 63.9789 259.716 109.657 252.943C110.594 207.831 132.051 131.723 167.661 88.7365C199.849 49.1955 287.723 32.0575 348.859 38.1005C349.75 38.3955 350.641 38.6935 351.532 38.9945C360.964 39.8325 369.953 44.0345 379.392 45.9865C372.615 40.9075 364.927 37.5245 357.008 34.6495C341.23 24.9985 323.142 19.7765 305.667 16.0935C302.047 15.2035 298.377 14.7135 294.646 14.6335ZM107.566 289.183C110.022 287.849 109.741 289.137 110.306 288.763C127.972 287.322 147.021 302.789 156.896 315.683C156.116 316.493 154.006 314.093 153.636 313.713C153.586 313.763 153.526 313.803 153.466 313.823L153.741 314.211C157.744 319.955 149.809 313.196 149.066 311.803C148.936 311.873 148.806 311.913 148.656 311.883C149.285 312.5 151.206 314.109 151.536 315.253L152.045 315.677C156.848 319.79 156.449 322.883 150.997 317.043C151.126 317.313 151.176 317.563 151.086 317.763L151.274 317.888C153.955 319.762 156.16 324.985 150.556 319.623C151.139 323.539 145.003 315.97 144.806 316.023C134.188 307.688 118.555 299.582 105.236 298.493L104.778 298.441C102.334 298.127 101.178 297.401 102.036 295.803C99.0262 295.087 99.7312 293.605 101.156 293.653C99.0332 292.257 100.944 290.922 102.176 291.443C101.329 289.098 104.726 290.66 105.036 290.333C106.799 287.614 107.274 289.882 107.566 289.183ZM70.5363 143.833C79.0213 140.725 104.084 150.029 102.079 162.351C100.885 165.18 96.9513 166.801 94.1863 165.204L90.5774 162.781C84.2971 158.575 78.633 154.887 71.8903 151.218C68.2203 149.397 66.6403 145.531 70.5363 143.833ZM118.811 125.522L115.534 123.39C97.8503 111.816 72.8511 94.2793 117.186 112.423C122.239 114.59 128.953 115.872 131.71 120.684C136.041 129.553 124.643 130.149 118.811 125.522ZM120.798 73.5932C119.379 68.2082 137.036 74.5272 142.176 76.1932L142.959 76.4889C147.959 78.3519 153.691 80.0803 156.681 84.3952C160.185 90.3572 153.093 91.5922 148.7 88.8992C139.693 83.0132 129.818 78.5722 120.798 73.5932ZM165.699 48.5083C155.76 37.6549 182.359 48.0521 186.343 50.9381L186.457 51.0233C189.43 53.1163 188.827 57.6243 186.034 58.9483C178.087 59.0993 172.239 52.4753 165.699 48.5083ZM210.925 36.6171C195.125 25.2621 215.938 30.6631 223.167 35.1131C228.094 39.4581 223.019 46.7931 210.925 36.6171Z" fill="black"/>
<path fill-rule="evenodd" clip-rule="evenodd" d="M257.284 346.22C257.39 335.202 266.938 333.302 276.008 334.771C291.363 337.255 306.775 339.003 322.338 339.318L325.02 339.365C325.452 338.735 326.174 338.257 327.154 338.152C335.781 337.22 344.594 337.371 353.268 337.115C360.835 336.893 368.611 336.136 376.177 336.73L376.779 336.783C386.026 337.678 395.784 342.398 394.668 353.25C393.641 363.299 384.035 372.195 376.364 377.779C374.813 378.898 373.227 379.947 371.595 380.903C371.083 381.556 370.336 382.011 369.473 382.104C361.919 386.184 353.584 388.598 344.956 389.402C326.664 391.104 305.399 389.262 287.83 381.335C282.118 378.758 276.79 375.54 272.08 371.588C264.817 365.491 257.204 356.246 257.284 346.22ZM329.357 368.067C322.024 367.846 314.703 368.872 307.719 371.134C302.986 372.661 298.672 375.598 294.137 377.639C309.421 383.468 327.177 384.739 342.857 383.678C349.736 383.212 356.405 381.626 362.619 378.898C361.651 378.199 360.671 377.488 359.645 376.869C356.545 374.992 353.303 373.395 349.922 372.124C343.336 369.653 336.387 368.289 329.357 368.067ZM331.815 271.717C329.836 270.297 331.406 265.593 335.634 266.32C374.031 272.917 354.136 339.058 305.112 302.763C299.276 298.054 306.344 287.684 312.634 291.716L314.868 293.438C322.13 299.004 334.142 307.419 342.748 298.389C350.872 287.01 339.366 276.307 331.815 271.717ZM357.809 221.659C365.971 214.695 376.208 219.827 382.217 226.881L383.277 228.142C384.479 229.581 385.81 231.257 386.61 233.049C393.269 227.379 402.299 223.389 410.94 225.979C419.32 228.5 424.099 236.5 422.66 245.089C421.027 254.856 413.637 261.421 405.696 266.497L403.444 267.927C393.902 274.01 384.973 280.138 377.12 288.5C375.839 289.859 373.07 289.679 372.23 287.87L371.553 286.414L370.87 284.959C365.299 273.08 359.33 261.279 354.429 249.12C350.799 240.109 349.62 228.639 357.809 221.659ZM264.766 227.967L266.009 226.53C271.989 219.57 282.119 214.91 290.11 221.66C298.619 228.85 296.949 240.74 293.159 249.91C288.595 260.97 283.265 271.786 278.143 282.634L277.049 284.96C276.589 285.93 276.139 286.9 275.69 287.87C274.849 289.68 272.07 289.86 270.799 288.5C263.19 280.4 254.581 274.406 245.386 268.516L242.61 266.75C234.539 261.63 226.909 255.02 225.249 245.09C223.829 236.52 228.579 228.47 236.969 225.979C245.629 223.41 254.639 227.37 261.309 233.05C262.104 231.212 263.473 229.481 264.766 227.967ZM275.708 178.035C278.629 181.827 275.51 188.024 271.245 189.004C265.963 190.219 260.627 189.48 255.441 190.987C250.689 192.368 246.137 195.135 242.064 197.893C237.419 201.037 233.141 204.547 229.21 208.546C226.872 210.925 223.926 216.561 220.32 216.666C216.735 216.771 221.547 205.56 221.945 204.59C224.772 197.685 228.743 191.331 233.71 185.765C243.511 174.782 264.268 163.193 275.708 178.035ZM385.159 175L387.606 175.68C393.66 177.363 400.123 179.431 405.317 183.06L405.725 183.349L406.353 183.809C412.874 188.67 422.097 198.37 417.479 206.832C417.16 207.415 416.484 207.473 415.94 207.235C409.796 204.544 405.241 199.17 398.706 196.922L397.5 196.511C391.171 194.379 383.341 192.138 376.529 192.342C371.739 193.899 365.27 192.609 364.023 186.779L363.967 186.493L363.859 185.889C363.141 181.905 364.209 176.826 368.328 174.906C373.972 172.276 379.478 173.446 385.159 175Z" fill="black"/>
<path fill-rule="evenodd" clip-rule="evenodd" d="M352.994 361.311C343.681 353.014 333.242 336.334 319.863 349.532C316.554 353.261 315.214 361.621 310.154 363.261C303.434 365.441 296.774 358.331 294.484 352.871C285.114 322.534 323.848 314.213 345.914 319.114C356.694 323.541 364.634 341.361 365.114 350.661C365.424 356.911 360.134 366.101 352.994 361.311ZM423.254 314.551C423.163 314.148 423.036 313.784 422.883 313.453C418.764 311.896 415.505 313.484 413.491 316.45C413.557 317.187 413.777 317.934 413.916 318.665C412.362 321.939 410.96 325.99 408.854 328.819C408.438 328.851 408.007 328.807 407.593 328.687C372.68 332.333 389.725 295.804 354.314 286.731C326.941 282.215 277.467 287.388 264.554 315.879C254.37 361.387 202.587 329.677 185.585 306.01C167.444 284.471 155.714 258.151 144.404 232.611C142.014 227.206 134.555 231.071 135.366 236.257C124.912 257.228 125.26 282.418 122.671 305.392C118.267 351.227 113.976 415.505 156.563 443.492C212.05 506.209 350.608 528.341 414.606 470.715C436.76 423.085 434.029 364.978 423.254 314.551Z" fill="black"/>
</svg>
