<svg width="817" height="498" viewBox="0 0 817 498" fill="none" xmlns="http://www.w3.org/2000/svg">
<path fill-rule="evenodd" clip-rule="evenodd" d="M529.581 265.192C529.183 242.79 528.743 219.94 525.413 197.756C522.157 176.068 513.2 156.464 497.808 140.715C465.115 107.262 417.725 99.0914 373.613 91.6034L298.194 78.8004C275.185 74.8954 250.638 68.6534 227.391 74.1914C215.936 76.9204 206.208 83.2604 197.317 90.7614C188.747 97.9914 179.533 105.755 173.726 115.482C167.909 125.223 165.908 136.61 164.017 147.627C161.884 160.048 160.227 172.566 159.05 185.114C156.691 210.254 156.369 235.583 158.08 260.775C158.909 272.994 160.228 285.178 161.912 297.308C162.747 303.323 163.691 309.323 164.757 315.302C165.071 317.065 165.31 319.017 165.632 320.989C163.253 327.755 161.901 334.762 162.01 341.739C162.331 362.291 179.678 375.23 197.166 382.177C207.306 386.205 217.907 388.942 227.87 393.442C238.351 398.175 245.485 405.848 252.651 414.601C266.318 431.295 281.741 446.299 299.352 458.817C336.69 485.358 383.982 497.911 429.286 488.383C440.156 486.097 451.122 482.547 460.893 477.198C471.209 471.551 478.966 463.368 485.48 453.693C497.575 435.732 506.249 415.507 512.811 394.926C519.504 373.932 524.255 352.9 526.846 331.009C529.428 309.189 529.972 287.147 529.581 265.192Z" fill="white"/>
<path fill-rule="evenodd" clip-rule="evenodd" d="M288.911 0.764309C320.121 -3.52869 363.198 10.4243 378.741 38.5583C452.947 21.0643 546.54 20.4913 607.701 78.7283C671.52 147.81 591.36 238.895 538.207 259.431C542.077 278.238 536.043 398.723 493.348 452.466C459.464 498.002 380.557 519.017 344.044 464.628L343.759 464.18C339.848 457.898 343.217 458.1 347.232 462.772C382.986 494.214 431.599 494.751 469.06 461.569C539.268 400.919 532.029 252.209 498.621 166.178C403.491 155.73 301.637 184.563 235.932 256.172L240.375 282.92C241.132 287.477 241.992 292.03 242.648 296.603C243.068 299.533 243.115 302.447 241.085 304.819C234.382 312.649 223.085 300.883 213.79 296.203C211.046 295.817 208.297 295.668 205.601 295.858C160.943 301.61 169.742 388.24 218.824 373.055C222.948 370.486 226.491 371.27 228.091 374.998C239.79 385.714 247.504 404.826 266.941 423.234C273.799 430.139 280.04 435.916 287.754 441.455C292.285 446.037 305.957 450.709 301.623 458.55C293.427 476.392 245.096 420.347 236.551 404.848C209.778 415.42 180.108 411.829 152.363 409.245C5.99329 401.635 25.5333 247.345 145.509 149.934C168.093 133.308 193.01 119.745 218.911 109.308C222.447 107.883 220.902 102.077 217.316 103.522C200.178 110.429 183.471 118.65 167.545 128.165L167.521 122.477C167.498 112.895 167.648 102.92 169.312 94.1663C170.144 88.1003 171.543 81.6213 173.697 76.7473C176.36 61.8043 218.075 10.5123 288.911 0.764309ZM203.648 315.747C205.908 313.6 210.127 316.16 212.139 316.096C217.284 316.8 222.172 318.973 225.984 321.655C228.501 323.065 230.265 324.389 231.739 325.607L231.779 325.596C231.768 325.596 231.754 325.607 231.742 325.61L231.881 325.704C234.027 327.229 241.884 335.818 236.92 333.508C236.55 333.027 236.171 332.565 235.789 332.112C235.748 332.174 235.691 332.235 235.623 332.294L235.902 332.708C240.121 339.054 232.837 332.368 231.716 330.592C231.663 330.635 231.603 330.664 231.544 330.695L233.003 332.471C233.207 332.723 233.368 332.925 233.501 333.095L233.809 333.392C238.687 338.187 238.839 342.502 233.172 335.413C233.395 335.747 233.574 336.101 233.599 336.415L233.935 336.843C238.384 342.577 234.765 340.541 232.554 338.092L232.369 337.881L232.407 337.938C234.464 341.107 230.383 338.884 229.661 337.189L229.631 337.112C228.845 336.471 228.361 335.751 228.196 335.569L228.165 335.539C224.339 331.619 218.793 328.302 214.082 326.795C213.399 326.665 212.708 326.561 212.01 326.487C209.177 325.855 206.313 325.422 203.419 325.188C203.065 325.146 202.706 324.886 202.438 324.55C198.062 324.402 199.413 322.609 201.228 322.275L201.26 322.27L200.9 322.24C198.091 321.966 196.173 320.958 199.013 320.339L199.373 320.268C199.329 320.199 199.29 320.13 199.252 320.061C196.82 319.794 198.407 317.43 199.757 318.002C199.189 316.145 201.785 317.072 202.109 316.796C202.356 316.522 202.663 316.28 202.84 316.267C203.622 315.715 203.243 315.765 203.648 315.747ZM218.528 285.681L217.958 286.014C217.497 286.283 217.023 286.462 216.547 286.567C217.219 286.853 217.883 287.162 218.54 287.492C218.53 287.089 218.522 286.686 218.522 286.284L218.528 285.681Z" fill="black"/>
<path fill-rule="evenodd" clip-rule="evenodd" d="M426.085 413.67C419.694 413.722 412.508 411.324 407.704 409.446L406.451 408.949C402.292 407.284 398.02 405.372 394.835 402.163C393.816 401.12 392.732 399.94 392.181 398.699C391.858 397.972 391.724 397.219 392.036 396.472C393.188 396.359 394.279 396.211 395.313 396.022C395.806 395.932 396.277 395.839 396.639 395.837C397.972 395.828 399.29 395.998 400.607 396.164C400.798 396.188 400.989 396.212 401.18 396.236C402.205 396.363 403.226 396.5 404.245 396.637C407.208 397.035 410.156 397.43 413.163 397.573C415.333 397.678 417.609 397.556 419.906 397.431C425.861 397.107 432.018 396.664 436.607 400.835C437.809 401.928 438.311 403.304 438.311 404.706C438.311 406.409 437.594 408.143 436.5 409.504C434.023 412.584 430.211 413.636 426.085 413.67ZM460.938 359.95C458.157 364.122 453.525 366.804 447.177 366.513C434.56 365.936 419.503 361.176 408.936 354.293C406.184 352.501 404.4 349.636 404.08 346.566L403.51 341.106L400.434 345.653C400.113 346.127 399.79 346.599 399.467 347.072C398.576 348.374 397.686 349.675 396.846 351.009C393.622 356.132 390.667 361.305 387.984 366.73C386.084 370.572 384.695 374.869 383.302 379.204C380.95 386.524 378.679 393.722 373.654 398.867C372.895 399.645 371.727 399.923 370.658 399.786C369.716 399.664 368.793 399.202 368.34 398.282C362.337 386.074 370.411 371.363 376.961 361.136L377.654 360.068C383.727 350.826 393.647 338.595 405.007 336.933L406.307 339.007L408.198 337.746C411.291 335.683 415.373 335.779 418.947 337.393L422.521 339.006C429.174 341.991 435.737 344.746 442.935 346.255C443.46 346.365 443.984 346.468 444.507 346.563C445.001 346.653 445.498 346.737 445.997 346.815C445.89 346.325 445.775 345.836 445.659 345.349C445.538 344.834 445.415 344.317 445.283 343.802C445.147 343.27 445.002 342.742 444.857 342.215C444.28 340.115 443.629 338.034 442.856 335.997C439.95 328.338 435.309 321.175 430.794 314.342L430.263 313.539C429.615 312.56 428.906 311.538 428.173 310.481C424.652 305.411 420.747 299.909 420.471 294.385C425.144 294.679 429.055 297.583 432.498 300.111C437.223 303.578 441.601 307.543 445.573 311.85C453.277 320.207 460.191 330.89 463.224 341.933C464.96 348.257 464.196 355.061 460.938 359.95ZM337.673 296.95L337.672 296.724C337.686 290.348 341.4 275.788 350.58 275.788C356.315 275.788 359.797 285.697 360.399 295.911L360.42 296.328C360.687 302.678 358.944 316.56 350.58 316.56C342.127 316.56 337.76 303.412 337.673 296.95ZM472.828 294.95L472.83 294.724C472.816 288.348 469.102 273.788 459.921 273.788C454.33 273.788 450.88 283.208 450.152 293.146L450.102 293.911C449.74 300.048 451.369 314.56 459.921 314.56C468.374 314.56 472.741 301.412 472.828 294.95ZM368.59 253.794C367.373 253.936 366.163 254.123 364.953 254.316C361.423 254.878 357.912 255.553 354.425 256.34C347.802 257.835 341.233 259.723 334.789 261.856C328.759 263.853 322.823 266.11 316.888 268.366C316.571 268.487 316.255 268.607 315.938 268.727C313.843 269.524 311.754 270.417 309.659 271.313C306.471 272.676 303.268 274.048 300 275.082C308.611 263.176 321.879 254.354 334.647 248.042C341.931 244.44 349.659 241.535 357.433 239.155L361.762 237.855C368.137 235.974 375.106 234.237 381.095 237.987C383.463 239.47 384.974 241.775 385.45 244.268C385.917 246.712 385.385 249.333 383.697 251.52C382.226 253.425 380.394 254.511 378.443 254.883C376.291 255.293 374.009 254.842 371.932 253.733C370.269 253.609 369.778 253.654 369.286 253.709L368.59 253.794ZM464.488 255.005C460.221 254.078 455.997 253.705 451.619 253.839C449.64 253.898 447.725 254.204 445.815 254.512C442.849 254.99 439.894 255.483 436.698 254.904C435.031 254.601 433.611 253.626 432.514 252.353C431.232 250.864 430.383 248.962 430.111 247.154C429.83 245.285 430.11 243.652 430.801 242.209C431.618 240.504 432.993 239.068 434.656 237.81C439.687 234.001 448.319 234.917 454.256 235.687C460.124 236.45 465.959 238.269 471.145 241.159C476.262 244.011 480.711 247.853 484.182 252.55C487.108 256.508 488.486 261.064 489.909 265.703C483.214 260.087 472.969 256.846 464.488 255.005Z" fill="black"/>
<path fill-rule="evenodd" clip-rule="evenodd" d="M741.333 268.495C725.335 283.088 735.613 319.646 741.851 309.763C742.781 300.611 745.639 283.075 754.915 279.527C823.145 276.617 809.055 445.322 681.957 424.558C600.977 419.094 515.446 301.818 439.294 373.186C356.554 305.789 263.127 406.829 177.924 420.667C108.649 443.07 5.12546 401.932 23.7685 316.531C28.4255 291.471 63.0815 262.804 84.3065 288.236C90.5765 294.277 82.6115 316.402 89.2035 311.828C99.4655 300.491 96.7915 282.386 87.3075 271.095C71.5995 252.397 43.5995 260.577 27.3115 273.782C-46.1715 346.073 42.3345 455.196 130.912 447.987C227.978 459.859 359.98 324.963 426.701 390.495C433.505 397.177 446.29 397.179 452.205 390.5C508.929 326.446 618.404 457.358 697.481 448.009C781.582 455.669 848.89 354.164 800.349 282.395C788.255 264.149 759.191 250.397 741.333 268.495Z" fill="black"/>
</svg>
