<svg width="482" height="483" viewBox="0 0 482 483" fill="none" xmlns="http://www.w3.org/2000/svg">
<path fill-rule="evenodd" clip-rule="evenodd" d="M464.868 95.4638C462.647 89.8588 458.719 82.8138 452.154 82.5328C447.076 67.0078 434.45 51.1968 416.888 51.6168C365.34 -1.09718 300.444 1.38782 232.594 12.5468C196.798 19.1858 160.451 32.1858 133.753 57.8398C101.777 88.0418 89.326 140.741 114.366 178.932C92.725 190.529 92.305 218.049 101.56 237.908C90.435 245.601 89.759 264.273 102.286 270.141C101.62 272.869 102.091 275.689 103.361 278.113C97.15 283.283 89.066 287.102 82.383 290.385C79.429 291.836 77.725 294.206 77.017 296.877C55.073 311.273 0.354996 346.455 1.007 374.456C0.684996 389.064 11.521 398.678 24.689 402.506C16.854 418.169 10.907 436.464 18.407 453.36C20.48 458.465 36.0122 473.468 36.7942 473.745C38.1612 474.917 60.444 464.687 71.274 459.469C73.374 473.129 87.981 480.286 100.572 475.605C112.511 472.006 119.85 461.899 127.38 452.705C137.375 474.508 166.782 474.759 185.788 465.359C202.857 457.474 215.832 443.022 223.06 425.607C261.442 444.396 306.348 449.873 348.048 442.368C350.724 447.104 356.648 450.285 361.925 448.453C384.099 441.787 408.616 441.413 427.412 426.14C466.591 398.019 469.89 346.175 467.158 301.982C464.735 257.919 466.856 213.489 458.846 169.902C462.322 157.069 468.104 145.724 473.454 133.668C479.266 121.026 479.144 102.233 464.868 95.4638Z" fill="white"/>
<path fill-rule="evenodd" clip-rule="evenodd" d="M100.609 282.496C102.918 281.916 104.158 285.019 102.198 286.266C89.7541 294.181 76.8991 301.25 64.8781 309.862C53.4446 318.049 42.8841 327.375 33.0364 337.401L31.9451 338.518C23.0421 347.677 13.1821 359.329 13.0821 372.84C13.0051 383.342 21.1021 394.805 32.3991 393.425C36.6551 392.905 40.5671 398.305 39.0821 402.198L37.5196 406.301C31.234 422.906 24.8388 441.72 29.8039 459.19L29.9861 459.813C31.1871 463.813 32.4531 467.348 37.0961 467.268C41.4051 467.192 45.8891 465.739 49.9231 464.352C58.2941 461.473 65.8801 456.672 72.3191 450.634C78.0145 445.294 85.2911 450.72 84.5243 457.506L84.4971 457.723C83.4481 465.339 95.5811 468.875 101.097 467.786C111.988 465.632 119.753 454.72 125.938 446.401C128.911 442.404 136.132 440.83 138.744 446.401C143.92 457.436 154.589 465.684 167.07 466.03C173.553 466.209 179.773 464.364 185.264 460.942C187.505 459.545 189.51 457.883 191.348 456L191.804 455.524C194.524 452.641 196.401 451.108 199.875 449.225C203.298 447.37 207.726 449.67 207.705 453.717C207.677 458.959 206.141 462.444 202.526 466.246C199.535 469.395 195.981 472.159 192.245 474.368C184.737 478.804 175.811 481.3 167.07 481.011C153.292 480.555 140.141 473.688 131.616 463.008C122.912 473.415 112.115 482.977 98.0841 482.72C87.5801 482.528 77.7911 477.06 73.1011 468.588C66.4801 473.153 59.2131 476.722 51.4391 479.053L50.7464 479.258C39.7424 482.46 27.079 483.733 19.9961 472.809C13.3461 462.553 12.8501 448.35 14.3741 436.627C15.7351 426.155 18.9571 416.21 22.6571 406.401C12.1251 403.256 3.95009 393.363 1.14209 382.699C-3.10591 366.573 5.13509 350.934 15.3231 338.952C26.3901 325.936 40.3191 314.927 54.3521 305.291C68.3481 295.682 84.0271 286.652 100.609 282.496ZM460.479 156.364C460.505 155.916 461.239 155.759 461.307 156.251C466.141 191.329 468.94 226.336 471.257 261.655C472.432 279.548 473.766 297.423 475.226 315.294C476.627 332.431 478.959 350.024 478.432 367.231C477.607 394.175 464.523 416.083 443.069 431.849C422.512 446.958 397.01 454.428 371.989 457.584C357.458 459.417 342.725 459.505 328.178 457.783C320.623 456.888 313.077 455.698 305.677 453.91L302.477 453.11C296.65 451.622 290.143 449.602 289.312 442.699C288.909 439.356 290.685 436.89 293.553 435.212C297.292 433.024 301.579 434.312 305.432 435.309C311.925 436.989 318.487 438.431 325.123 439.428C339.376 441.572 354.028 441.699 368.354 440.215C392.452 437.717 417.872 429.901 436.452 413.759C444.527 406.745 451.548 398.198 455.241 388.044C459.989 374.99 459.286 360.749 459.127 347.079C458.758 315.294 459.083 283.509 458.641 251.721C458.197 219.836 458.584 188.202 460.479 156.364ZM218.145 7.81926C246.303 0.557261 274.88 -1.32974 303.804 0.856259C331.081 2.91626 362.154 9.01926 384.432 25.7963C385.513 26.6103 384.866 28.1513 383.528 27.9383C368.634 25.5643 354.116 21.2463 339.286 18.3893C325.022 15.6413 310.501 13.5783 295.977 13.1003C246.855 11.4813 192.196 22.6123 152.586 53.2373C134.013 67.5963 119.839 86.9043 114.198 109.877C108.413 133.44 111.543 158.922 123.16 180.237C124.833 183.306 124.143 188.161 120.653 189.795C110.063 194.753 102.52 205.737 102.684 217.59C102.763 223.339 104.745 228.852 107.93 233.604C111.298 238.629 116.425 242.145 120.192 246.838C121.675 248.686 121.732 251.231 120.557 252.933C122.76 253.898 125.136 254.416 127.304 255.556C129.142 256.523 129.194 259.542 127.304 260.494C122.524 262.901 117.356 260.346 114.13 256.465C113.554 255.772 113.056 255.051 112.602 254.315C108.738 253.496 105.276 251.557 102.253 248.905C96.493 252.354 95.704 260.032 100.652 265.899C103.179 268.894 106.769 270.743 110.397 272.072L110.833 272.229C114.364 273.483 117.598 274.183 119.892 277.008C121.405 273.854 123.142 270.881 125.078 268.172C132.117 258.325 142.937 249.589 155.776 250.698C165.833 251.565 174.546 258.765 176.607 268.699C176.759 269.434 175.651 270.008 175.321 269.241C170.496 257.99 155.229 257.577 146.135 263.44C135.44 270.336 129.595 283.331 127.25 295.434C124.942 307.356 126.276 321.856 135.199 330.924C138.85 334.635 143.817 337.201 149.001 337.877C151.535 338.209 153.77 337.883 156.194 337.395L157.8 337.059C158.914 336.829 160.021 336.643 161.19 336.746L162.931 336.98L163.92 337.443C164.778 337.829 164.701 337.723 163.688 337.125C166.646 336.883 168.175 339.069 168.337 341.466C168.431 341.526 168.522 341.591 168.598 341.684C179.824 355.422 188.159 371.213 200.072 384.501L203.559 388.394C212.525 398.367 222.76 409.179 234.939 414.352L236.388 414.952C239.931 416.449 243.489 418.497 243.941 422.768C244.346 426.594 241.33 429.473 237.853 430.366C229.935 432.397 220.909 425.36 215.11 420.743C202.64 410.818 192.16 398.166 183.505 384.854L182.649 383.528C175.535 372.417 168.848 359.745 166.77 346.557L166.395 347.165C166.367 347.208 166.345 347.241 166.331 347.26C165.907 347.836 165.44 348.322 164.898 348.788C163.442 350.045 161.666 350.779 159.821 351.277C156.358 352.212 152.561 352.396 149.001 352.032C141.77 351.293 135.011 348.541 129.295 344.059C111.891 330.41 109.836 305.012 116.875 284.407C111.099 285.786 104.52 281.899 100.01 278.568C94.838 274.746 90.573 269.229 89.554 262.739C88.542 256.299 92.648 247.771 98.738 245.286C92.419 237.699 88.74 226.932 88.36 218.311C87.7 203.315 95.667 189.141 107.899 180.959C96.396 156.308 94.18 127.709 101.925 101.535C117.294 49.5963 168.778 20.5513 218.145 7.81926ZM174.324 402.443L174.468 401.987C175.693 397.97 177.275 389.98 183.276 393.022C189.009 395.927 185.349 404.526 183.344 408.712C180.945 413.721 176.802 417.737 171.238 418.813C166.712 419.688 161.742 418.564 158.576 415.067C157.653 414.048 157.132 412.93 156.585 411.696C156.372 411.216 156.276 410.887 156.236 410.673C156.184 410.908 156.036 411.258 155.658 411.67C153.132 414.43 150.746 417.643 148.913 420.908C148.479 421.68 147.111 421.139 147.457 420.294C149.592 415.072 149.233 406.997 153.992 403.22C158.187 399.89 162.128 402.511 164.347 406.388L164.46 406.59C167.703 412.478 172.871 406.886 174.324 402.443ZM128.695 383.575L129.133 382.966C133.618 376.837 141.182 369.463 148.751 375.164C151.158 376.977 151.247 380.003 148.751 381.802L147.807 382.476C144.5 384.82 141.208 387.034 138.779 390.396C136.14 394.051 133.77 397.921 130.222 400.788C123.947 405.858 113.806 406.858 108.361 400.023L107.825 399.344C107.37 398.758 106.847 398.052 106.423 397.347L106.093 397.804C106.06 397.85 106.03 397.894 106.002 397.935L105.926 398.052C103.688 401.628 100.861 404.573 97.3401 406.897C90.6481 411.312 83.1071 411.926 75.5361 409.589C74.7951 409.359 74.9941 408.366 75.7111 408.3C84.6821 407.462 93.4231 401.089 97.0721 392.882L97.4842 391.961C98.9608 388.696 100.615 385.594 104.263 384.312C107.814 383.064 111.542 384.382 113.977 387.068C116.013 389.313 116.537 393.776 120.21 392.792C124.232 391.714 126.496 386.677 128.695 383.575ZM103 329.051C104.987 327.541 108.099 329.161 108.646 331.349C111.125 341.255 100.829 352.928 90.9351 353.235C88.3881 353.313 85.9381 352.697 83.6821 351.518C81.9321 350.604 79.8611 348.268 77.9401 347.881C75.4591 347.382 73.2611 350.686 71.5141 352.382C69.3471 354.487 67.2031 356.441 64.7751 358.235C63.8051 358.952 62.3001 357.748 62.7101 356.647L63.5314 354.458C66.5043 346.667 71.6248 335.292 81.2071 338.525C85.9021 340.109 89.4361 345.451 94.3801 341.221C98.3391 337.834 98.7081 332.312 103 329.051ZM145.279 289.172C154.212 278.918 175.211 284.334 179.193 296.809C180.073 299.564 179.155 303.145 177.003 305.095C174.168 307.664 170.124 308.442 166.682 306.427C163.72 304.694 162.504 301.858 160.327 299.425C157.134 295.86 152.791 293.881 148.316 292.463C147.197 293.051 146.156 293.824 145.222 294.756C144.744 295.233 143.841 294.579 144.265 294.017C144.841 293.253 145.545 292.534 146.346 291.871L145.961 291.758C144.783 291.43 144.528 290.036 145.279 289.172ZM203.336 175.958C205.338 175.961 207.67 177.841 207.414 180.036L207.337 180.645C206.761 184.824 205.418 187.19 201.235 189.132C197.686 190.777 193.958 191.686 190.068 192.046C188.596 192.182 187.038 192.19 185.459 192.073L185.127 193.991C184.466 197.828 183.855 201.667 183.74 205.577C183.526 212.826 186.231 218.8 189.132 225.272C194.701 237.704 195.327 250.114 189.264 262.528C188.377 264.343 185.866 265.823 183.84 265.639C181.213 265.401 179.944 264.641 178.416 262.528C177.133 260.754 177.426 258.246 178.315 256.39L178.416 256.187C181.471 250.268 182.434 243.581 180.874 237.075C179.408 230.96 176.087 225.464 174.604 219.368C172.188 209.438 174.761 199.588 179.789 191.069C175.994 189.976 172.484 188.028 170.142 185.057L170.152 185.053C169.258 184.098 169.746 182.103 171.315 182.223L173.089 182.366C178.165 182.79 182.837 183.232 187.97 181.817C190.601 181.091 192.872 179.88 195.131 178.415L195.615 178.097C198.441 176.219 200.008 175.954 203.336 175.958ZM215.483 102.565C228.207 101.842 239.071 110.239 244.352 121.417C250.088 133.553 247.681 147.477 242.618 159.417L241.18 162.758C238.662 168.548 235.356 175.433 230.199 178.54C224.407 182.03 219.4 177.983 221.108 171.55C222.126 167.719 224.881 164.764 227.11 161.602C229.19 158.649 231.131 155.593 232.833 152.405C236.167 146.153 238.657 139.187 238.63 132.024C238.583 118.95 229.944 103.967 215.483 104.159C214.45 104.171 214.467 102.622 215.483 102.565ZM279.836 81.4695C279.043 80.8675 279.752 79.5285 280.639 80.0935C295.394 89.4775 306.411 107.104 308.629 124.421C309.86 134.029 308.92 144.297 304.828 153.164C302.481 158.252 298.453 163.109 292.821 164.504C287.643 165.785 282.306 162.828 280.699 157.774C280.076 155.813 281.148 153.762 282.767 152.691C288.017 149.22 292.244 144.84 294.717 138.948C297.29 132.822 298.316 126.321 298.347 119.713C298.423 104.238 292.247 90.9015 279.836 81.4695ZM460.077 88.1766C459.394 87.4196 460.253 86.3036 461.157 86.7776C471.824 92.3876 478.602 103.134 480.544 114.903C482.447 126.425 479.887 142.111 470.968 150.444C465.935 155.148 456.919 148.892 461.103 142.833C464.053 138.56 467.242 135.041 468.931 129.992C470.437 125.487 470.97 120.944 470.888 116.21C470.709 105.882 467.019 95.8766 460.077 88.1766ZM329.659 73.7484C347.884 72.8804 358.929 93.6854 361.459 109.192C363.021 118.773 361.847 128.641 356.557 136.951L356.244 137.435C351.88 144.074 343.944 151.717 335.393 148.573C331.774 147.244 330.811 143.367 333.242 140.426C336.962 135.924 342.712 134.089 346.21 129.282C350.134 123.891 351.42 117.137 351.193 110.581L351.162 109.857C350.554 97.7978 344.802 74.6517 329.659 75.0614C328.81 75.0834 328.82 73.7874 329.659 73.7484ZM386.666 70.2916C404.294 68.0386 415.029 88.7766 418.34 103.063C420.408 111.994 420.86 121.957 418.215 130.821L418.018 131.452C415.865 138.067 409.513 149.402 401.22 146.022C398.948 145.096 396.629 142.573 397.717 139.853C399.106 136.376 401.111 135.474 403.783 133.249C405.841 131.536 407.278 129.077 408.336 126.655C411.154 120.2 411.782 112.659 411.397 105.703L411.344 104.879C410.348 91.2925 402.981 71.0442 386.666 71.4166C385.921 71.4336 385.972 70.3796 386.666 70.2916ZM418.939 50.7954C428.75 47.0594 436.788 56.4404 442.428 63.1354C449.493 71.5244 455.902 80.5614 459.525 91.0044C462.752 100.309 463.32 110.655 460.413 120.127C458.974 124.817 456.732 129.166 453.672 132.994L453.281 133.477C450.097 137.36 447.022 139.747 441.805 138.356C439.682 137.789 438.785 135.69 439.152 133.684C439.938 129.398 442.147 128.285 445.008 125.293C447.531 122.654 449.403 119.404 450.662 115.987C453.258 108.938 453.393 101.301 451.65 94.0394C449.7 85.9097 445.862 78.4024 441.422 71.3674L440.464 69.8606C435.759 62.4231 429.051 50.9695 419.126 52.1764C418.276 52.2804 418.265 51.0514 418.939 50.7954Z" fill="black"/>
<g clip-path="url(#clip0_384_8248)">
<path fill-rule="evenodd" clip-rule="evenodd" d="M458.536 251.442C450.461 302.847 394.094 308.532 384.079 257.5C385.686 256.837 386.842 255.533 386.601 253.002C386.544 241.88 390.212 230.126 400.872 223.942C411.887 217.56 424.778 216.927 437.526 217.088C461.851 216.543 461.34 235.679 458.536 251.442ZM375.254 229.086C367.62 228.783 357.962 229.037 351.123 233.414C349.242 228.649 344.357 223.561 339.421 220.841C357.768 221.346 376.653 219.647 395.136 218.328C390.712 221.166 386.596 225.431 383.92 230.361C381.438 229.115 377.882 229.231 375.254 229.086ZM341.604 256.892C320.435 325.472 267.593 295.58 261.832 286.792C251.441 272.248 249.487 236.893 258.538 227.44C271.494 218.892 289.836 221.092 305.142 220.882C333.261 221.239 353.232 229.156 341.604 256.892ZM483.531 225.35C477.78 224.642 471.634 224.5 466.286 226.883C464.639 220.297 459.471 214.79 453.634 212.367C452.928 211.533 453.034 211.085 450.621 211.21C435.804 207.019 419.223 209.237 404.985 213.535C382.497 215.317 358.903 216.722 336.227 219.178C314.984 210.2 250.876 208.884 246.892 231.014C241.881 230.308 233.346 226.596 229.135 231.631C198.247 226.703 166.33 233.552 135.307 236.603C127.499 237.956 123.476 252.542 132.341 252.342C137.324 251.069 132.187 243.26 138.898 242.673C168.829 239.596 198.106 235.231 228.344 234.72C227.293 239.634 248.344 239.954 248.655 237.084C248.7 237.106 248.747 237.12 248.793 237.139C243.591 255.385 248.286 281.643 257.687 292.957C270.859 307.772 303.928 312.022 318.591 302.49C337.506 293.693 357.182 249.532 351.655 234.86C361.686 231.868 371.603 232.766 382.014 234.29C379.631 240.627 375.516 256.224 381.435 257.577C380.349 288.544 410.294 307.867 437.899 295.163C461.792 284.607 470.148 251.195 467.224 230.914C470.199 236.323 495.173 230.434 483.531 225.35Z" fill="black"/>
</g>
<path fill-rule="evenodd" clip-rule="evenodd" d="M364.534 347.337C367.965 341.283 378.203 342.267 379.768 349.328C382.943 363.642 365.874 376.86 352.91 377.19C340.027 377.517 325.572 366.552 327.437 352.702C327.898 349.276 332.474 349.692 334.034 351.84L334.639 352.664C338.876 358.356 344.467 364.248 352.331 362.86C355.59 362.286 358.55 360.25 360.52 357.629C362.896 354.466 362.635 350.689 364.534 347.337ZM282.615 242.616C284.361 242.135 286.123 242.321 287.67 242.979C291.124 243.612 294.009 246.492 295.023 249.78C295.103 250.065 295.192 250.346 295.291 250.624L295.445 251.039L295.031 249.985C295.222 251.023 296.067 252.114 296.371 253.156C296.745 254.437 296.836 255.892 296.71 257.302C297.808 257.313 298.906 257.35 300.002 257.445L301.061 257.54C306.984 258.091 313.486 259.1 316.998 264.218C318.97 267.094 317.119 272.272 313.496 272.826C307.919 273.679 303.115 270.593 297.557 269.975C292.303 269.39 286.805 269.725 281.619 270.674C270.912 272.632 261.073 276.972 250.639 279.695L249.219 280.055L249.221 280.048C247.433 280.48 245.403 277.994 247.172 276.54C255.531 269.673 266.233 264.108 276.776 260.719C275.24 258.276 274.765 255.058 275.815 252.435C275.977 251.892 276.179 251.363 276.392 250.836L276.836 249.752C276.879 249.241 276.977 248.736 277.119 248.241L277.142 248.09L277.155 248.099C277.94 245.548 279.99 243.34 282.615 242.616ZM389.26 243.011C391.546 240.724 394.758 241.062 397.144 242.862L397.461 243.11C399.71 244.109 401.571 246.292 402.793 248.315C404.062 250.416 404.905 252.556 404.938 254.869C410.472 254.887 415.773 256.547 419.836 261.015C421.148 262.457 422.044 264.681 421.322 266.636L420.892 267.799C419.527 271.491 413.394 273.617 411.309 269.275L411.213 269.063C408.998 263.907 400.495 264.448 395.976 264.975C392.826 265.344 389.715 266.127 386.673 267.004C385.601 267.313 384.539 267.649 383.478 267.991L382.417 268.335C381.851 268.518 378.903 270.119 380.737 269.74C381.23 269.638 381.601 270.356 381.098 270.597C378.912 271.642 376.58 269.561 376.726 267.213C376.979 263.137 383.451 260.903 386.565 259.497L386.752 259.412C387.946 258.86 389.197 258.331 390.488 257.84C389.762 256.76 389.162 255.56 388.663 254.272C388.191 253.056 387.876 251.874 387.703 250.581C387.533 249.949 387.533 249.317 387.703 248.684L387.729 248.503C387.641 248.085 387.599 247.653 387.605 247.218L387.587 247.049H387.605C387.666 245.526 388.271 244 389.26 243.011ZM352.732 286.416C361.515 289.13 376.005 296.523 371.428 307.934C365.037 318.414 348.088 310.712 339.875 307.326C332.496 304.882 328.654 315.223 335.789 318.34C394.748 341.665 394.531 280.106 354.87 281.01C350.503 281.109 350.366 285.514 352.732 286.416ZM274.727 206.149L276.225 205.712C284.01 203.457 291.957 199.563 298.869 205.639C301.583 208.025 302.142 212.983 300.2 215.959C295.776 222.74 289.215 221.704 282.07 222.282C276.63 222.722 271.271 224.32 266.193 226.317C262.043 227.95 258.194 230.249 254.56 232.813C250.99 235.334 248.551 239.275 244.889 241.544C243.547 242.376 241.997 241.52 241.515 240.171C239.807 235.386 242.693 229.425 245.135 225.348C248.116 220.374 252.644 216.306 257.513 213.228C262.845 209.856 268.74 207.91 274.727 206.149ZM388.164 201C401.323 200.996 413.985 208.315 421.345 219.044C423.846 222.689 422.013 228.089 418.423 230.188C414.396 232.544 410.09 230.847 407.436 227.472L407.278 227.267C403.057 221.646 397.616 217.219 391.166 214.337C388.019 212.93 384.539 211.789 381.135 211.21L380.035 211.021C378.493 210.763 376.705 210.516 375.31 210.758C374.563 210.856 373.877 211.103 373.245 211.479C373.549 212.143 372.764 212.943 372.039 212.545C368.769 210.749 369.17 207.545 371.871 205.055C375.692 201.532 383.229 201.001 388.164 201Z" fill="black"/>
<defs>
<clipPath id="clip0_384_8248">
<rect width="332" height="110" fill="white" transform="translate(129 201)"/>
</clipPath>
</defs>
</svg>
