<svg width="662" height="588" viewBox="0 0 662 588" fill="none" xmlns="http://www.w3.org/2000/svg">
<path fill-rule="evenodd" clip-rule="evenodd" d="M453.407 188.718C387.637 135.262 282.24 117.905 211.837 171.836C157.133 222.449 134.495 366.275 144.176 438.547C146.868 484.902 182.283 537.443 234.27 522.782C243.098 521.913 251.67 518.529 260.579 517.82C271.236 516.593 281.974 516.572 292.61 518.075C315.786 521.353 336.331 533.658 358.825 539.411C400.564 550.085 447.135 542.905 483.063 518.861C601.79 440.803 548.01 264.268 453.407 188.718Z" fill="white"/>
<path fill-rule="evenodd" clip-rule="evenodd" d="M444.649 540.696C445.87 540.275 447.089 539.836 448.299 539.386C448.379 539.666 448.509 539.935 448.66 540.196C448.83 540.616 449 541.025 449.189 541.435C447.67 541.446 446.149 541.175 444.649 540.696ZM442.21 22.6747C441.67 21.4657 441.049 20.3057 440.349 19.1847C442.049 19.7357 443.75 20.4957 445.29 21.4757C444.25 21.8257 443.229 22.2257 442.21 22.6747ZM182.42 180.836C182.35 180.824 182.281 180.814 182.212 180.802C183.104 178.427 184.693 176.185 186.448 174.566C186.763 174.275 187.104 174.006 187.434 173.728C185.571 175.947 183.881 178.314 182.42 180.836ZM657.769 429.185C656.889 420.845 655.769 412.536 654.319 404.275C652.929 396.366 651.759 387.906 647.729 380.886C643.729 373.896 639.719 367.105 634.96 360.956C635.639 357.816 636.54 354.866 637.319 352.486C641.819 338.786 646.25 321.386 636.899 308.656C634.729 305.706 632.08 303.446 629.049 301.406C627.759 300.536 625.62 299.746 624.629 298.546C623.929 297.696 624.17 298.156 624.139 297.736C623.969 295.476 629.269 290.706 630.509 288.916C632.83 285.605 634.559 281.876 635.879 278.066C641.099 262.986 637.549 246.376 634.41 231.265C632.75 223.256 630.92 215.226 630.319 207.046C629.759 199.366 630.809 191.866 631.429 184.226C632.03 176.685 631.87 168.906 628.639 161.925C627.059 158.525 624.67 155.525 621.759 153.185C618.92 150.896 615.379 149.566 612.61 147.286C609.849 145.015 610.639 141.946 611.36 138.806C612.349 134.546 613.599 130.316 613.719 125.916C613.939 118.246 610.809 110.775 605.92 104.976C600.879 98.9857 593.679 94.9347 585.899 94.0247C582.339 93.6047 578.839 94.3157 575.299 94.0657C571.799 93.8257 571.04 92.0757 570.379 88.8757C568.86 81.5457 569.479 74.3057 565.87 67.4657C562.67 61.3857 556.979 57.2647 550.689 54.8357C539.16 50.3757 525.75 51.2957 513.589 53.9247C506.41 32.8057 484 18.9557 461.95 18.7857C458.509 12.9457 452.679 8.58572 446.03 6.02472C435.03 1.77472 423.379 4.25572 411.92 4.25572H411.87C410.719 4.18472 409.569 4.15572 408.42 4.16572C407.339 4.10472 406.259 4.01472 405.179 3.89572C392.139 2.35472 379.239 -2.98528 366.319 2.24572C360.559 4.57572 355.979 8.16572 353.08 12.7457C348.71 13.9347 344.399 15.2957 340.17 16.8757C321.839 17.3547 303.679 27.1847 294.41 43.1157C281.36 41.6357 267.2 44.1457 258.569 54.8057C256.321 57.5797 254.58 60.8387 253.426 64.2987C244.626 67.1447 236.483 72.2157 231.154 79.8537C226.291 86.8237 225.357 95.8357 228.646 103.318C220.79 109.009 214.651 117.156 211.694 126.776C209.897 132.621 209.63 138.66 210.786 144.413C202.743 146.197 195.05 149.504 188.234 154.467C181.091 159.666 172.17 167.941 171.7 177.465C171.665 178.164 171.692 178.863 171.748 179.56C156.023 178.455 139.989 181.119 129.36 193.726C121.379 203.185 117.91 215.366 120.04 226.456C101.33 230.256 83.6386 240.036 71.2986 254.496C62.3296 265.006 54.3596 278.366 54.8386 292.675C54.9886 296.986 55.9996 301.326 57.7496 305.336V305.345C56.9996 306.756 56.2286 308.326 55.4886 309.996C43.8986 318.105 35.4786 330.816 30.7386 344.826C26.9096 356.175 24.4996 370.916 28.5886 382.466C29.2096 384.226 29.9996 385.886 30.9196 387.425C30.1486 388.246 29.4196 389.066 28.7096 389.896C20.8986 399.025 12.9886 410.525 13.5296 423.095C13.7496 428.156 15.6286 433.246 18.6996 437.425C7.8986 448.376 -0.800405 462.196 0.0585952 477.626C0.798595 491.056 8.1696 504.696 19.7186 511.146C17.7896 521.496 20.3696 532.416 28.4286 540.496C32.4496 544.536 37.1886 547.196 42.2096 548.616C43.3296 560.806 54.1486 570.616 65.6386 573.435C67.7796 573.966 69.9196 574.286 72.0486 574.435C82.3886 579.506 94.7186 578.925 105.269 574.275C108.379 578.226 112.429 581.446 117.149 583.756C119.059 584.696 121.08 585.476 123.189 586.105C138.089 590.515 153.37 584.536 166.399 577.556C166.819 577.336 167.589 577.056 168.269 576.746C170.069 578.756 173.349 580.746 175.059 581.726C180.86 585.056 187.95 586.605 194.61 586.166C202.42 585.646 209.309 583.066 215.689 579.396C216.62 579.556 217.559 579.646 218.5 579.696C224.5 580.015 229.849 578.116 234.66 575.116C237.839 575.536 241.099 575.496 244.399 574.916C251.67 576.765 258.75 573.826 264.439 569.156C266.96 567.086 269.089 564.656 271.37 562.336C273.739 559.925 275.54 559.366 278.309 557.746C284.86 553.916 285.649 544.206 282.809 537.185C283.349 535.956 283.66 534.586 283.66 533.066C283.639 519.806 277.53 507.646 270.03 497.036C266.679 492.306 263.04 487.675 259.049 483.476C255.839 480.105 251.33 474.636 246.58 473.265C246.29 473.056 245.989 472.845 245.689 472.646C246.61 469.425 247.149 466.146 246.92 462.796C246.679 459.355 245.569 456.095 243.79 453.316C249.759 441.746 252.28 429.056 251.08 415.816C255.939 408.925 259.62 401.316 261.519 392.976C262.689 387.816 263.36 382.386 263.269 377.095C263.229 374.556 262.299 371.345 262.28 368.716C262.42 369.546 263.5 366.446 263.92 365.675C268.739 356.726 274.929 349.746 275.96 339.196C276.559 333.025 275.099 326.206 271.399 321.146C273.769 311.806 273.739 301.775 270.009 292.866C269.009 290.486 267.86 288.156 266.54 285.946C267.149 284.086 267.71 282.206 268.429 280.515C268.71 279.845 268.989 279.166 269.269 278.486C271.979 276.095 274.5 273.486 276.62 270.925C281.319 265.256 284.91 258.756 285.36 251.265C285.58 247.515 284.7 243.925 283.61 240.366C283.129 238.756 282.839 236.966 282.269 235.396C281.95 234.525 281.179 233.636 280.91 232.816C280.849 232.636 280.799 232.486 280.759 232.366C280.799 232.246 280.83 231.996 280.83 231.525C280.839 227.935 281.309 224.425 281.33 220.966C284.62 224.286 288.58 226.765 293.08 228.216C302.149 231.126 311.61 229.806 319.639 225.316C328.28 231.236 337.989 236.595 348.17 238.746C354.219 240.025 360.28 239.496 366.349 240.286C372.379 241.076 378.21 243.706 383.889 245.756C396.53 250.326 409.139 255.015 421.819 259.466C432.059 263.056 443.139 265.906 453.86 263.886C456.87 268.525 460.78 272.446 465.79 275.326C469.379 277.376 473.319 278.765 477.389 279.456C480.989 280.066 485.21 279.826 488.129 282.296C490.979 284.696 492.759 288.275 495.319 290.976C498.17 293.996 501.689 296.616 505.379 298.496C508.339 300.006 511.36 301.095 514.429 301.806C514.16 308.636 513.899 315.456 513.819 322.296C513.67 337.156 513.729 352.015 513.53 366.876C513.33 381.685 512.86 396.496 512.08 411.286C511.339 425.166 510.299 439.095 506.989 452.636C496.009 497.566 454.879 529.736 408.839 531.376C395.17 531.866 381.639 529.946 368.569 525.925C355.03 521.756 342.939 513.175 329.059 510.536C325.429 509.855 322.009 513.506 324.089 517.015C327.67 523.046 332.019 526.726 337.969 530.355C344.2 534.146 351.139 536.956 357.989 539.416C370.589 543.935 383.92 546.556 397.29 547.286C407.489 547.845 417.729 547.146 427.719 545.226C428.42 547.376 429.66 549.466 430.599 551.456C430.739 551.746 431.21 551.546 431.12 551.246C430.969 550.746 430.87 550.306 430.83 549.946C434.189 554.326 439.379 557.355 444.71 558.826C448.469 559.866 452.46 560.185 456.33 559.746C457.58 559.605 458.769 559.396 459.95 559.136C463.889 562.586 468.929 564.886 473.989 566.036C473.12 571.316 475.729 577.076 481.78 578.576C484.319 579.206 486.759 579.216 489.2 578.986C491.17 579.906 493.29 580.626 495.54 581.116C498.469 581.756 501.969 580.935 504.179 578.816C505.389 579.666 506.519 580.256 507.639 581.605C512.25 587.166 522.189 582.736 522.629 576.306C524.089 576.306 525.559 576.326 527.03 576.376C527.379 576.536 527.729 576.696 528.089 576.866C534.519 579.855 541.179 582.466 548.29 580.116C549.599 579.685 550.799 579.136 551.889 578.496C556.899 578.946 561.839 578.956 566.92 577.316C569.92 576.345 572.739 574.806 575.089 572.786C582.929 575.086 591.2 576.126 599 573.275C604.839 571.146 609.54 567.786 612.849 563.355C617.91 563.536 623.049 562.316 627.679 559.906C635.599 555.806 641.149 548.015 645.019 540.206C653.54 522.976 658.58 504.466 660.559 485.376C662.509 466.576 659.729 447.876 657.769 429.185Z" fill="black"/>
<g clip-path="url(#clip0_384_8249)">
<path fill-rule="evenodd" clip-rule="evenodd" d="M509.133 386.318C502.4 395.363 489.918 398.244 478.405 397.249C453.574 394.859 445.759 366.658 444.945 344.739C461.596 349.423 443.537 316.249 500.456 312.601C520.521 310.929 514.989 323.047 523.854 331.901C523.672 350.483 520.579 370.674 509.133 386.318ZM390.862 364.966C376.202 433.619 295.924 417.289 287.491 355.403C295.278 349.907 293.227 336.336 302.901 331.419C318.233 321.623 337.399 322.042 354.81 322.272C377.065 323.801 383.407 333.02 394.839 343.078C394.289 349.796 392.703 357.758 390.862 364.966ZM540.934 301.231C540.111 301.094 539.287 300.965 538.463 300.844C537.82 300.479 537.065 300.198 536.187 300.029C534.182 299.52 532.191 299.177 530.203 298.992C501.671 292.571 435.664 301.688 432.94 326.036C423.854 329.069 415.992 326.353 405.461 326.623C397.445 293.118 258.862 297.847 252.197 318.047C252.172 318.04 252.147 318.034 252.121 318.026C245.717 316.044 236.276 316.522 228.946 316.208C213.295 315.88 197.626 317.275 182.313 320.576C153.638 325.133 114.503 330.468 134.446 366.276C134.45 366.282 134.453 366.289 134.458 366.295L134.461 366.292C137.898 369.815 143.731 366.978 143.948 362.209C137.243 345.245 152.387 343.208 164.039 338.333C193.032 327.917 222.55 326.473 252.536 329.695C254.792 332.351 258.215 334.667 261.833 335.879C281.882 339.207 271.316 354.079 283.989 356.242C281.661 408.084 344.602 436.382 381.071 402.303C395.632 388.067 399.103 366.978 402.479 347.969C404.264 347.568 405.399 346.592 406.062 345.3C410.355 341.014 413.052 337.056 421.541 335.879C430.03 334.703 436.565 337.064 437.449 337.787C437.672 338.236 437.911 338.686 438.189 339.136C438.577 339.807 439.105 340.342 439.705 340.763C431.322 392.387 471.399 425.035 511.858 398.26C529.438 381.723 533.153 356.405 533.887 333.807C536.27 332.369 537.779 329.582 536.954 326.078C535.817 321.248 538.483 317.066 542.729 314.966C548.246 312.239 547.27 302.28 540.934 301.231Z" fill="black"/>
</g>
<path fill-rule="evenodd" clip-rule="evenodd" d="M416.365 440.517C428.755 440.457 447.315 440.097 459.695 440.827C463.265 441.037 465.025 446.137 465.275 448.557C467.645 471.047 449.685 488.987 429.855 495.937C411.455 502.387 387.155 503.607 370.745 491.557C363.615 486.327 358.215 479.077 354.695 471.007C352.795 466.657 351.405 462.147 350.635 457.467C350.045 453.897 348.925 449.087 350.235 445.577C352.035 440.787 357.045 441.127 361.335 441.047C367.255 440.927 373.175 440.776 379.085 440.707C391.515 440.566 403.945 440.566 416.365 440.517ZM450.735 447.066C445.165 447.667 383.665 448.106 374.165 448.316C372.735 448.347 371.235 448.316 369.715 448.276C368.662 451.534 371.395 458.242 374.335 459.407C377.275 460.571 402.135 461.714 416.815 461.044C426.825 460.594 452.791 454.526 452.791 451.923C452.791 449.319 451.685 446.967 450.735 447.066ZM326.344 389.376C328.257 388.364 330.046 389.674 330.294 391.642C330.793 395.593 328.707 399.723 328.602 403.792C328.489 408.143 328.962 412.49 328.816 416.841C328.561 424.44 326.291 432.069 321.901 438.327C316.661 445.796 302.84 453.953 296.244 443.141C291.501 435.367 295.229 424.029 298.681 416.528C301.388 410.648 305.325 405.211 309.735 400.489C312.67 397.345 318.839 390.263 323.581 390.975C323.763 391.002 323.845 391.221 323.81 391.379C323.778 391.518 323.725 391.641 323.682 391.773C324.368 390.796 325.231 389.964 326.344 389.376ZM322.733 393.459C321.892 394.462 320.749 395.264 319.781 396.245C317.722 398.331 315.676 400.425 313.83 402.706C310.465 406.863 307.687 411.508 305.484 416.376C302.857 422.178 298.531 432.125 301.616 438.576C303.27 442.033 307.526 441.413 310.396 439.73C315.758 436.587 318.921 429.88 320.423 424.112C322.098 417.678 321.119 411.149 321.15 404.6C321.165 401.255 321.226 396.841 322.733 393.459ZM478.999 379.183C479.091 376.71 481.572 375.396 483.725 376.471C487.414 378.314 488.97 382.058 491.007 385.491C493.369 389.472 495.732 393.454 498.094 397.435C502.262 404.46 507.952 411.957 510.052 419.946C513.156 431.754 502.91 440.42 491.553 437.884C479.702 435.238 475.302 421.456 475.552 410.691C475.683 405.056 476.998 399.333 478.108 393.83C478.761 390.592 478.986 387.075 479.824 383.828C479.268 382.292 478.941 380.738 478.999 379.183ZM418.814 389.367C416.836 387.947 418.406 383.243 422.634 383.97C461.031 390.567 441.136 456.708 392.112 420.413C386.275 415.704 393.343 405.334 399.634 409.366C406.418 414.569 420.186 426.073 429.748 416.039C437.872 404.66 426.366 393.957 418.814 389.367ZM484.753 392.525C484.279 395.687 483.57 398.729 483.241 400.975C481.944 409.816 481.025 421.298 488.333 427.986C491.426 430.817 496.8 431.866 500.394 429.195C505.651 425.289 500.132 417.777 497.679 413.765C494.055 407.839 490.486 401.884 486.941 395.911C486.299 394.829 485.54 393.695 484.753 392.525ZM344.122 346.597C356.677 344.567 370.26 352.836 374.643 364.755C375.749 367.762 373.912 371.486 371.279 373.024C368.241 374.798 364.994 373.938 362.406 371.879C358.928 369.113 357.274 364.67 353.454 362.156C350.222 360.028 345.89 359.916 342.174 360.531C333.436 361.977 326.568 367.616 318.587 370.91C317.468 371.372 316.813 369.937 317.189 369.092C322.023 358.228 332.116 348.538 344.122 346.597ZM465.841 346.106C475.876 345.245 487.833 349.592 491.007 359.918C491.083 360.166 490.822 360.458 490.563 360.362C484.491 358.111 477.776 356.743 471.285 357.888C467.105 358.626 458.854 361.585 458.538 366.38C458.049 373.774 449.471 375.593 445.292 369.967C441.228 364.495 444.725 357.011 449.215 353.056C453.923 348.91 459.631 346.639 465.841 346.106ZM369.603 304.201C371.782 306.677 372.532 311.279 369.603 313.649C364.451 317.819 358.755 316.203 352.581 316.556C347.493 316.848 342.603 317.69 337.702 319.091C326.95 322.164 318.189 327.774 309.006 333.934C307.801 334.742 306.571 333.201 307.146 332.074C312.447 321.691 322.72 313.162 333.01 307.963C338.502 305.188 344.512 302.886 350.588 301.83L352.465 301.502C358.273 300.497 365.494 299.532 369.603 304.201ZM451.193 297.179L452.63 297.473C468.267 300.742 488.583 307.271 495.988 322.631C496.271 324.802 495.972 325.268 495.73 325.572L495.649 325.673C495.449 325.933 495.29 326.291 494.349 326.587C494.087 326.524 493.824 326.458 493.557 326.389C490.163 325.499 487.477 324.274 484.877 323.002L482.058 321.613C478.788 320.01 475.488 318.464 471.992 317.324C464.529 314.89 456.854 313.175 449.06 312.259C447.37 312.061 445.744 311.491 444.46 310.514C443.242 309.586 442.311 308.302 441.887 306.595C441.337 304.386 441.495 302.714 442.68 300.721C443.572 299.224 444.847 298.187 446.311 297.591C447.804 296.984 449.503 296.841 451.193 297.179Z" fill="black"/>
<defs>
<clipPath id="clip0_384_8249">
<rect width="392" height="138" fill="white" transform="translate(142 288)"/>
</clipPath>
</defs>
</svg>
