<svg width="59" height="59" viewBox="0 0 59 59" fill="none" xmlns="http://www.w3.org/2000/svg">
<path d="M20.4459 30.7171L34.1234 44.3721C34.3481 44.5986 34.6154 44.7784 34.9098 44.9011C35.2043 45.0238 35.5202 45.087 35.8392 45.087C36.1583 45.087 36.4741 45.0239 36.7686 44.9012C37.0631 44.7785 37.3304 44.5988 37.5551 44.3723C38.0052 43.9195 38.2579 43.307 38.258 42.6686C38.258 42.0301 38.0054 41.4176 37.5553 40.9648L25.5935 28.8807L37.5568 16.9189C38.0069 16.4662 38.2596 15.8537 38.2596 15.2152C38.2597 14.5768 38.0071 13.9643 37.557 13.5114C37.3332 13.2831 37.0663 13.1014 36.7718 12.9769C36.4772 12.8525 36.1609 12.7877 35.8412 12.7863C35.5215 12.7876 35.2051 12.8524 34.9106 12.9768C34.6161 13.1012 34.3491 13.2829 34.1253 13.5112L20.4462 27.1646C20.2008 27.3908 20.0051 27.6655 19.8711 27.9712C19.7372 28.2769 19.6681 28.607 19.668 28.9408C19.668 29.2745 19.7371 29.6046 19.871 29.9104C20.0049 30.2161 20.2006 30.4907 20.4459 30.7171Z" fill="#1B1B1B"/>
</svg>
