<svg width="58" height="58" viewBox="0 0 58 58" fill="none" xmlns="http://www.w3.org/2000/svg">
<path d="M37.5549 27.2841L23.8766 13.6299C23.6519 13.4034 23.3847 13.2236 23.0902 13.1009C22.7957 12.9782 22.4798 12.915 22.1608 12.915C21.8417 12.915 21.5259 12.9782 21.2314 13.1009C20.9369 13.2236 20.6696 13.4034 20.4449 13.6299C19.9948 14.0827 19.7422 14.6952 19.7422 15.3336C19.7422 15.9721 19.9948 16.5846 20.4449 17.0374L32.4074 29.1207L20.4449 41.0832C19.9948 41.536 19.7422 42.1485 19.7422 42.787C19.7422 43.4254 19.9948 44.0379 20.4449 44.4907C20.6688 44.7191 20.9357 44.9007 21.2302 45.0252C21.5247 45.1496 21.841 45.2144 22.1608 45.2157C22.4805 45.2144 22.7968 45.1496 23.0913 45.0252C23.3859 44.9007 23.6528 44.7191 23.8766 44.4907L37.5549 30.8366C37.8002 30.6103 37.996 30.3356 38.1299 30.0299C38.2638 29.7242 38.3329 29.394 38.3329 29.0603C38.3329 28.7266 38.2638 28.3964 38.1299 28.0907C37.996 27.785 37.8002 27.5104 37.5549 27.2841Z" fill="#1B1B1B"/>
</svg>
